<?xml version="1.0" standalone="no"?><!DOCTYPE svg PUBLIC "-//W3C//DTD SVG 1.1//EN" "http://www.w3.org/Graphics/SVG/1.1/DTD/svg11.dtd" ><svg version="1.1" xmlns="http://www.w3.org/2000/svg"><defs><font horiz-adv-x="0" id="font"><font-face ascent="1000" bbox="-213 -220 1309 1031" cap-height="750" descent="-200" font-family="Taub Sans" font-stretch="normal" font-style="normal" font-weight="600" units-per-em="1000" x-height="500" /><missing-glyph d="M373 607Q439 607 470.5 577.5Q502 548 502 500Q502 461 485.5 439Q469 417 448.5 398Q428 379 409.5 355.5Q391 332 386 290H304Q309 341 323.5 370.5Q338 400 354 418.5Q370 437 382.5 449.5Q395 462 395 478Q395 492 383.5 500Q372 508 353 508Q326 508 298 497.5Q270 487 257 476V577Q274 588 306 597.5Q338 607 373 607ZM284 150 293 256H392L383 150ZM100 750H650V0H100ZM180 670V80H570V670Z" horiz-adv-x="750" /><glyph glyph-name=".null" horiz-adv-x="0" /><glyph d="M415 750 678 0H533L475 170H197L139 0H1L264 750ZM241 300H430L335 578Z" glyph-name="A" horiz-adv-x="679" unicode="A" /><glyph d="M904 0H462V170H242L155 0H2L404 750H904V620H602V445H854V315H602V130H904ZM462 300V599L308 300Z" glyph-name="AE" horiz-adv-x="947" unicode="&#198;" /><glyph d="M415 750 678 0H533L475 170H197L139 0H1L264 750ZM241 300H430L335 578ZM275 814 363 986H505L399 814Z" glyph-name="Aacute" horiz-adv-x="679" unicode="&#193;" /><glyph d="M415 750 678 0H533L475 170H197L139 0H1L264 750ZM241 300H430L335 578ZM340 892Q378 892 400.5 916Q423 940 425 986H520Q517 900 468.5 850.5Q420 801 340 801Q260 801 211.5 850.5Q163 900 160 986H255Q257 940 279.5 916Q302 892 340 892Z" glyph-name="Abreve" horiz-adv-x="679" unicode="&#258;" /><glyph d="M415 750 678 0H533L475 170H197L139 0H1L264 750ZM241 300H430L335 578ZM529 814H418L340 905L262 814H151L290 986H390Z" glyph-name="Acircumflex" horiz-adv-x="679" unicode="&#194;" /><glyph d="M415 750 678 0H533L475 170H197L139 0H1L264 750ZM241 300H430L335 578ZM174 977H303V823H174ZM377 977H506V823H377Z" glyph-name="Adieresis" horiz-adv-x="679" unicode="&#196;" /><glyph d="M415 750 678 0H533L475 170H197L139 0H1L264 750ZM241 300H430L335 578ZM175 986H317L405 814H281Z" glyph-name="Agrave" horiz-adv-x="679" unicode="&#192;" /><glyph d="M415 750 678 0H533L475 170H197L139 0H1L264 750ZM241 300H430L335 578ZM469 845H211V955H469Z" glyph-name="Amacron" horiz-adv-x="679" unicode="&#256;" /><glyph d="M415 750 678 0H533L475 170H197L139 0H1L264 750ZM241 300H430L335 578ZM635 -213Q577 -213 543 -183.5Q509 -154 509 -104Q509 -56 541.5 -17Q574 22 640 48L678 0Q639 -12 615.5 -36Q592 -60 592 -89Q592 -110 605.5 -122.5Q619 -135 644 -135Q676 -135 702 -112L740 -172Q702 -213 635 -213Z" glyph-name="Aogonek" horiz-adv-x="679" unicode="&#260;" /><glyph d="M415 750 678 0H533L475 170H197L139 0H1L264 750ZM241 300H430L335 578ZM459 911Q459 860 425.5 826Q392 792 340 792Q288 792 254.5 826Q221 860 221 911Q221 963 254.5 997Q288 1031 340 1031Q392 1031 425.5 997Q459 963 459 911ZM284 911Q284 887 299.5 870.5Q315 854 340 854Q365 854 380.5 870.5Q396 887 396 911Q396 937 380.5 953Q365 969 340 969Q315 969 299.5 953Q284 937 284 911Z" glyph-name="Aring" horiz-adv-x="679" unicode="&#197;" /><glyph d="M415 750 678 0H533L475 170H197L139 0H1L264 750ZM241 300H430L335 578ZM523 963V942Q523 887 496 858Q469 829 420 829Q397 829 375 836.5Q353 844 327 858Q305 871 293.5 876.5Q282 882 271 882Q246 882 246 855V847H157V857Q157 911 184 941Q211 971 260 971Q283 971 305 963Q327 955 353 941Q375 927 386.5 922Q398 917 409 917Q434 917 434 944V963Z" glyph-name="Atilde" horiz-adv-x="679" unicode="&#195;" /><glyph d="M587 551Q587 422 483 382Q541 364 571.5 319Q602 274 602 204Q602 110 546.5 55Q491 0 394 0H63V750H384Q479 750 533 696.5Q587 643 587 551ZM203 315V130H371Q415 130 438.5 153.5Q462 177 462 222Q462 267 438.5 291Q415 315 371 315ZM203 620V445H361Q403 445 425 467.5Q447 490 447 533Q447 575 425 597.5Q403 620 361 620Z" glyph-name="B" horiz-adv-x="635" unicode="B" /><glyph d="M587 551Q587 422 483 382Q541 364 571.5 319Q602 274 602 204Q602 110 546.5 55Q491 0 394 0H63V750H384Q479 750 533 696.5Q587 643 587 551ZM203 315V130H371Q415 130 438.5 153.5Q462 177 462 222Q462 267 438.5 291Q415 315 371 315ZM203 620V445H361Q403 445 425 467.5Q447 490 447 533Q447 575 425 597.5Q403 620 361 620ZM244 977H373V823H244Z" glyph-name="Bdotaccent" horiz-adv-x="635" unicode="&#7682;" /><glyph d="M48 375Q48 562 130 660.5Q212 759 369 759Q473 759 545 707L515 584Q480 608 449.5 618.5Q419 629 381 629Q280 629 234 568Q188 507 188 375Q188 243 234 182.5Q280 122 381 122Q419 122 449.5 132Q480 142 515 166L545 44Q474 -9 369 -9Q212 -9 130 89.5Q48 188 48 375Z" glyph-name="C" horiz-adv-x="583" unicode="C" /><glyph d="M48 375Q48 562 130 660.5Q212 759 369 759Q473 759 545 707L515 584Q480 608 449.5 618.5Q419 629 381 629Q280 629 234 568Q188 507 188 375Q188 243 234 182.5Q280 122 381 122Q419 122 449.5 132Q480 142 515 166L545 44Q474 -9 369 -9Q212 -9 130 89.5Q48 188 48 375ZM289 814 377 986H519L413 814Z" glyph-name="Cacute" horiz-adv-x="583" unicode="&#262;" /><glyph d="M48 375Q48 562 130 660.5Q212 759 369 759Q473 759 545 707L515 584Q480 608 449.5 618.5Q419 629 381 629Q280 629 234 568Q188 507 188 375Q188 243 234 182.5Q280 122 381 122Q419 122 449.5 132Q480 142 515 166L545 44Q474 -9 369 -9Q212 -9 130 89.5Q48 188 48 375ZM165 986H276L354 896L432 986H543L404 814H304Z" glyph-name="Ccaron" horiz-adv-x="583" unicode="&#268;" /><glyph d="M48 375Q48 562 130 660.5Q212 759 369 759Q473 759 545 707L515 584Q480 608 449.5 618.5Q419 629 381 629Q280 629 234 568Q188 507 188 375Q188 243 234 182.5Q280 122 381 122Q419 122 449.5 132Q480 142 515 166L545 44Q474 -9 369 -9Q212 -9 130 89.5Q48 188 48 375ZM392 0 383 -36Q456 -61 456 -127Q456 -166 429 -189.5Q402 -213 355 -213Q322 -213 295 -202.5Q268 -192 253 -173L285 -126Q315 -150 350 -150Q386 -150 386 -122Q386 -105 372.5 -94Q359 -83 327 -76L303 -72L322 0Z" glyph-name="Ccedilla" horiz-adv-x="583" unicode="&#199;" /><glyph d="M48 375Q48 562 130 660.5Q212 759 369 759Q473 759 545 707L515 584Q480 608 449.5 618.5Q419 629 381 629Q280 629 234 568Q188 507 188 375Q188 243 234 182.5Q280 122 381 122Q419 122 449.5 132Q480 142 515 166L545 44Q474 -9 369 -9Q212 -9 130 89.5Q48 188 48 375ZM543 814H432L354 905L276 814H165L304 986H404Z" glyph-name="Ccircumflex" horiz-adv-x="583" unicode="&#264;" /><glyph d="M48 375Q48 562 130 660.5Q212 759 369 759Q473 759 545 707L515 584Q480 608 449.5 618.5Q419 629 381 629Q280 629 234 568Q188 507 188 375Q188 243 234 182.5Q280 122 381 122Q419 122 449.5 132Q480 142 515 166L545 44Q474 -9 369 -9Q212 -9 130 89.5Q48 188 48 375ZM290 977H419V823H290Z" glyph-name="Cdotaccent" horiz-adv-x="583" unicode="&#266;" /><glyph d="M614 375Q614 192 544 96Q474 0 340 0H63V750H340Q474 750 544 654Q614 558 614 375ZM203 620V130H318Q396 130 435 192Q474 254 474 375Q474 496 435 558Q396 620 318 620Z" glyph-name="D" horiz-adv-x="662" unicode="D" /><glyph d="M614 375Q614 192 544 96Q474 0 340 0H63V750H340Q474 750 544 654Q614 558 614 375ZM203 620V130H318Q396 130 435 192Q474 254 474 375Q474 496 435 558Q396 620 318 620ZM112 986H223L301 896L379 986H490L351 814H251Z" glyph-name="Dcaron" horiz-adv-x="662" unicode="&#270;" /><glyph d="M667 375Q667 192 596.5 96Q526 0 392 0H116V322H23V438H116V750H392Q526 750 596.5 654Q667 558 667 375ZM429 322H256V130H370Q448 130 487.5 192Q527 254 527 375Q527 496 487.5 558Q448 620 370 620H256V438H429Z" glyph-name="Dcroat" horiz-adv-x="715" unicode="&#272;" /><glyph d="M614 375Q614 192 544 96Q474 0 340 0H63V750H340Q474 750 544 654Q614 558 614 375ZM203 620V130H318Q396 130 435 192Q474 254 474 375Q474 496 435 558Q396 620 318 620ZM237 977H366V823H237Z" glyph-name="Ddotaccent" horiz-adv-x="662" unicode="&#7690;" /><glyph d="M513 0H63V750H513V620H203V445H463V315H203V130H513Z" glyph-name="E" horiz-adv-x="556" unicode="E" /><glyph d="M513 0H63V750H513V620H203V445H463V315H203V130H513ZM239 814 327 986H469L363 814Z" glyph-name="Eacute" horiz-adv-x="556" unicode="&#201;" /><glyph d="M513 0H63V750H513V620H203V445H463V315H203V130H513ZM304 892Q342 892 364.5 916Q387 940 389 986H484Q481 900 432.5 850.5Q384 801 304 801Q224 801 175.5 850.5Q127 900 124 986H219Q221 940 243.5 916Q266 892 304 892Z" glyph-name="Ebreve" horiz-adv-x="556" unicode="&#276;" /><glyph d="M513 0H63V750H513V620H203V445H463V315H203V130H513ZM115 986H226L304 896L382 986H493L354 814H254Z" glyph-name="Ecaron" horiz-adv-x="556" unicode="&#282;" /><glyph d="M513 0H63V750H513V620H203V445H463V315H203V130H513ZM493 814H382L304 905L226 814H115L254 986H354Z" glyph-name="Ecircumflex" horiz-adv-x="556" unicode="&#202;" /><glyph d="M513 0H63V750H513V620H203V445H463V315H203V130H513ZM138 977H267V823H138ZM341 977H470V823H341Z" glyph-name="Edieresis" horiz-adv-x="556" unicode="&#203;" /><glyph d="M513 0H63V750H513V620H203V445H463V315H203V130H513ZM240 977H369V823H240Z" glyph-name="Edotaccent" horiz-adv-x="556" unicode="&#278;" /><glyph d="M513 0H63V750H513V620H203V445H463V315H203V130H513ZM139 986H281L369 814H245Z" glyph-name="Egrave" horiz-adv-x="556" unicode="&#200;" /><glyph d="M513 0H63V750H513V620H203V445H463V315H203V130H513ZM433 845H175V955H433Z" glyph-name="Emacron" horiz-adv-x="556" unicode="&#274;" /><glyph d="M632 -33Q632 -84 615 -114Q598 -144 560 -166L479 -213L417 -102L467 -72Q485 -61 493 -45.5Q501 -30 501 -4V0H476L194 508V0H63V750H219L501 241V750H632Z" glyph-name="Eng" horiz-adv-x="695" unicode="&#330;" /><glyph d="M513 0H63V750H513V620H203V445H463V315H203V130H513ZM470 -213Q412 -213 378 -183.5Q344 -154 344 -104Q344 -56 376.5 -17Q409 22 475 48L513 0Q474 -12 450.5 -36Q427 -60 427 -89Q427 -110 440.5 -122.5Q454 -135 479 -135Q511 -135 537 -112L575 -172Q537 -213 470 -213Z" glyph-name="Eogonek" horiz-adv-x="556" unicode="&#280;" /><glyph d="M667 375Q667 192 596.5 96Q526 0 392 0H116V322H23V438H116V750H392Q526 750 596.5 654Q667 558 667 375ZM429 322H256V130H370Q448 130 487.5 192Q527 254 527 375Q527 496 487.5 558Q448 620 370 620H256V438H429Z" glyph-name="Eth" horiz-adv-x="715" unicode="&#208;" /><glyph d="M27 520H105Q132 635 203 697Q274 759 385 759Q429 759 466 747.5Q503 736 525 719L496 603Q454 632 397 632Q284 632 245 520H456L427 406H225V344H417L389 230H245Q284 118 397 118Q454 118 496 147L525 31Q503 14 466 2.5Q429 -9 385 -9Q274 -9 203 53Q132 115 105 230H27V344H90V406H27Z" glyph-name="Euro" horiz-adv-x="550" unicode="&#8364;" /><glyph d="M513 620H203V445H463V315H203V0H63V750H513Z" glyph-name="F" horiz-adv-x="546" unicode="F" /><glyph d="M513 620H203V445H463V315H203V0H63V750H513ZM240 977H369V823H240Z" glyph-name="Fdotaccent" horiz-adv-x="546" unicode="&#7710;" /><glyph d="M188 375Q188 245 235 183.5Q282 122 361 122Q393 122 419.5 130.5Q446 139 468 159V258H328V388H599V-3H477V36Q449 13 413.5 2.5Q378 -8 343 -8Q274 -8 219.5 18Q165 44 126.5 93Q88 142 68 213.5Q48 285 48 375Q48 560 138 659Q228 758 396 758Q459 758 508.5 744.5Q558 731 599 702L566 581Q530 604 488 616Q446 628 403 628Q294 628 241 568.5Q188 509 188 375Z" glyph-name="G" horiz-adv-x="657" unicode="G" /><glyph d="M188 375Q188 245 235 183.5Q282 122 361 122Q393 122 419.5 130.5Q446 139 468 159V258H328V388H599V-3H477V36Q449 13 413.5 2.5Q378 -8 343 -8Q274 -8 219.5 18Q165 44 126.5 93Q88 142 68 213.5Q48 285 48 375Q48 560 138 659Q228 758 396 758Q459 758 508.5 744.5Q558 731 599 702L566 581Q530 604 488 616Q446 628 403 628Q294 628 241 568.5Q188 509 188 375ZM358 892Q396 892 418.5 916Q441 940 443 986H538Q535 900 486.5 850.5Q438 801 358 801Q278 801 229.5 850.5Q181 900 178 986H273Q275 940 297.5 916Q320 892 358 892Z" glyph-name="Gbreve" horiz-adv-x="657" unicode="&#286;" /><glyph d="M188 375Q188 245 235 183.5Q282 122 361 122Q393 122 419.5 130.5Q446 139 468 159V258H328V388H599V-3H477V36Q449 13 413.5 2.5Q378 -8 343 -8Q274 -8 219.5 18Q165 44 126.5 93Q88 142 68 213.5Q48 285 48 375Q48 560 138 659Q228 758 396 758Q459 758 508.5 744.5Q558 731 599 702L566 581Q530 604 488 616Q446 628 403 628Q294 628 241 568.5Q188 509 188 375ZM547 814H436L358 905L280 814H169L308 986H408Z" glyph-name="Gcircumflex" horiz-adv-x="657" unicode="&#284;" /><glyph d="M188 375Q188 245 235 183.5Q282 122 361 122Q393 122 419.5 130.5Q446 139 468 159V258H328V388H599V-3H477V36Q449 13 413.5 2.5Q378 -8 343 -8Q274 -8 219.5 18Q165 44 126.5 93Q88 142 68 213.5Q48 285 48 375Q48 560 138 659Q228 758 396 758Q459 758 508.5 744.5Q558 731 599 702L566 581Q530 604 488 616Q446 628 403 628Q294 628 241 568.5Q188 509 188 375ZM269 -39H400V-83Q400 -103 396 -120.5Q392 -138 388 -154L372 -213L248 -198L265 -132Q267 -124 268 -114Q269 -104 269 -94Z" glyph-name="Gcommaaccent" horiz-adv-x="657" unicode="&#290;" /><glyph d="M188 375Q188 245 235 183.5Q282 122 361 122Q393 122 419.5 130.5Q446 139 468 159V258H328V388H599V-3H477V36Q449 13 413.5 2.5Q378 -8 343 -8Q274 -8 219.5 18Q165 44 126.5 93Q88 142 68 213.5Q48 285 48 375Q48 560 138 659Q228 758 396 758Q459 758 508.5 744.5Q558 731 599 702L566 581Q530 604 488 616Q446 628 403 628Q294 628 241 568.5Q188 509 188 375ZM294 977H423V823H294Z" glyph-name="Gdotaccent" horiz-adv-x="657" unicode="&#288;" /><glyph d="M619 750V0H479V315H203V0H63V750H203V445H479V750Z" glyph-name="H" horiz-adv-x="682" unicode="H" /><glyph d="M659 539H619V0H479V315H203V0H63V539H23V652H63V750H203V652H479V750H619V652H659ZM203 445H479V539H203Z" glyph-name="Hbar" horiz-adv-x="682" unicode="&#294;" /><glyph d="M619 750V0H479V315H203V0H63V750H203V445H479V750ZM530 814H419L341 905L263 814H152L291 986H391Z" glyph-name="Hcircumflex" horiz-adv-x="682" unicode="&#292;" /><glyph d="M213 750V0H73V750Z" glyph-name="I" horiz-adv-x="286" unicode="I" /><glyph d="M213 750V0H73V750ZM524 191Q524 137 504.5 101.5Q485 66 439 39L349 -14L281 104L346 143Q367 156 375.5 173Q384 190 384 219V750H524Z" glyph-name="IJ" horiz-adv-x="591" unicode="&#306;" /><glyph d="M213 750V0H73V750ZM78 814 166 986H308L202 814Z" glyph-name="Iacute" horiz-adv-x="286" unicode="&#205;" /><glyph d="M213 750V0H73V750ZM143 892Q181 892 203.5 916Q226 940 228 986H323Q320 900 271.5 850.5Q223 801 143 801Q63 801 14.5 850.5Q-34 900 -37 986H58Q60 940 82.5 916Q105 892 143 892Z" glyph-name="Ibreve" horiz-adv-x="286" unicode="&#300;" /><glyph d="M213 750V0H73V750ZM332 814H221L143 905L65 814H-46L93 986H193Z" glyph-name="Icircumflex" horiz-adv-x="286" unicode="&#206;" /><glyph d="M213 750V0H73V750ZM-23 977H106V823H-23ZM180 977H309V823H180Z" glyph-name="Idieresis" horiz-adv-x="286" unicode="&#207;" /><glyph d="M213 750V0H73V750ZM79 977H208V823H79Z" glyph-name="Idotaccent" horiz-adv-x="286" unicode="&#304;" /><glyph d="M213 750V0H73V750ZM-22 986H120L208 814H84Z" glyph-name="Igrave" horiz-adv-x="286" unicode="&#204;" /><glyph d="M213 750V0H73V750ZM272 845H14V955H272Z" glyph-name="Imacron" horiz-adv-x="286" unicode="&#298;" /><glyph d="M213 750V0H73V750ZM170 -213Q112 -213 78 -183.5Q44 -154 44 -104Q44 -56 76.5 -17Q109 22 175 48L213 0Q174 -12 150.5 -36Q127 -60 127 -89Q127 -110 140.5 -122.5Q154 -135 179 -135Q211 -135 237 -112L275 -172Q237 -213 170 -213Z" glyph-name="Iogonek" horiz-adv-x="286" unicode="&#302;" /><glyph d="M213 750V0H73V750ZM326 963V942Q326 887 299 858Q272 829 223 829Q200 829 178 836.5Q156 844 130 858Q108 871 96.5 876.5Q85 882 74 882Q49 882 49 855V847H-40V857Q-40 911 -13 941Q14 971 63 971Q86 971 108 963Q130 955 156 941Q178 927 189.5 922Q201 917 212 917Q237 917 237 944V963Z" glyph-name="Itilde" horiz-adv-x="286" unicode="&#296;" /><glyph d="M262 191Q262 137 242.5 101.5Q223 66 177 39L87 -14L19 104L84 143Q105 156 113.5 173Q122 190 122 219V750H262Z" glyph-name="J" horiz-adv-x="330" unicode="J" /><glyph d="M262 191Q262 137 242.5 101.5Q223 66 177 39L87 -14L19 104L84 143Q105 156 113.5 173Q122 190 122 219V750H262ZM381 814H270L192 905L114 814H3L142 986H242Z" glyph-name="Jcircumflex" horiz-adv-x="330" unicode="&#308;" /><glyph d="M203 750V421L414 750H575L360 438L611 0H450L279 320L203 209V0H63V750Z" glyph-name="K" horiz-adv-x="616" unicode="K" /><glyph d="M203 750V421L414 750H575L360 438L611 0H450L279 320L203 209V0H63V750ZM250 -39H381V-83Q381 -103 377 -120.5Q373 -138 369 -154L353 -213L229 -198L246 -132Q248 -124 249 -114Q250 -104 250 -94Z" glyph-name="Kcommaaccent" horiz-adv-x="616" unicode="&#310;" /><glyph d="M513 0H63V750H203V130H513Z" glyph-name="L" horiz-adv-x="536" unicode="L" /><glyph d="M513 0H63V750H203V130H513ZM68 814 156 986H298L192 814Z" glyph-name="Lacute" horiz-adv-x="536" unicode="&#313;" /><glyph d="M513 0H63V750H203V130H513ZM332 566 341 750H424L409 566Z" glyph-name="Lcaron" horiz-adv-x="536" unicode="&#317;" /><glyph d="M513 0H63V750H203V130H513ZM228 -39H359V-83Q359 -103 355 -120.5Q351 -138 347 -154L331 -213L207 -198L224 -132Q226 -124 227 -114Q228 -104 228 -94Z" glyph-name="Lcommaaccent" horiz-adv-x="536" unicode="&#315;" /><glyph d="M513 0H63V750H203V130H513ZM466 450V301H335V450Z" glyph-name="Ldot" horiz-adv-x="536" unicode="&#319;" /><glyph d="M256 750V424L423 530V401L256 295V130H566V0H116V207L23 148V277L116 336V750Z" glyph-name="Lslash" horiz-adv-x="589" unicode="&#321;" /><glyph d="M615 0V545L482 0H326L194 541V0H63V750H284L408 218L533 750H755V0Z" glyph-name="M" horiz-adv-x="818" unicode="M" /><glyph d="M615 0V545L482 0H326L194 541V0H63V750H284L408 218L533 750H755V0ZM345 977H474V823H345Z" glyph-name="Mdotaccent" horiz-adv-x="818" unicode="&#7744;" /><glyph d="M632 0H476L194 508V0H63V750H219L501 241V750H632Z" glyph-name="N" horiz-adv-x="695" unicode="N" /><glyph d="M632 0H476L194 508V0H63V750H219L501 241V750H632ZM283 814 371 986H513L407 814Z" glyph-name="Nacute" horiz-adv-x="695" unicode="&#323;" /><glyph d="M632 0H476L194 508V0H63V750H219L501 241V750H632ZM159 986H270L348 896L426 986H537L398 814H298Z" glyph-name="Ncaron" horiz-adv-x="695" unicode="&#327;" /><glyph d="M632 0H476L194 508V0H63V750H219L501 241V750H632ZM282 -39H413V-83Q413 -103 409 -120.5Q405 -138 401 -154L385 -213L261 -198L278 -132Q280 -124 281 -114Q282 -104 282 -94Z" glyph-name="Ncommaaccent" horiz-adv-x="695" unicode="&#325;" /><glyph d="M632 0H476L194 508V0H63V750H219L501 241V750H632ZM531 963V942Q531 887 504 858Q477 829 428 829Q405 829 383 836.5Q361 844 335 858Q313 871 301.5 876.5Q290 882 279 882Q254 882 254 855V847H165V857Q165 911 192 941Q219 971 268 971Q291 971 313 963Q335 955 361 941Q383 927 394.5 922Q406 917 417 917Q442 917 442 944V963Z" glyph-name="Ntilde" horiz-adv-x="695" unicode="&#209;" /><glyph d="M48 375Q48 564 122 661.5Q196 759 341 759Q486 759 560 661.5Q634 564 634 375Q634 186 560 88.5Q486 -9 341 -9Q196 -9 122 88.5Q48 186 48 375ZM188 375Q188 122 341 122Q494 122 494 375Q494 629 341 629Q188 629 188 375Z" glyph-name="O" horiz-adv-x="682" unicode="O" /><glyph d="M873 0H323Q189 0 118.5 96Q48 192 48 375Q48 558 118.5 654Q189 750 323 750H873V620H570V445H823V315H570V130H873ZM188 375Q188 254 227 192Q266 130 344 130H430V620H344Q266 620 227 558Q188 496 188 375Z" glyph-name="OE" horiz-adv-x="916" unicode="&#338;" /><glyph d="M48 375Q48 564 122 661.5Q196 759 341 759Q486 759 560 661.5Q634 564 634 375Q634 186 560 88.5Q486 -9 341 -9Q196 -9 122 88.5Q48 186 48 375ZM188 375Q188 122 341 122Q494 122 494 375Q494 629 341 629Q188 629 188 375ZM276 814 364 986H506L400 814Z" glyph-name="Oacute" horiz-adv-x="682" unicode="&#211;" /><glyph d="M48 375Q48 564 122 661.5Q196 759 341 759Q486 759 560 661.5Q634 564 634 375Q634 186 560 88.5Q486 -9 341 -9Q196 -9 122 88.5Q48 186 48 375ZM188 375Q188 122 341 122Q494 122 494 375Q494 629 341 629Q188 629 188 375ZM341 892Q379 892 401.5 916Q424 940 426 986H521Q518 900 469.5 850.5Q421 801 341 801Q261 801 212.5 850.5Q164 900 161 986H256Q258 940 280.5 916Q303 892 341 892Z" glyph-name="Obreve" horiz-adv-x="682" unicode="&#334;" /><glyph d="M48 375Q48 564 122 661.5Q196 759 341 759Q486 759 560 661.5Q634 564 634 375Q634 186 560 88.5Q486 -9 341 -9Q196 -9 122 88.5Q48 186 48 375ZM188 375Q188 122 341 122Q494 122 494 375Q494 629 341 629Q188 629 188 375ZM530 814H419L341 905L263 814H152L291 986H391Z" glyph-name="Ocircumflex" horiz-adv-x="682" unicode="&#212;" /><glyph d="M48 375Q48 564 122 661.5Q196 759 341 759Q486 759 560 661.5Q634 564 634 375Q634 186 560 88.5Q486 -9 341 -9Q196 -9 122 88.5Q48 186 48 375ZM188 375Q188 122 341 122Q494 122 494 375Q494 629 341 629Q188 629 188 375ZM175 977H304V823H175ZM378 977H507V823H378Z" glyph-name="Odieresis" horiz-adv-x="682" unicode="&#214;" /><glyph d="M48 375Q48 564 122 661.5Q196 759 341 759Q486 759 560 661.5Q634 564 634 375Q634 186 560 88.5Q486 -9 341 -9Q196 -9 122 88.5Q48 186 48 375ZM188 375Q188 122 341 122Q494 122 494 375Q494 629 341 629Q188 629 188 375ZM176 986H318L406 814H282Z" glyph-name="Ograve" horiz-adv-x="682" unicode="&#210;" /><glyph d="M48 375Q48 564 122 661.5Q196 759 341 759Q486 759 560 661.5Q634 564 634 375Q634 186 560 88.5Q486 -9 341 -9Q196 -9 122 88.5Q48 186 48 375ZM188 375Q188 122 341 122Q494 122 494 375Q494 629 341 629Q188 629 188 375ZM200 814 276 986H401L313 814ZM367 814 443 986H568L479 814Z" glyph-name="Ohungarumlaut" horiz-adv-x="682" unicode="&#336;" /><glyph d="M48 375Q48 564 122 661.5Q196 759 341 759Q486 759 560 661.5Q634 564 634 375Q634 186 560 88.5Q486 -9 341 -9Q196 -9 122 88.5Q48 186 48 375ZM188 375Q188 122 341 122Q494 122 494 375Q494 629 341 629Q188 629 188 375ZM470 845H212V955H470Z" glyph-name="Omacron" horiz-adv-x="682" unicode="&#332;" /><glyph d="M103 118Q48 212 48 375Q48 564 122 661.5Q196 759 341 759Q452 759 522 700L565 759L636 712L578 632Q634 537 634 375Q634 186 560 88.5Q486 -9 341 -9Q230 -9 159 50L117 -9L46 40ZM188 375Q188 304 200 253L440 586Q404 629 341 629Q188 629 188 375ZM494 375Q494 446 482 497L242 164Q278 122 341 122Q494 122 494 375Z" glyph-name="Oslash" horiz-adv-x="682" unicode="&#216;" /><glyph d="M48 375Q48 564 122 661.5Q196 759 341 759Q486 759 560 661.5Q634 564 634 375Q634 186 560 88.5Q486 -9 341 -9Q196 -9 122 88.5Q48 186 48 375ZM188 375Q188 122 341 122Q494 122 494 375Q494 629 341 629Q188 629 188 375ZM524 963V942Q524 887 497 858Q470 829 421 829Q398 829 376 836.5Q354 844 328 858Q306 871 294.5 876.5Q283 882 272 882Q247 882 247 855V847H158V857Q158 911 185 941Q212 971 261 971Q284 971 306 963Q328 955 354 941Q376 927 387.5 922Q399 917 410 917Q435 917 435 944V963Z" glyph-name="Otilde" horiz-adv-x="682" unicode="&#213;" /><glyph d="M336 750Q387 750 428 733Q469 716 498.5 684.5Q528 653 543.5 608.5Q559 564 559 509Q559 454 543.5 409.5Q528 365 498.5 333.5Q469 302 428 285Q387 268 336 268H203V0H63V750ZM203 620V398H318Q366 398 392 426.5Q418 455 418 509Q418 563 392 591.5Q366 620 318 620Z" glyph-name="P" horiz-adv-x="592" unicode="P" /><glyph d="M336 750Q387 750 428 733Q469 716 498.5 684.5Q528 653 543.5 608.5Q559 564 559 509Q559 454 543.5 409.5Q528 365 498.5 333.5Q469 302 428 285Q387 268 336 268H203V0H63V750ZM203 620V398H318Q366 398 392 426.5Q418 455 418 509Q418 563 392 591.5Q366 620 318 620ZM224 977H353V823H224Z" glyph-name="Pdotaccent" horiz-adv-x="592" unicode="&#7766;" /><glyph d="M48 375Q48 564 122 661.5Q196 759 341 759Q486 759 560 661.5Q634 564 634 375Q634 141 519 47L596 -85L500 -142L418 -1Q380 -9 341 -9Q196 -9 122 88.5Q48 186 48 375ZM370 305 447 172Q494 236 494 375Q494 629 341 629Q188 629 188 375Q188 122 341 122H346L273 248Z" glyph-name="Q" horiz-adv-x="682" unicode="Q" /><glyph d="M559 509Q559 425 524.5 367.5Q490 310 428 285L607 0H442L291 268H203V0H63V750H336Q387 750 428 733Q469 716 498.5 684.5Q528 653 543.5 608.5Q559 564 559 509ZM203 620V398H318Q366 398 392 426.5Q418 455 418 509Q418 563 392 591.5Q366 620 318 620Z" glyph-name="R" horiz-adv-x="612" unicode="R" /><glyph d="M559 509Q559 425 524.5 367.5Q490 310 428 285L607 0H442L291 268H203V0H63V750H336Q387 750 428 733Q469 716 498.5 684.5Q528 653 543.5 608.5Q559 564 559 509ZM203 620V398H318Q366 398 392 426.5Q418 455 418 509Q418 563 392 591.5Q366 620 318 620ZM223 814 311 986H453L347 814Z" glyph-name="Racute" horiz-adv-x="612" unicode="&#340;" /><glyph d="M559 509Q559 425 524.5 367.5Q490 310 428 285L607 0H442L291 268H203V0H63V750H336Q387 750 428 733Q469 716 498.5 684.5Q528 653 543.5 608.5Q559 564 559 509ZM203 620V398H318Q366 398 392 426.5Q418 455 418 509Q418 563 392 591.5Q366 620 318 620ZM99 986H210L288 896L366 986H477L338 814H238Z" glyph-name="Rcaron" horiz-adv-x="612" unicode="&#344;" /><glyph d="M559 509Q559 425 524.5 367.5Q490 310 428 285L607 0H442L291 268H203V0H63V750H336Q387 750 428 733Q469 716 498.5 684.5Q528 653 543.5 608.5Q559 564 559 509ZM203 620V398H318Q366 398 392 426.5Q418 455 418 509Q418 563 392 591.5Q366 620 318 620ZM247 -39H378V-83Q378 -103 374 -120.5Q370 -138 366 -154L350 -213L226 -198L243 -132Q245 -124 246 -114Q247 -104 247 -94Z" glyph-name="Rcommaaccent" horiz-adv-x="612" unicode="&#342;" /><glyph d="M287 -9Q208 -9 143.5 7.5Q79 24 28 56L58 184Q165 122 281 122Q354 122 388.5 144.5Q423 167 423 215Q423 261 393.5 280.5Q364 300 318 311L228 336Q127 362 82.5 410.5Q38 459 38 543Q38 593 56.5 633Q75 673 109.5 701Q144 729 194 744Q244 759 306 759Q380 759 437.5 745.5Q495 732 543 704L513 576Q471 602 424 615.5Q377 629 316 629Q178 629 178 547Q178 515 200 497Q222 479 280 464L368 441Q469 415 516 362.5Q563 310 563 222Q563 111 491.5 51Q420 -9 287 -9Z" glyph-name="S" horiz-adv-x="591" unicode="S" /><glyph d="M287 -9Q208 -9 143.5 7.5Q79 24 28 56L58 184Q165 122 281 122Q354 122 388.5 144.5Q423 167 423 215Q423 261 393.5 280.5Q364 300 318 311L228 336Q127 362 82.5 410.5Q38 459 38 543Q38 593 56.5 633Q75 673 109.5 701Q144 729 194 744Q244 759 306 759Q380 759 437.5 745.5Q495 732 543 704L513 576Q471 602 424 615.5Q377 629 316 629Q178 629 178 547Q178 515 200 497Q222 479 280 464L368 441Q469 415 516 362.5Q563 310 563 222Q563 111 491.5 51Q420 -9 287 -9ZM878 -9Q799 -9 734.5 7.5Q670 24 619 56L649 184Q756 122 872 122Q945 122 979.5 144.5Q1014 167 1014 215Q1014 261 984.5 280.5Q955 300 909 311L819 336Q718 362 673.5 410.5Q629 459 629 543Q629 593 647.5 633Q666 673 700.5 701Q735 729 785 744Q835 759 897 759Q971 759 1028.5 745.5Q1086 732 1134 704L1104 576Q1062 602 1015 615.5Q968 629 907 629Q769 629 769 547Q769 515 791 497Q813 479 871 464L959 441Q1060 415 1107 362.5Q1154 310 1154 222Q1154 111 1082.5 51Q1011 -9 878 -9Z" glyph-name="S_S" horiz-adv-x="1182" /><glyph d="M287 -9Q208 -9 143.5 7.5Q79 24 28 56L58 184Q165 122 281 122Q354 122 388.5 144.5Q423 167 423 215Q423 261 393.5 280.5Q364 300 318 311L228 336Q127 362 82.5 410.5Q38 459 38 543Q38 593 56.5 633Q75 673 109.5 701Q144 729 194 744Q244 759 306 759Q380 759 437.5 745.5Q495 732 543 704L513 576Q471 602 424 615.5Q377 629 316 629Q178 629 178 547Q178 515 200 497Q222 479 280 464L368 441Q469 415 516 362.5Q563 310 563 222Q563 111 491.5 51Q420 -9 287 -9ZM241 814 329 986H471L365 814Z" glyph-name="Sacute" horiz-adv-x="591" unicode="&#346;" /><glyph d="M287 -9Q208 -9 143.5 7.5Q79 24 28 56L58 184Q165 122 281 122Q354 122 388.5 144.5Q423 167 423 215Q423 261 393.5 280.5Q364 300 318 311L228 336Q127 362 82.5 410.5Q38 459 38 543Q38 593 56.5 633Q75 673 109.5 701Q144 729 194 744Q244 759 306 759Q380 759 437.5 745.5Q495 732 543 704L513 576Q471 602 424 615.5Q377 629 316 629Q178 629 178 547Q178 515 200 497Q222 479 280 464L368 441Q469 415 516 362.5Q563 310 563 222Q563 111 491.5 51Q420 -9 287 -9ZM117 986H228L306 896L384 986H495L356 814H256Z" glyph-name="Scaron" horiz-adv-x="591" unicode="&#352;" /><glyph d="M287 -9Q208 -9 143.5 7.5Q79 24 28 56L58 184Q165 122 281 122Q354 122 388.5 144.5Q423 167 423 215Q423 261 393.5 280.5Q364 300 318 311L228 336Q127 362 82.5 410.5Q38 459 38 543Q38 593 56.5 633Q75 673 109.5 701Q144 729 194 744Q244 759 306 759Q380 759 437.5 745.5Q495 732 543 704L513 576Q471 602 424 615.5Q377 629 316 629Q178 629 178 547Q178 515 200 497Q222 479 280 464L368 441Q469 415 516 362.5Q563 310 563 222Q563 111 491.5 51Q420 -9 287 -9ZM325 0 316 -36Q389 -61 389 -127Q389 -166 362 -189.5Q335 -213 288 -213Q255 -213 228 -202.5Q201 -192 186 -173L218 -126Q248 -150 283 -150Q319 -150 319 -122Q319 -105 305.5 -94Q292 -83 260 -76L236 -72L255 0Z" glyph-name="Scedilla" horiz-adv-x="591" unicode="&#350;" /><glyph d="M297 759Q471 759 552.5 660Q634 561 634 375Q634 192 560.5 91.5Q487 -9 341 -9Q193 -9 120.5 91.5Q48 192 48 375V436H490Q479 533 432 581Q385 629 291 629Q260 629 232.5 623Q205 617 182.5 607.5Q160 598 142 587Q124 576 112 566L56 679Q98 714 160 736.5Q222 759 297 759ZM341 122Q408 122 445 168.5Q482 215 490 313H190Q206 122 341 122Z" glyph-name="Schwa" horiz-adv-x="682" unicode="&#399;" /><glyph d="M287 -9Q208 -9 143.5 7.5Q79 24 28 56L58 184Q165 122 281 122Q354 122 388.5 144.5Q423 167 423 215Q423 261 393.5 280.5Q364 300 318 311L228 336Q127 362 82.5 410.5Q38 459 38 543Q38 593 56.5 633Q75 673 109.5 701Q144 729 194 744Q244 759 306 759Q380 759 437.5 745.5Q495 732 543 704L513 576Q471 602 424 615.5Q377 629 316 629Q178 629 178 547Q178 515 200 497Q222 479 280 464L368 441Q469 415 516 362.5Q563 310 563 222Q563 111 491.5 51Q420 -9 287 -9ZM495 814H384L306 905L228 814H117L256 986H356Z" glyph-name="Scircumflex" horiz-adv-x="591" unicode="&#348;" /><glyph d="M287 -9Q208 -9 143.5 7.5Q79 24 28 56L58 184Q165 122 281 122Q354 122 388.5 144.5Q423 167 423 215Q423 261 393.5 280.5Q364 300 318 311L228 336Q127 362 82.5 410.5Q38 459 38 543Q38 593 56.5 633Q75 673 109.5 701Q144 729 194 744Q244 759 306 759Q380 759 437.5 745.5Q495 732 543 704L513 576Q471 602 424 615.5Q377 629 316 629Q178 629 178 547Q178 515 200 497Q222 479 280 464L368 441Q469 415 516 362.5Q563 310 563 222Q563 111 491.5 51Q420 -9 287 -9ZM221 -39H352V-83Q352 -103 348 -120.5Q344 -138 340 -154L324 -213L200 -198L217 -132Q219 -124 220 -114Q221 -104 221 -94Z" glyph-name="Scommaaccent" horiz-adv-x="591" unicode="&#536;" /><glyph d="M505 620H334V0H194V620H23V750H505Z" glyph-name="T" horiz-adv-x="528" unicode="T" /><glyph d="M446 322H334V0H194V322H82V438H194V620H23V750H505V620H334V438H446Z" glyph-name="Tbar" horiz-adv-x="528" unicode="&#358;" /><glyph d="M505 620H334V0H194V620H23V750H505ZM75 986H186L264 896L342 986H453L314 814H214Z" glyph-name="Tcaron" horiz-adv-x="528" unicode="&#356;" /><glyph d="M505 620H334V0H194V620H23V750H505ZM264 -213Q232 -213 204.5 -202.5Q177 -192 162 -173L194 -126Q224 -150 259 -150Q295 -150 295 -122Q295 -105 281.5 -94Q268 -83 236 -77L223 -75L235 -25L248 -27Q303 -36 334.5 -61.5Q366 -87 366 -127Q366 -166 338.5 -189.5Q311 -213 264 -213Z" glyph-name="Tcedilla" horiz-adv-x="528" unicode="&#354;" /><glyph d="M505 620H334V0H194V620H23V750H505ZM198 -39H329V-83Q329 -103 325 -120.5Q321 -138 317 -154L301 -213L177 -198L194 -132Q196 -124 197 -114Q198 -104 198 -94Z" glyph-name="Tcommaaccent" horiz-adv-x="528" unicode="&#538;" /><glyph d="M505 620H334V0H194V620H23V750H505ZM200 977H329V823H200Z" glyph-name="Tdotaccent" horiz-adv-x="528" unicode="&#7786;" /><glyph d="M559 375Q559 320 543.5 275.5Q528 231 498.5 199.5Q469 168 428 151Q387 134 336 134H203V0H63V750H203V616H336Q387 616 428 599Q469 582 498.5 550.5Q528 519 543.5 474.5Q559 430 559 375ZM203 486V264H318Q366 264 392 292.5Q418 321 418 375Q418 429 392 457.5Q366 486 318 486Z" glyph-name="Thorn" horiz-adv-x="597" unicode="&#222;" /><glyph d="M317 -9Q196 -9 128.5 51Q61 111 61 219V750H196V232Q196 181 227 151.5Q258 122 314 122Q370 122 401 151.5Q432 181 432 232V750H572V219Q572 111 505 51Q438 -9 317 -9Z" glyph-name="U" horiz-adv-x="633" unicode="U" /><glyph d="M317 -9Q196 -9 128.5 51Q61 111 61 219V750H196V232Q196 181 227 151.5Q258 122 314 122Q370 122 401 151.5Q432 181 432 232V750H572V219Q572 111 505 51Q438 -9 317 -9ZM252 814 340 986H482L376 814Z" glyph-name="Uacute" horiz-adv-x="633" unicode="&#218;" /><glyph d="M317 -9Q196 -9 128.5 51Q61 111 61 219V750H196V232Q196 181 227 151.5Q258 122 314 122Q370 122 401 151.5Q432 181 432 232V750H572V219Q572 111 505 51Q438 -9 317 -9ZM317 892Q355 892 377.5 916Q400 940 402 986H497Q494 900 445.5 850.5Q397 801 317 801Q237 801 188.5 850.5Q140 900 137 986H232Q234 940 256.5 916Q279 892 317 892Z" glyph-name="Ubreve" horiz-adv-x="633" unicode="&#364;" /><glyph d="M317 -9Q196 -9 128.5 51Q61 111 61 219V750H196V232Q196 181 227 151.5Q258 122 314 122Q370 122 401 151.5Q432 181 432 232V750H572V219Q572 111 505 51Q438 -9 317 -9ZM506 814H395L317 905L239 814H128L267 986H367Z" glyph-name="Ucircumflex" horiz-adv-x="633" unicode="&#219;" /><glyph d="M317 -9Q196 -9 128.5 51Q61 111 61 219V750H196V232Q196 181 227 151.5Q258 122 314 122Q370 122 401 151.5Q432 181 432 232V750H572V219Q572 111 505 51Q438 -9 317 -9ZM151 977H280V823H151ZM354 977H483V823H354Z" glyph-name="Udieresis" horiz-adv-x="633" unicode="&#220;" /><glyph d="M317 -9Q196 -9 128.5 51Q61 111 61 219V750H196V232Q196 181 227 151.5Q258 122 314 122Q370 122 401 151.5Q432 181 432 232V750H572V219Q572 111 505 51Q438 -9 317 -9ZM152 986H294L382 814H258Z" glyph-name="Ugrave" horiz-adv-x="633" unicode="&#217;" /><glyph d="M317 -9Q196 -9 128.5 51Q61 111 61 219V750H196V232Q196 181 227 151.5Q258 122 314 122Q370 122 401 151.5Q432 181 432 232V750H572V219Q572 111 505 51Q438 -9 317 -9ZM176 814 252 986H377L289 814ZM343 814 419 986H544L455 814Z" glyph-name="Uhungarumlaut" horiz-adv-x="633" unicode="&#368;" /><glyph d="M317 -9Q196 -9 128.5 51Q61 111 61 219V750H196V232Q196 181 227 151.5Q258 122 314 122Q370 122 401 151.5Q432 181 432 232V750H572V219Q572 111 505 51Q438 -9 317 -9ZM446 845H188V955H446Z" glyph-name="Umacron" horiz-adv-x="633" unicode="&#362;" /><glyph d="M317 -9Q196 -9 128.5 51Q61 111 61 219V750H196V232Q196 181 227 151.5Q258 122 314 122Q370 122 401 151.5Q432 181 432 232V750H572V219Q572 111 505 51Q438 -9 317 -9ZM354 -213Q296 -213 262 -183.5Q228 -154 228 -104Q228 -56 260.5 -17Q293 22 359 48L397 0Q358 -12 334.5 -36Q311 -60 311 -89Q311 -110 324.5 -122.5Q338 -135 363 -135Q395 -135 421 -112L459 -172Q421 -213 354 -213Z" glyph-name="Uogonek" horiz-adv-x="633" unicode="&#370;" /><glyph d="M317 -9Q196 -9 128.5 51Q61 111 61 219V750H196V232Q196 181 227 151.5Q258 122 314 122Q370 122 401 151.5Q432 181 432 232V750H572V219Q572 111 505 51Q438 -9 317 -9ZM436 911Q436 860 402.5 826Q369 792 317 792Q265 792 231.5 826Q198 860 198 911Q198 963 231.5 997Q265 1031 317 1031Q369 1031 402.5 997Q436 963 436 911ZM261 911Q261 887 276.5 870.5Q292 854 317 854Q342 854 357.5 870.5Q373 887 373 911Q373 937 357.5 953Q342 969 317 969Q292 969 276.5 953Q261 937 261 911Z" glyph-name="Uring" horiz-adv-x="633" unicode="&#366;" /><glyph d="M317 -9Q196 -9 128.5 51Q61 111 61 219V750H196V232Q196 181 227 151.5Q258 122 314 122Q370 122 401 151.5Q432 181 432 232V750H572V219Q572 111 505 51Q438 -9 317 -9ZM500 963V942Q500 887 473 858Q446 829 397 829Q374 829 352 836.5Q330 844 304 858Q282 871 270.5 876.5Q259 882 248 882Q223 882 223 855V847H134V857Q134 911 161 941Q188 971 237 971Q260 971 282 963Q304 955 330 941Q352 927 363.5 922Q375 917 386 917Q411 917 411 944V963Z" glyph-name="Utilde" horiz-adv-x="633" unicode="&#360;" /><glyph d="M1 750H146L343 171L540 750H678L415 0H264Z" glyph-name="V" horiz-adv-x="679" unicode="V" /><glyph d="M191 0 13 750H156L270 234L407 750H567L705 224L822 750H961L783 0H625L482 536L341 0Z" glyph-name="W" horiz-adv-x="974" unicode="W" /><glyph d="M191 0 13 750H156L270 234L407 750H567L705 224L822 750H961L783 0H625L482 536L341 0ZM421 814 509 986H651L545 814Z" glyph-name="Wacute" horiz-adv-x="974" unicode="&#7810;" /><glyph d="M191 0 13 750H156L270 234L407 750H567L705 224L822 750H961L783 0H625L482 536L341 0ZM675 814H564L486 905L408 814H297L436 986H536Z" glyph-name="Wcircumflex" horiz-adv-x="974" unicode="&#372;" /><glyph d="M191 0 13 750H156L270 234L407 750H567L705 224L822 750H961L783 0H625L482 536L341 0ZM320 977H449V823H320ZM523 977H652V823H523Z" glyph-name="Wdieresis" horiz-adv-x="974" unicode="&#7812;" /><glyph d="M191 0 13 750H156L270 234L407 750H567L705 224L822 750H961L783 0H625L482 536L341 0ZM321 986H463L551 814H427Z" glyph-name="Wgrave" horiz-adv-x="974" unicode="&#7808;" /><glyph d="M13 0 226 379 23 750H181L314 486L449 750H603L401 383L613 0H453L312 267L169 0Z" glyph-name="X" horiz-adv-x="626" unicode="X" /><glyph d="M393 0H253V276L6 750H161L325 410L492 750H640L393 276Z" glyph-name="Y" horiz-adv-x="646" unicode="Y" /><glyph d="M393 0H253V276L6 750H161L325 410L492 750H640L393 276ZM258 814 346 986H488L382 814Z" glyph-name="Yacute" horiz-adv-x="646" unicode="&#221;" /><glyph d="M393 0H253V276L6 750H161L325 410L492 750H640L393 276ZM512 814H401L323 905L245 814H134L273 986H373Z" glyph-name="Ycircumflex" horiz-adv-x="646" unicode="&#374;" /><glyph d="M393 0H253V276L6 750H161L325 410L492 750H640L393 276ZM157 977H286V823H157ZM360 977H489V823H360Z" glyph-name="Ydieresis" horiz-adv-x="646" unicode="&#376;" /><glyph d="M393 0H253V276L6 750H161L325 410L492 750H640L393 276ZM158 986H300L388 814H264Z" glyph-name="Ygrave" horiz-adv-x="646" unicode="&#7922;" /><glyph d="M393 0H253V276L6 750H161L325 410L492 750H640L393 276ZM452 845H194V955H452Z" glyph-name="Ymacron" horiz-adv-x="646" unicode="&#562;" /><glyph d="M48 750H525V646L215 134H525V0H33V105L342 616H48Z" glyph-name="Z" horiz-adv-x="558" unicode="Z" /><glyph d="M48 750H525V646L215 134H525V0H33V105L342 616H48ZM214 814 302 986H444L338 814Z" glyph-name="Zacute" horiz-adv-x="558" unicode="&#377;" /><glyph d="M48 750H525V646L215 134H525V0H33V105L342 616H48ZM90 986H201L279 896L357 986H468L329 814H229Z" glyph-name="Zcaron" horiz-adv-x="558" unicode="&#381;" /><glyph d="M48 750H525V646L215 134H525V0H33V105L342 616H48ZM215 977H344V823H215Z" glyph-name="Zdotaccent" horiz-adv-x="558" unicode="&#379;" /><glyph d="M337 0V97Q312 46 269.5 18.5Q227 -9 171 -9Q108 -9 69.5 28.5Q31 66 31 126Q31 174 56 208Q81 242 143 278L300 369Q272 393 219 393Q187 393 149.5 382Q112 371 77 351L44 465Q118 509 228 509Q339 509 398.5 455.5Q458 402 458 302V0ZM204 105Q228 105 250.5 116Q273 127 290 145.5Q307 164 317.5 189Q328 214 329 241V271L194 193Q160 173 160 142Q160 126 172 115.5Q184 105 204 105Z" glyph-name="a" horiz-adv-x="509" unicode="a" /><glyph d="M337 0V97Q312 46 269.5 18.5Q227 -9 171 -9Q108 -9 69.5 28.5Q31 66 31 126Q31 174 56 208Q81 242 143 278L300 369Q272 393 219 393Q187 393 149.5 382Q112 371 77 351L44 465Q118 509 228 509Q339 509 398.5 455.5Q458 402 458 302V0ZM204 105Q228 105 250.5 116Q273 127 290 145.5Q307 164 317.5 189Q328 214 329 241V271L194 193Q160 173 160 142Q160 126 172 115.5Q184 105 204 105ZM164 576 252 750H394L288 576Z" glyph-name="aacute" horiz-adv-x="509" unicode="&#225;" /><glyph d="M337 0V97Q312 46 269.5 18.5Q227 -9 171 -9Q108 -9 69.5 28.5Q31 66 31 126Q31 174 56 208Q81 242 143 278L300 369Q272 393 219 393Q187 393 149.5 382Q112 371 77 351L44 465Q118 509 228 509Q339 509 398.5 455.5Q458 402 458 302V0ZM204 105Q228 105 250.5 116Q273 127 290 145.5Q307 164 317.5 189Q328 214 329 241V271L194 193Q160 173 160 142Q160 126 172 115.5Q184 105 204 105ZM229 655Q267 655 289.5 678.5Q312 702 314 750H409Q406 664 357.5 614.5Q309 565 229 565Q149 565 100.5 614.5Q52 664 49 750H144Q146 702 168.5 678.5Q191 655 229 655Z" glyph-name="abreve" horiz-adv-x="509" unicode="&#259;" /><glyph d="M337 0V97Q312 46 269.5 18.5Q227 -9 171 -9Q108 -9 69.5 28.5Q31 66 31 126Q31 174 56 208Q81 242 143 278L300 369Q272 393 219 393Q187 393 149.5 382Q112 371 77 351L44 465Q118 509 228 509Q339 509 398.5 455.5Q458 402 458 302V0ZM204 105Q228 105 250.5 116Q273 127 290 145.5Q307 164 317.5 189Q328 214 329 241V271L194 193Q160 173 160 142Q160 126 172 115.5Q184 105 204 105ZM418 576H307L229 667L151 576H40L179 750H279Z" glyph-name="acircumflex" horiz-adv-x="509" unicode="&#226;" /><glyph d="M185 576 273 750H415L309 576Z" glyph-name="acute" horiz-adv-x="500" unicode="&#180;" /><glyph d="M185 814 273 986H415L309 814Z" glyph-name="acute.cap" horiz-adv-x="500" /><glyph d="M337 0V97Q312 46 269.5 18.5Q227 -9 171 -9Q108 -9 69.5 28.5Q31 66 31 126Q31 174 56 208Q81 242 143 278L300 369Q272 393 219 393Q187 393 149.5 382Q112 371 77 351L44 465Q118 509 228 509Q339 509 398.5 455.5Q458 402 458 302V0ZM204 105Q228 105 250.5 116Q273 127 290 145.5Q307 164 317.5 189Q328 214 329 241V271L194 193Q160 173 160 142Q160 126 172 115.5Q184 105 204 105ZM63 741H192V586H63ZM266 741H395V586H266Z" glyph-name="adieresis" horiz-adv-x="509" unicode="&#228;" /><glyph d="M228 509Q294 509 334.5 489.5Q375 470 398 434Q420 470 457 489.5Q494 509 549 509Q655 509 711.5 442Q768 375 768 250V199H462Q472 151 504 129.5Q536 108 596 108Q641 108 668 118.5Q695 129 715 142L764 37Q729 14 685 2.5Q641 -9 584 -9Q506 -9 450.5 19Q395 47 364 101Q334 49 284 20Q234 -9 171 -9Q108 -9 69.5 28.5Q31 66 31 126Q31 174 56 208Q81 242 143 278L299 369Q272 393 219 393Q187 393 149.5 382Q112 371 77 351L44 465Q118 509 228 509ZM204 105Q228 105 250.5 116Q273 127 290 145.5Q307 164 317.5 189Q328 214 329 241V270L194 193Q160 173 160 142Q160 126 172 115.5Q184 105 204 105ZM549 400Q510 400 488.5 376Q467 352 461 301H637Q630 352 608.5 376Q587 400 549 400Z" glyph-name="ae" horiz-adv-x="806" unicode="&#230;" /><glyph d="M337 0V97Q312 46 269.5 18.5Q227 -9 171 -9Q108 -9 69.5 28.5Q31 66 31 126Q31 174 56 208Q81 242 143 278L300 369Q272 393 219 393Q187 393 149.5 382Q112 371 77 351L44 465Q118 509 228 509Q339 509 398.5 455.5Q458 402 458 302V0ZM204 105Q228 105 250.5 116Q273 127 290 145.5Q307 164 317.5 189Q328 214 329 241V271L194 193Q160 173 160 142Q160 126 172 115.5Q184 105 204 105ZM64 750H206L294 576H170Z" glyph-name="agrave" horiz-adv-x="509" unicode="&#224;" /><glyph d="M251 -213Q218 -213 191 -202.5Q164 -192 149 -173L181 -126Q211 -150 246 -150Q282 -150 282 -122Q282 -105 268.5 -94Q255 -83 223 -77L210 -75L222 -25L234 -27Q289 -36 320.5 -61.5Q352 -87 352 -127Q352 -166 325 -189.5Q298 -213 251 -213Z" glyph-name="altcedilla" horiz-adv-x="500" /><glyph d="M337 0V97Q312 46 269.5 18.5Q227 -9 171 -9Q108 -9 69.5 28.5Q31 66 31 126Q31 174 56 208Q81 242 143 278L300 369Q272 393 219 393Q187 393 149.5 382Q112 371 77 351L44 465Q118 509 228 509Q339 509 398.5 455.5Q458 402 458 302V0ZM204 105Q228 105 250.5 116Q273 127 290 145.5Q307 164 317.5 189Q328 214 329 241V271L194 193Q160 173 160 142Q160 126 172 115.5Q184 105 204 105ZM358 607H100V719H358Z" glyph-name="amacron" horiz-adv-x="509" unicode="&#257;" /><glyph d="M269 758Q311 758 347 745.5Q383 733 408.5 710.5Q434 688 448.5 657Q463 626 463 588Q463 560 453 535.5Q443 511 427 489Q411 467 391.5 447Q372 427 353 408L477 280L598 401L690 308L569 186L677 76L589 -17L479 96Q453 71 430 51.5Q407 32 381.5 18.5Q356 5 326.5 -2Q297 -9 258 -9Q212 -9 173.5 5.5Q135 20 106.5 45.5Q78 71 62 106Q46 141 46 183Q46 216 53.5 242Q61 268 76.5 292.5Q92 317 117 344Q142 371 178 406Q155 430 136 450.5Q117 471 103.5 492Q90 513 82.5 536Q75 559 75 588Q75 626 89.5 657Q104 688 129.5 710.5Q155 733 190.5 745.5Q226 758 269 758ZM265 115Q282 115 296 119Q310 123 323.5 132Q337 141 352.5 155.5Q368 170 388 190L264 318Q244 298 228.5 282.5Q213 267 202.5 253.5Q192 240 186.5 227Q181 214 181 197Q181 162 204.5 138.5Q228 115 265 115ZM206 591Q206 565 223 544Q240 523 268 494Q300 526 316.5 547.5Q333 569 333 591Q333 619 316 634.5Q299 650 269 650Q239 650 222.5 634.5Q206 619 206 591Z" glyph-name="ampersand" horiz-adv-x="728" unicode="&amp;" /><glyph d="M337 0V97Q312 46 269.5 18.5Q227 -9 171 -9Q108 -9 69.5 28.5Q31 66 31 126Q31 174 56 208Q81 242 143 278L300 369Q272 393 219 393Q187 393 149.5 382Q112 371 77 351L44 465Q118 509 228 509Q339 509 398.5 455.5Q458 402 458 302V0ZM204 105Q228 105 250.5 116Q273 127 290 145.5Q307 164 317.5 189Q328 214 329 241V271L194 193Q160 173 160 142Q160 126 172 115.5Q184 105 204 105ZM415 -213Q357 -213 323 -183.5Q289 -154 289 -104Q289 -56 321.5 -17Q354 22 420 48L458 0Q419 -12 395.5 -36Q372 -60 372 -89Q372 -110 385.5 -122.5Q399 -135 424 -135Q456 -135 482 -112L520 -172Q482 -213 415 -213Z" glyph-name="aogonek" horiz-adv-x="509" unicode="&#261;" /><glyph d="M182 559Q213 559 236.5 550Q260 541 278.5 529.5Q297 518 313 509Q329 500 344 500Q376 500 376 535V539H488V521Q488 459 456 420.5Q424 382 368 382Q337 382 313.5 391Q290 400 271.5 411.5Q253 423 237 432Q221 441 206 441Q174 441 174 406V402H62V420Q62 482 94 520.5Q126 559 182 559ZM182 368Q213 368 236.5 359Q260 350 278.5 338.5Q297 327 313 318Q329 309 344 309Q376 309 376 344V348H488V330Q488 268 456 229.5Q424 191 368 191Q337 191 313.5 200Q290 209 271.5 220.5Q253 232 237 241Q221 250 206 250Q174 250 174 215V211H62V229Q62 291 94 329.5Q126 368 182 368Z" glyph-name="approxequal" horiz-adv-x="550" unicode="&#8776;" /><glyph d="M337 0V97Q312 46 269.5 18.5Q227 -9 171 -9Q108 -9 69.5 28.5Q31 66 31 126Q31 174 56 208Q81 242 143 278L300 369Q272 393 219 393Q187 393 149.5 382Q112 371 77 351L44 465Q118 509 228 509Q339 509 398.5 455.5Q458 402 458 302V0ZM204 105Q228 105 250.5 116Q273 127 290 145.5Q307 164 317.5 189Q328 214 329 241V271L194 193Q160 173 160 142Q160 126 172 115.5Q184 105 204 105ZM348 675Q348 623 314.5 589.5Q281 556 229 556Q177 556 143.5 589.5Q110 623 110 675Q110 727 143.5 760.5Q177 794 229 794Q281 794 314.5 760.5Q348 727 348 675ZM173 675Q173 650 188.5 634Q204 618 229 618Q254 618 269.5 634Q285 650 285 675Q285 700 269.5 716Q254 732 229 732Q204 732 188.5 716Q173 700 173 675Z" glyph-name="aring" horiz-adv-x="509" unicode="&#229;" /><glyph d="M275 604 161 350H24L209 750H341L526 350H389Z" glyph-name="asciicircum" horiz-adv-x="550" unicode="^" /><glyph d="M182 459Q213 459 236.5 450Q260 441 278.5 429.5Q297 418 313 409Q329 400 344 400Q376 400 376 435V439H488V421Q488 359 456 320.5Q424 282 368 282Q337 282 313.5 291Q290 300 271.5 311.5Q253 323 237 332Q221 341 206 341Q174 341 174 306V302H62V320Q62 382 94 420.5Q126 459 182 459Z" glyph-name="asciitilde" horiz-adv-x="550" unicode="~" /><glyph d="M277 634 373 699 424 612 319 561 424 510 373 423 277 488 287 372H185L194 489L98 423L47 510L151 561L47 612L98 699L194 633L185 750H287Z" glyph-name="asterisk" horiz-adv-x="471" unicode="*" /><glyph d="M690 317Q690 438 618.5 504Q547 570 414 570Q283 570 211 490Q139 410 139 266Q139 118 217 39.5Q295 -39 444 -39Q512 -39 575 -22.5Q638 -6 693 25L716 -58Q592 -123 444 -123Q351 -123 278.5 -97Q206 -71 156 -21Q106 29 80 101.5Q54 174 54 266Q54 356 79 428Q104 500 150.5 550.5Q197 601 263.5 627.5Q330 654 414 654Q498 654 565 631Q632 608 678.5 565.5Q725 523 750 461Q775 399 775 321Q775 197 727.5 129.5Q680 62 593 62Q557 62 526.5 74Q496 86 475 107V147Q455 106 421.5 84Q388 62 343 62Q294 62 263.5 92Q233 122 233 169Q233 206 251 232Q269 258 313 284L435 355Q415 366 384 366Q358 366 325 354Q292 342 270 327L242 428Q273 448 312 459.5Q351 471 394 471Q486 471 535 427.5Q584 384 584 303V145Q588 144 592 144Q596 144 601 144Q643 144 666.5 190.5Q690 237 690 317ZM375 167Q393 167 410 174.5Q427 182 439.5 195.5Q452 209 460 226.5Q468 244 468 263V276L370 219Q348 207 348 189Q348 179 355.5 173Q363 167 375 167Z" glyph-name="at" horiz-adv-x="824" unicode="@" /><glyph d="M690 426Q690 547 618.5 613Q547 679 414 679Q283 679 211 599Q139 519 139 375Q139 227 217 148.5Q295 70 444 70Q512 70 575 86.5Q638 103 693 134L716 51Q592 -14 444 -14Q351 -14 278.5 12Q206 38 156 88Q106 138 80 210.5Q54 283 54 375Q54 465 79 537Q104 609 150.5 659.5Q197 710 263.5 736.5Q330 763 414 763Q498 763 565 740Q632 717 678.5 674.5Q725 632 750 570Q775 508 775 430Q775 306 727.5 238.5Q680 171 593 171Q557 171 526.5 183Q496 195 475 216V256Q455 215 421.5 193Q388 171 343 171Q294 171 263.5 201Q233 231 233 278Q233 315 251 341Q269 367 313 393L435 464Q415 475 384 475Q358 475 325 463.5Q292 452 270 436L242 537Q273 557 312 568.5Q351 580 394 580Q486 580 535 536.5Q584 493 584 412V254Q588 253 592 253Q596 253 601 253Q643 253 666.5 299.5Q690 346 690 426ZM375 276Q393 276 410 284Q427 292 439.5 305Q452 318 460 335.5Q468 353 468 372V385L370 328Q348 316 348 298Q348 288 355.5 282Q363 276 375 276Z" glyph-name="at.cap" horiz-adv-x="824" /><glyph d="M337 0V97Q312 46 269.5 18.5Q227 -9 171 -9Q108 -9 69.5 28.5Q31 66 31 126Q31 174 56 208Q81 242 143 278L300 369Q272 393 219 393Q187 393 149.5 382Q112 371 77 351L44 465Q118 509 228 509Q339 509 398.5 455.5Q458 402 458 302V0ZM204 105Q228 105 250.5 116Q273 127 290 145.5Q307 164 317.5 189Q328 214 329 241V271L194 193Q160 173 160 142Q160 126 172 115.5Q184 105 204 105ZM434 726V705Q434 651 407 621Q380 591 331 591Q308 591 286 599Q264 607 238 621Q216 635 204.5 640Q193 645 182 645Q157 645 157 619V609H68V620Q68 675 95 704.5Q122 734 171 734Q194 734 216 726Q238 718 264 704Q286 691 297.5 685.5Q309 680 320 680Q332 680 338.5 687.5Q345 695 345 707V726Z" glyph-name="atilde" horiz-adv-x="509" unicode="&#227;" /><glyph d="M182 750V432Q226 509 325 509Q367 509 401 491Q435 473 459 439Q483 405 496 357.5Q509 310 509 250Q509 190 496 142.5Q483 95 459 61Q435 27 401 9Q367 -9 325 -9Q217 -9 174 83V0H53V750ZM281 108Q380 108 380 250Q380 393 281 393Q184 393 182 257V250Q182 108 281 108Z" glyph-name="b" horiz-adv-x="547" unicode="b" /><glyph d="M420 -100H284L30 750H166Z" glyph-name="backslash" horiz-adv-x="420" unicode="\" /><glyph d="M390 0H254L30 750H166Z" glyph-name="backslash.cap" horiz-adv-x="420" /><glyph d="M205 750V-100H74V750Z" glyph-name="bar" horiz-adv-x="279" unicode="|" /><glyph d="M205 750V0H74V750Z" glyph-name="bar.cap" horiz-adv-x="279" /><glyph d="M182 750V432Q226 509 325 509Q367 509 401 491Q435 473 459 439Q483 405 496 357.5Q509 310 509 250Q509 190 496 142.5Q483 95 459 61Q435 27 401 9Q367 -9 325 -9Q217 -9 174 83V0H53V750ZM281 108Q380 108 380 250Q380 393 281 393Q184 393 182 257V250Q182 108 281 108ZM53 977H182V823H53Z" glyph-name="bdotaccent" horiz-adv-x="547" unicode="&#7683;" /><glyph d="M313 -100H224Q168 -100 133.5 -65.5Q99 -31 99 21Q99 53 101.5 78.5Q104 104 107.5 125.5Q111 147 113.5 167.5Q116 188 116 209Q116 234 100.5 247.5Q85 261 57 261H30V389H57Q85 389 100.5 402.5Q116 416 116 441Q116 462 113.5 482.5Q111 503 107.5 524.5Q104 546 101.5 571.5Q99 597 99 629Q99 681 133.5 715.5Q168 750 224 750H313V621H273Q250 621 237.5 609Q225 597 225 576Q225 552 227.5 531.5Q230 511 233 491.5Q236 472 238.5 451Q241 430 241 403Q241 355 197 325Q241 295 241 247Q241 220 238.5 199Q236 178 233 158.5Q230 139 227.5 118.5Q225 98 225 74Q225 53 237.5 41Q250 29 273 29H313Z" glyph-name="braceleft" horiz-adv-x="346" unicode="{" /><glyph d="M273 621Q250 621 237.5 609Q225 597 225 576Q225 559 227.5 545Q230 531 233 517Q236 503 238.5 487.5Q241 472 241 453Q241 405 197 375Q241 345 241 297Q241 278 238.5 262.5Q236 247 233 233Q230 219 227.5 205Q225 191 225 174Q225 153 237.5 141Q250 129 273 129H313V0H224Q168 0 133.5 34.5Q99 69 99 121Q99 145 101.5 164Q104 183 107.5 198.5Q111 214 113.5 228.5Q116 243 116 259Q116 284 100.5 297.5Q85 311 57 311H30V439H57Q85 439 100.5 452.5Q116 466 116 491Q116 507 113.5 521.5Q111 536 107.5 552Q104 568 101.5 586.5Q99 605 99 629Q99 681 133.5 715.5Q168 750 224 750H313V621Z" glyph-name="braceleft.cap" horiz-adv-x="346" /><glyph d="M34 750H123Q179 750 213 715.5Q247 681 247 629Q247 597 244.5 571.5Q242 546 239 524.5Q236 503 233.5 482.5Q231 462 231 441Q231 416 246.5 402.5Q262 389 290 389H316V261H290Q262 261 246.5 247.5Q231 234 231 209Q231 188 233.5 167.5Q236 147 239 125.5Q242 104 244.5 78.5Q247 53 247 21Q247 -31 213 -65.5Q179 -100 123 -100H34V29H73Q96 29 109 41Q122 53 122 74Q122 98 119.5 118.5Q117 139 113.5 158.5Q110 178 107.5 199Q105 220 105 247Q105 296 148 325Q105 354 105 403Q105 430 107.5 451Q110 472 113.5 491.5Q117 511 119.5 531.5Q122 552 122 576Q122 597 109 609Q96 621 73 621H34Z" glyph-name="braceright" horiz-adv-x="346" unicode="}" /><glyph d="M73 129Q96 129 109 141Q122 153 122 174Q122 191 119.5 205Q117 219 113.5 233Q110 247 107.5 262.5Q105 278 105 297Q105 346 148 375Q105 404 105 453Q105 472 107.5 487.5Q110 503 113.5 517Q117 531 119.5 545Q122 559 122 576Q122 597 109 609Q96 621 73 621H34V750H123Q179 750 213 715.5Q247 681 247 629Q247 605 244.5 586.5Q242 568 239 552Q236 536 233.5 521.5Q231 507 231 491Q231 466 246.5 452.5Q262 439 290 439H316V311H290Q262 311 246.5 297.5Q231 284 231 259Q231 243 233.5 228.5Q236 214 239 198.5Q242 183 244.5 164Q247 145 247 121Q247 69 213 34.5Q179 0 123 0H34V129Z" glyph-name="braceright.cap" horiz-adv-x="346" /><glyph d="M74 750H313V621H205V29H313V-100H74Z" glyph-name="bracketleft" horiz-adv-x="346" unicode="[" /><glyph d="M74 750H313V621H205V129H313V0H74Z" glyph-name="bracketleft.cap" horiz-adv-x="346" /><glyph d="M273 -100H34V29H141V621H34V750H273Z" glyph-name="bracketright" horiz-adv-x="346" unicode="]" /><glyph d="M273 0H34V129H141V621H34V750H273Z" glyph-name="bracketright.cap" horiz-adv-x="346" /><glyph d="M250 655Q288 655 310.5 678.5Q333 702 335 750H430Q427 664 378.5 614.5Q330 565 250 565Q170 565 121.5 614.5Q73 664 70 750H165Q167 702 189.5 678.5Q212 655 250 655Z" glyph-name="breve" horiz-adv-x="500" unicode="&#728;" /><glyph d="M250 892Q288 892 310.5 916Q333 940 335 986H430Q427 900 378.5 850.5Q330 801 250 801Q170 801 121.5 850.5Q73 900 70 986H165Q167 940 189.5 916Q212 892 250 892Z" glyph-name="breve.cap" horiz-adv-x="500" /><glyph d="M205 294V-100H74V294ZM205 750V356H74V750Z" glyph-name="brokenbar" horiz-adv-x="279" unicode="&#166;" /><glyph d="M205 344V0H74V344ZM205 750V406H74V750Z" glyph-name="brokenbar.cap" horiz-adv-x="279" /><glyph d="M387 299Q387 262 373.5 229.5Q360 197 336 173Q312 149 280 135.5Q248 122 210 122Q173 122 140.5 135.5Q108 149 84 173Q60 197 46.5 229.5Q33 262 33 299Q33 336 46.5 368.5Q60 401 84 425Q108 449 140.5 462.5Q173 476 210 476Q248 476 280 462.5Q312 449 336 425Q360 401 373.5 368.5Q387 336 387 299Z" glyph-name="bullet" horiz-adv-x="420" unicode="&#8226;" /><glyph d="M387 374Q387 337 373.5 304.5Q360 272 336 248Q312 224 280 210.5Q248 197 210 197Q173 197 140.5 210.5Q108 224 84 248Q60 272 46.5 304.5Q33 337 33 374Q33 411 46.5 443.5Q60 476 84 500Q108 524 140.5 537.5Q173 551 210 551Q248 551 280 537.5Q312 524 336 500Q360 476 373.5 443.5Q387 411 387 374Z" glyph-name="bullet.cap" horiz-adv-x="420" /><glyph d="M167 250Q167 183 198.5 145.5Q230 108 287 108Q346 108 388 147L437 44Q408 18 367 4.5Q326 -9 275 -9Q161 -9 99.5 59Q38 127 38 250Q38 373 99.5 441Q161 509 275 509Q326 509 367 495.5Q408 482 437 456L388 353Q347 393 287 393Q230 393 198.5 355Q167 317 167 250Z" glyph-name="c" horiz-adv-x="466" unicode="c" /><glyph d="M167 250Q167 183 198.5 145.5Q230 108 287 108Q346 108 388 147L437 44Q408 18 367 4.5Q326 -9 275 -9Q161 -9 99.5 59Q38 127 38 250Q38 373 99.5 441Q161 509 275 509Q326 509 367 495.5Q408 482 437 456L388 353Q347 393 287 393Q230 393 198.5 355Q167 317 167 250ZM196 576 284 750H426L320 576Z" glyph-name="cacute" horiz-adv-x="466" unicode="&#263;" /><glyph d="M61 750H172L250 659L328 750H439L300 576H200Z" glyph-name="caron" horiz-adv-x="500" unicode="&#711;" /><glyph d="M61 986H172L250 896L328 986H439L300 814H200Z" glyph-name="caron.cap" horiz-adv-x="500" /><glyph d="M316 566 326 750H408L393 566Z" glyph-name="caronSlovak" horiz-adv-x="500" /><glyph d="M167 250Q167 183 198.5 145.5Q230 108 287 108Q346 108 388 147L437 44Q408 18 367 4.5Q326 -9 275 -9Q161 -9 99.5 59Q38 127 38 250Q38 373 99.5 441Q161 509 275 509Q326 509 367 495.5Q408 482 437 456L388 353Q347 393 287 393Q230 393 198.5 355Q167 317 167 250ZM72 750H183L261 659L339 750H450L311 576H211Z" glyph-name="ccaron" horiz-adv-x="466" unicode="&#269;" /><glyph d="M167 250Q167 183 198.5 145.5Q230 108 287 108Q346 108 388 147L437 44Q408 18 367 4.5Q326 -9 275 -9Q161 -9 99.5 59Q38 127 38 250Q38 373 99.5 441Q161 509 275 509Q326 509 367 495.5Q408 482 437 456L388 353Q347 393 287 393Q230 393 198.5 355Q167 317 167 250ZM299 0 290 -36Q363 -61 363 -127Q363 -166 336 -189.5Q309 -213 262 -213Q229 -213 202 -202.5Q175 -192 160 -173L192 -126Q222 -150 257 -150Q293 -150 293 -122Q293 -105 279.5 -94Q266 -83 234 -76L210 -72L229 0Z" glyph-name="ccedilla" horiz-adv-x="466" unicode="&#231;" /><glyph d="M167 250Q167 183 198.5 145.5Q230 108 287 108Q346 108 388 147L437 44Q408 18 367 4.5Q326 -9 275 -9Q161 -9 99.5 59Q38 127 38 250Q38 373 99.5 441Q161 509 275 509Q326 509 367 495.5Q408 482 437 456L388 353Q347 393 287 393Q230 393 198.5 355Q167 317 167 250ZM450 576H339L261 667L183 576H72L211 750H311Z" glyph-name="ccircumflex" horiz-adv-x="466" unicode="&#265;" /><glyph d="M167 250Q167 183 198.5 145.5Q230 108 287 108Q346 108 388 147L437 44Q408 18 367 4.5Q326 -9 275 -9Q161 -9 99.5 59Q38 127 38 250Q38 373 99.5 441Q161 509 275 509Q326 509 367 495.5Q408 482 437 456L388 353Q347 393 287 393Q230 393 198.5 355Q167 317 167 250ZM197 741H326V586H197Z" glyph-name="cdotaccent" horiz-adv-x="466" unicode="&#267;" /><glyph d="M288 0 279 -36Q352 -61 352 -127Q352 -166 325 -189.5Q298 -213 251 -213Q218 -213 191 -202.5Q164 -192 149 -173L181 -126Q211 -150 246 -150Q282 -150 282 -122Q282 -105 268.5 -94Q255 -83 223 -76L199 -72L218 0Z" glyph-name="cedilla" horiz-adv-x="500" unicode="&#184;" /><glyph d="M244 -50V89Q147 109 95 181.5Q43 254 43 372Q43 489 95 561.5Q147 634 244 654V800H366V658Q454 646 507 594L455 485Q427 510 397.5 522Q368 534 330 534Q259 534 221.5 492Q184 450 184 372Q184 293 221.5 251Q259 209 330 209Q368 209 397.5 221Q427 233 455 258L507 149Q454 97 366 85V-50Z" glyph-name="cent" horiz-adv-x="550" unicode="&#162;" /><glyph d="M439 576H328L250 667L172 576H61L200 750H300Z" glyph-name="circumflex" horiz-adv-x="500" unicode="&#710;" /><glyph d="M439 814H328L250 905L172 814H61L200 986H300Z" glyph-name="circumflex.cap" horiz-adv-x="500" /><glyph d="M59 0V149H190V0ZM59 322V471H190V322Z" glyph-name="colon" horiz-adv-x="249" unicode=":" /><glyph d="M59 149H190V88Q190 65 184.5 38Q179 11 171 -21L139 -149L22 -119L50 -10Q55 4 57 23Q59 42 59 59Z" glyph-name="comma" horiz-adv-x="249" unicode="," /><glyph d="M184 -39H315V-83Q315 -103 311 -120.5Q307 -138 303 -154L287 -213L163 -198L180 -132Q182 -124 183 -114Q184 -104 184 -94Z" glyph-name="commaaccent" horiz-adv-x="500" /><glyph d="M316 814H184V858Q184 878 188 895.5Q192 913 197 929L214 991L340 984L320 907Q318 899 317 889Q316 879 316 869Z" glyph-name="commaaccent.cap" horiz-adv-x="500" /><glyph d="M789 375Q789 294 760.5 223.5Q732 153 682.5 101.5Q633 50 565.5 20.5Q498 -9 420 -9Q342 -9 275 20.5Q208 50 158.5 101.5Q109 153 80.5 223.5Q52 294 52 375Q52 456 80.5 526.5Q109 597 158.5 648.5Q208 700 275 729.5Q342 759 420 759Q498 759 565.5 729.5Q633 700 682.5 648.5Q732 597 760.5 526.5Q789 456 789 375ZM135 375Q135 308 157 252Q179 196 217 156Q255 116 307.5 94Q360 72 420 72Q480 72 532.5 94Q585 116 623 156Q661 196 683 252Q705 308 705 375Q705 442 683 498Q661 554 623 594Q585 634 532.5 656.5Q480 679 420 679Q360 679 307.5 656.5Q255 634 217 594Q179 554 157 498Q135 442 135 375ZM320 375Q320 312 350 277.5Q380 243 437 243Q465 243 488.5 253Q512 263 532 281L579 189Q550 165 512 151.5Q474 138 428 138Q319 138 260.5 200Q202 262 202 375Q202 488 260.5 550Q319 612 428 612Q474 612 512 598.5Q550 585 579 561L532 469Q512 487 488.5 497Q465 507 437 507Q380 507 350 473Q320 439 320 375Z" glyph-name="copyright" horiz-adv-x="840" unicode="&#169;" /><glyph d="M494 0H373V83Q330 -9 222 -9Q180 -9 146 9.5Q112 28 88 61.5Q64 95 51 143Q38 191 38 250Q38 310 51 357.5Q64 405 88 439Q112 473 146 491Q180 509 222 509Q320 509 365 432V750H494ZM266 108Q362 108 365 243V250Q365 393 266 393Q167 393 167 250Q167 108 266 108Z" glyph-name="d" horiz-adv-x="547" unicode="d" /><glyph d="M301 190H178L185 365V501L47 495V620L183 613L178 750H301L296 613L432 620V495L294 501V365Z" glyph-name="dagger" horiz-adv-x="479" unicode="&#8224;" /><glyph d="M301 0H178L185 175V289L47 284V408L185 402V501L47 495V620L183 613L178 750H301L296 613L432 620V495L294 501V402L432 408V284L294 289V175Z" glyph-name="daggerdbl" horiz-adv-x="479" unicode="&#8225;" /><glyph d="M494 0H373V83Q330 -9 222 -9Q180 -9 146 9.5Q112 28 88 61.5Q64 95 51 143Q38 191 38 250Q38 310 51 357.5Q64 405 88 439Q112 473 146 491Q180 509 222 509Q320 509 365 432V750H494ZM266 108Q362 108 365 243V250Q365 393 266 393Q167 393 167 250Q167 108 266 108ZM560 566 570 750H652L637 566Z" glyph-name="dcaron" horiz-adv-x="547" unicode="&#271;" /><glyph d="M494 674H554V576H494V0H373V83Q330 -9 222 -9Q180 -9 146 9.5Q112 28 88 61.5Q64 95 51 143Q38 191 38 250Q38 310 51 357.5Q64 405 88 439Q112 473 146 491Q180 509 222 509Q320 509 365 432V576H257V674H365V750H494ZM266 108Q362 108 365 243V257Q362 393 266 393Q167 393 167 250Q167 108 266 108Z" glyph-name="dcroat" horiz-adv-x="547" unicode="&#273;" /><glyph d="M494 0H373V83Q330 -9 222 -9Q180 -9 146 9.5Q112 28 88 61.5Q64 95 51 143Q38 191 38 250Q38 310 51 357.5Q64 405 88 439Q112 473 146 491Q180 509 222 509Q320 509 365 432V750H494ZM266 108Q362 108 365 243V250Q365 393 266 393Q167 393 167 250Q167 108 266 108ZM366 977H495V823H366Z" glyph-name="ddotaccent" horiz-adv-x="547" unicode="&#7691;" /><glyph d="M157 573Q157 536 176.5 515Q196 494 231 494Q266 494 285.5 515Q305 536 305 573Q305 609 285.5 630.5Q266 652 231 652Q196 652 176.5 630.5Q157 609 157 573ZM231 761Q272 761 306.5 747Q341 733 366 708Q391 683 405 648.5Q419 614 419 573Q419 532 405 497.5Q391 463 366 438Q341 413 306.5 399Q272 385 231 385Q190 385 155.5 399Q121 413 96 438Q71 463 57 497.5Q43 532 43 573Q43 614 57 648.5Q71 683 96 708Q121 733 155.5 747Q190 761 231 761Z" glyph-name="degree" horiz-adv-x="462" unicode="&#176;" /><glyph d="M84 741H213V586H84ZM287 741H416V586H287Z" glyph-name="dieresis" horiz-adv-x="500" unicode="&#168;" /><glyph d="M84 977H213V823H84ZM287 977H416V823H287Z" glyph-name="dieresis.cap" horiz-adv-x="500" /><glyph d="M211 127V265H339V127ZM211 485V623H339V485ZM62 434H488V316H62Z" glyph-name="divide" horiz-adv-x="550" unicode="&#247;" /><glyph d="M214 -50V85Q166 90 123 103Q80 116 43 136L76 257Q122 233 169.5 221.5Q217 210 274 210Q367 210 367 266Q367 291 345 304Q323 317 268 323Q163 337 115 377Q67 417 67 491Q67 560 105 603Q143 646 214 660V800H336V665Q423 657 483 625L450 504Q412 523 373 532Q334 541 289 541Q205 541 205 494Q205 473 225.5 462Q246 451 299 446Q503 425 503 267Q503 192 460 146.5Q417 101 336 88V-50Z" glyph-name="dollar" horiz-adv-x="550" unicode="$" /><glyph d="M186 741H315V586H186Z" glyph-name="dotaccent" horiz-adv-x="500" unicode="&#729;" /><glyph d="M186 977H315V823H186Z" glyph-name="dotaccent.cap" horiz-adv-x="500" /><glyph d="M186 -59H315V-200H186Z" glyph-name="dotbelow" horiz-adv-x="500" /><glyph d="M189 158Q189 108 239 108Q247 108 251 108.5Q255 109 259 110L261 -4Q241 -9 214 -9Q60 -9 60 146V500H189Z" glyph-name="dotlessi" horiz-adv-x="289" unicode="&#305;" /><glyph d="M189 -33Q189 -84 172.5 -114Q156 -144 117 -166L36 -213L-26 -102L26 -71Q45 -60 52.5 -44.5Q60 -29 60 -3V500H189Z" glyph-name="dotlessj" horiz-adv-x="249" unicode="&#567;" /><glyph d="M205 750V-100H74V750ZM379 750V-100H248V750Z" glyph-name="doublebar" horiz-adv-x="454" unicode="&#8214;" /><glyph d="M205 750V0H74V750ZM379 750V0H248V750Z" glyph-name="doublebar.cap" horiz-adv-x="454" /><glyph d="M190 750H315L391 576H278ZM23 750H148L224 576H112Z" glyph-name="doublegrave" horiz-adv-x="500" /><glyph d="M190 986H315L391 814H278ZM23 986H148L224 814H112Z" glyph-name="doublegrave.cap" horiz-adv-x="500" /><glyph d="M293 -9Q171 -9 104.5 58.5Q38 126 38 250Q38 374 95.5 441.5Q153 509 258 509Q364 509 420.5 442Q477 375 477 250V199H171Q181 151 213 129.5Q245 108 305 108Q350 108 377 118.5Q404 129 424 142L473 37Q438 14 394 2.5Q350 -9 293 -9ZM258 400Q219 400 197.5 376Q176 352 169 301H346Q339 352 317.5 376Q296 400 258 400Z" glyph-name="e" horiz-adv-x="515" unicode="e" /><glyph d="M293 -9Q171 -9 104.5 58.5Q38 126 38 250Q38 374 95.5 441.5Q153 509 258 509Q364 509 420.5 442Q477 375 477 250V199H171Q181 151 213 129.5Q245 108 305 108Q350 108 377 118.5Q404 129 424 142L473 37Q438 14 394 2.5Q350 -9 293 -9ZM258 400Q219 400 197.5 376Q176 352 169 301H346Q339 352 317.5 376Q296 400 258 400ZM193 576 281 750H423L317 576Z" glyph-name="eacute" horiz-adv-x="515" unicode="&#233;" /><glyph d="M293 -9Q171 -9 104.5 58.5Q38 126 38 250Q38 374 95.5 441.5Q153 509 258 509Q364 509 420.5 442Q477 375 477 250V199H171Q181 151 213 129.5Q245 108 305 108Q350 108 377 118.5Q404 129 424 142L473 37Q438 14 394 2.5Q350 -9 293 -9ZM258 400Q219 400 197.5 376Q176 352 169 301H346Q339 352 317.5 376Q296 400 258 400ZM258 655Q296 655 318.5 678.5Q341 702 343 750H438Q435 664 386.5 614.5Q338 565 258 565Q178 565 129.5 614.5Q81 664 78 750H173Q175 702 197.5 678.5Q220 655 258 655Z" glyph-name="ebreve" horiz-adv-x="515" unicode="&#277;" /><glyph d="M293 -9Q171 -9 104.5 58.5Q38 126 38 250Q38 374 95.5 441.5Q153 509 258 509Q364 509 420.5 442Q477 375 477 250V199H171Q181 151 213 129.5Q245 108 305 108Q350 108 377 118.5Q404 129 424 142L473 37Q438 14 394 2.5Q350 -9 293 -9ZM258 400Q219 400 197.5 376Q176 352 169 301H346Q339 352 317.5 376Q296 400 258 400ZM69 750H180L258 659L336 750H447L308 576H208Z" glyph-name="ecaron" horiz-adv-x="515" unicode="&#283;" /><glyph d="M293 -9Q171 -9 104.5 58.5Q38 126 38 250Q38 374 95.5 441.5Q153 509 258 509Q364 509 420.5 442Q477 375 477 250V199H171Q181 151 213 129.5Q245 108 305 108Q350 108 377 118.5Q404 129 424 142L473 37Q438 14 394 2.5Q350 -9 293 -9ZM258 400Q219 400 197.5 376Q176 352 169 301H346Q339 352 317.5 376Q296 400 258 400ZM447 576H336L258 667L180 576H69L208 750H308Z" glyph-name="ecircumflex" horiz-adv-x="515" unicode="&#234;" /><glyph d="M293 -9Q171 -9 104.5 58.5Q38 126 38 250Q38 374 95.5 441.5Q153 509 258 509Q364 509 420.5 442Q477 375 477 250V199H171Q181 151 213 129.5Q245 108 305 108Q350 108 377 118.5Q404 129 424 142L473 37Q438 14 394 2.5Q350 -9 293 -9ZM258 400Q219 400 197.5 376Q176 352 169 301H346Q339 352 317.5 376Q296 400 258 400ZM92 741H221V586H92ZM295 741H424V586H295Z" glyph-name="edieresis" horiz-adv-x="515" unicode="&#235;" /><glyph d="M293 -9Q171 -9 104.5 58.5Q38 126 38 250Q38 374 95.5 441.5Q153 509 258 509Q364 509 420.5 442Q477 375 477 250V199H171Q181 151 213 129.5Q245 108 305 108Q350 108 377 118.5Q404 129 424 142L473 37Q438 14 394 2.5Q350 -9 293 -9ZM258 400Q219 400 197.5 376Q176 352 169 301H346Q339 352 317.5 376Q296 400 258 400ZM194 741H323V586H194Z" glyph-name="edotaccent" horiz-adv-x="515" unicode="&#279;" /><glyph d="M293 -9Q171 -9 104.5 58.5Q38 126 38 250Q38 374 95.5 441.5Q153 509 258 509Q364 509 420.5 442Q477 375 477 250V199H171Q181 151 213 129.5Q245 108 305 108Q350 108 377 118.5Q404 129 424 142L473 37Q438 14 394 2.5Q350 -9 293 -9ZM258 400Q219 400 197.5 376Q176 352 169 301H346Q339 352 317.5 376Q296 400 258 400ZM93 750H235L323 576H199Z" glyph-name="egrave" horiz-adv-x="515" unicode="&#232;" /><glyph d="M275 762Q327 762 369.5 746.5Q412 731 442 703Q472 675 488.5 635.5Q505 596 505 547Q505 494 482 452.5Q459 411 417 385Q464 357 490.5 311.5Q517 266 517 209Q517 159 499.5 118.5Q482 78 450.5 49Q419 20 374.5 4Q330 -12 275 -12Q220 -12 175.5 4Q131 20 99.5 49Q68 78 50.5 118.5Q33 159 33 209Q33 266 59.5 311.5Q86 357 133 385Q91 411 68 452.5Q45 494 45 547Q45 596 61.5 635.5Q78 675 108 703Q138 731 180.5 746.5Q223 762 275 762ZM275 324Q229 324 199 294Q169 264 169 218Q169 170 198 141Q227 112 275 112Q323 112 352 141Q381 170 381 218Q381 264 351.5 294Q322 324 275 324ZM275 638Q232 638 206.5 611.5Q181 585 181 540Q181 495 206 468.5Q231 442 275 442Q319 442 344 468.5Q369 495 369 540Q369 585 343.5 611.5Q318 638 275 638Z" glyph-name="eight" horiz-adv-x="550" unicode="8" /><glyph d="M137 127Q185 127 212.5 101.5Q240 76 240 32Q240 11 231 -5.5Q222 -22 206 -34Q225 -47 236 -66.5Q247 -86 247 -109Q247 -156 217.5 -181.5Q188 -207 137 -207Q86 -207 57 -181.5Q28 -156 28 -109Q28 -86 38.5 -66.5Q49 -47 67 -34Q34 -10 34 32Q34 76 62.5 101.5Q91 127 137 127ZM137 -139Q154 -139 162.5 -129.5Q171 -120 171 -104Q171 -89 162 -78.5Q153 -68 137 -68Q122 -68 113 -78.5Q104 -89 104 -104Q104 -120 113 -129.5Q122 -139 137 -139ZM137 -3Q150 -3 158 5.5Q166 14 166 28Q166 42 158 50.5Q150 59 137 59Q109 59 109 28Q109 -3 137 -3Z" glyph-name="eight.inf" horiz-adv-x="275" /><glyph d="M243 430H38V498H103V682H35V750H178V498H243ZM518 430H313V498H378V682H310V750H453V498H518ZM863 750 427 0H337L773 750ZM893 0H688V68H753V252H685V320H828V68H893ZM1151 256Q1103 252 1077 238Q1051 224 1040 195Q1060 217 1088 217Q1126 217 1147 188Q1168 159 1168 107Q1168 53 1141.5 24.5Q1115 -4 1067 -4Q1014 -4 987 32.5Q960 69 960 139Q960 227 1007 274Q1054 321 1145 324ZM1066 147Q1044 147 1032 119Q1037 64 1065 64Q1093 64 1093 107Q1093 127 1087 137Q1081 147 1066 147Z" glyph-name="elevensixteenths" horiz-adv-x="1200" /><glyph d="M89 0V149H220V0ZM372 0V149H503V0ZM655 0V149H786V0Z" glyph-name="ellipsis" horiz-adv-x="875" unicode="&#8230;" /><glyph d="M293 -9Q171 -9 104.5 58.5Q38 126 38 250Q38 374 95.5 441.5Q153 509 258 509Q364 509 420.5 442Q477 375 477 250V199H171Q181 151 213 129.5Q245 108 305 108Q350 108 377 118.5Q404 129 424 142L473 37Q438 14 394 2.5Q350 -9 293 -9ZM258 400Q219 400 197.5 376Q176 352 169 301H346Q339 352 317.5 376Q296 400 258 400ZM387 607H129V719H387Z" glyph-name="emacron" horiz-adv-x="515" unicode="&#275;" /><glyph d="M43 357H957V244H43Z" glyph-name="emdash" horiz-adv-x="1000" unicode="&#8212;" /><glyph d="M43 432H957V319H43Z" glyph-name="emdash.cap" horiz-adv-x="1000" /><glyph glyph-name="emspace" horiz-adv-x="709" unicode="&#8195;" /><glyph d="M43 357H457V244H43Z" glyph-name="endash" horiz-adv-x="500" unicode="&#8211;" /><glyph d="M43 432H457V319H43Z" glyph-name="endash.cap" horiz-adv-x="500" /><glyph d="M498 -33Q498 -84 481.5 -114Q465 -144 426 -166L345 -213L283 -102L335 -71Q354 -60 361.5 -44.5Q369 -29 369 -3V321Q369 355 347 374Q325 393 288 393Q243 393 213.5 358.5Q184 324 182 270V0H53V500H174V408Q198 457 241 483Q284 509 343 509Q377 509 405.5 497.5Q434 486 454.5 465.5Q475 445 486.5 416.5Q498 388 498 354Z" glyph-name="eng" horiz-adv-x="549" unicode="&#331;" /><glyph glyph-name="enspace" horiz-adv-x="325" unicode="&#8194;" /><glyph d="M293 -9Q171 -9 104.5 58.5Q38 126 38 250Q38 374 95.5 441.5Q153 509 258 509Q364 509 420.5 442Q477 375 477 250V199H171Q181 151 213 129.5Q245 108 305 108Q350 108 377 118.5Q404 129 424 142L473 37Q438 14 394 2.5Q350 -9 293 -9ZM258 400Q219 400 197.5 376Q176 352 169 301H346Q339 352 317.5 376Q296 400 258 400ZM339 -213Q281 -213 247 -183.5Q213 -154 213 -104Q213 -56 245.5 -17Q278 22 344 48L382 0Q343 -12 319.5 -36Q296 -60 296 -89Q296 -110 309.5 -122.5Q323 -135 348 -135Q380 -135 406 -112L444 -172Q406 -213 339 -213Z" glyph-name="eogonek" horiz-adv-x="515" unicode="&#281;" /><glyph d="M62 534H488V416H62ZM62 334H488V216H62Z" glyph-name="equal" horiz-adv-x="550" unicode="=" /><glyph d="M37 47H237V-19H37ZM37 -61H237V-127H37Z" glyph-name="equal.inf" horiz-adv-x="275" /><glyph d="M62 634H488V516H62ZM62 434H488V316H62ZM62 234H488V116H62Z" glyph-name="equivalence" horiz-adv-x="550" unicode="&#8801;" /><glyph d="M396 675 338 643Q491 512 491 250Q491 190 475 142Q459 94 429.5 60.5Q400 27 358.5 9Q317 -9 265 -9Q213 -9 171 9Q129 27 99.5 60.5Q70 94 54 142Q38 190 38 250Q38 309 53.5 356.5Q69 404 97 438Q125 472 163.5 490.5Q202 509 248 509Q261 509 274 507Q287 505 299 502Q271 547 221 580L61 494V579L139 621Q116 629 91 635.5Q66 642 38 647L61 761Q122 750 173.5 732.5Q225 715 269 691L396 759ZM167 250Q167 181 192.5 144.5Q218 108 265 108Q311 108 336.5 144.5Q362 181 362 250Q362 319 336.5 356Q311 393 265 393Q218 393 192.5 356Q167 319 167 250Z" glyph-name="eth" horiz-adv-x="480" unicode="&#240;" /><glyph d="M52 750H197V636Q197 574 193.5 522.5Q190 471 186.5 423Q183 375 179.5 326Q176 277 176 221H74Q74 277 70.5 326Q67 375 63 423Q59 471 55.5 522.5Q52 574 52 636ZM59 0V149H190V0Z" glyph-name="exclam" horiz-adv-x="249" unicode="!" /><glyph d="M197 -200H52V-116Q52 -59 55.5 -10.5Q59 38 63 84.5Q67 131 70.5 178Q74 225 74 279H176Q176 225 179.5 178Q183 131 186.5 84.5Q190 38 193.5 -10.5Q197 -59 197 -116ZM190 500V351H59V500Z" glyph-name="exclamdown" horiz-adv-x="249" unicode="&#161;" /><glyph d="M197 0H52V114Q52 176 55.5 227.5Q59 279 63 327Q67 375 70.5 424Q74 473 74 529H176Q176 473 179.5 424Q183 375 186.5 327Q190 279 193.5 227.5Q197 176 197 114ZM190 750V601H59V750Z" glyph-name="exclamdown.cap" horiz-adv-x="249" /><glyph d="M231 384V0H102V384H23V500H102V570Q102 657 152.5 708Q203 759 290 759Q330 759 359.5 751.5Q389 744 412 730L382 625Q355 643 313 643Q273 643 252 620.5Q231 598 231 556V500H383V384Z" glyph-name="f" horiz-adv-x="401" unicode="f" /><glyph d="M231 384V0H102V384H23V500H102V570Q102 657 152.5 708Q203 759 290 759Q330 759 359.5 751.5Q389 744 412 730L382 625Q355 643 313 643Q273 643 252 620.5Q231 598 231 556V500H383V384ZM590 158Q590 108 640 108Q648 108 652 108.5Q656 109 660 110L662 -4Q642 -9 615 -9Q461 -9 461 146V500H590Z" glyph-name="f_dotlessi" horiz-adv-x="690" /><glyph d="M231 384V0H102V384H23V500H102V570Q102 657 152.5 708Q203 759 290 759Q330 759 359.5 751.5Q389 744 412 730L382 625Q355 643 313 643Q273 643 252 620.5Q231 598 231 556V500H383V384ZM177 977H306V823H177Z" glyph-name="fdotaccent" horiz-adv-x="401" unicode="&#7711;" /><glyph d="M231 384V0H102V384H23V500H102V570Q102 657 152.5 708Q203 759 290 759Q330 759 359.5 751.5Q389 744 412 730L382 625Q355 643 313 643Q273 643 252 620.5Q231 598 231 556V500H383V384ZM461 741H590V586H461ZM590 158Q590 108 640 108Q648 108 652 108.5Q656 109 660 110L662 -4Q642 -9 615 -9Q461 -9 461 146V500H590Z" glyph-name="fi" horiz-adv-x="690" unicode="&#64257;" /><glyph d="M243 430H38V498H103V682H35V750H178V498H243ZM503 750V682H390V637Q407 647 425 647Q465 647 490.5 616.5Q516 586 516 538Q516 484 486 455Q456 426 406 426Q341 426 305 462L339 516Q350 506 364.5 500Q379 494 397 494Q417 494 429 505.5Q441 517 441 538Q441 557 430 568Q419 579 400 579Q372 579 355 556H318V750ZM863 750 427 0H337L773 750ZM893 0H688V68H753V252H685V320H828V68H893ZM1151 256Q1103 252 1077 238Q1051 224 1040 195Q1060 217 1088 217Q1126 217 1147 188Q1168 159 1168 107Q1168 53 1141.5 24.5Q1115 -4 1067 -4Q1014 -4 987 32.5Q960 69 960 139Q960 227 1007 274Q1054 321 1145 324ZM1066 147Q1044 147 1032 119Q1037 64 1065 64Q1093 64 1093 107Q1093 127 1087 137Q1081 147 1066 147Z" glyph-name="fifteensixteenths" horiz-adv-x="1200" /><glyph d="M43 357H507V244H43Z" glyph-name="figuredash" horiz-adv-x="550" unicode="&#8210;" /><glyph d="M43 432H507V319H43Z" glyph-name="figuredash.cap" horiz-adv-x="550" /><glyph glyph-name="figurespace" horiz-adv-x="550" unicode="&#8199;" /><glyph d="M479 750V626H193V471Q215 482 239.5 489Q264 496 288 496Q339 496 380.5 478.5Q422 461 451 429Q480 397 495.5 351Q511 305 511 248Q511 190 492.5 143Q474 96 440 62Q406 28 358 9.5Q310 -9 251 -9Q179 -9 125.5 12.5Q72 34 30 76L97 178Q126 149 163 132.5Q200 116 247 116Q275 116 299 125.5Q323 135 340 152Q357 169 367 192.5Q377 216 377 244Q377 303 342 337.5Q307 372 247 372Q215 372 186 360Q157 348 138 325H61V750Z" glyph-name="five" horiz-adv-x="550" unicode="5" /><glyph d="M228 120V52H115V7Q132 17 150 17Q190 17 215.5 -13.5Q241 -44 241 -92Q241 -146 211 -175Q181 -204 131 -204Q66 -204 30 -168L64 -114Q75 -124 89.5 -130Q104 -136 122 -136Q142 -136 154 -124.5Q166 -113 166 -92Q166 -73 155 -62Q144 -51 125 -51Q97 -51 80 -74H43V120Z" glyph-name="five.inf" horiz-adv-x="275" /><glyph d="M228 750V682H115V637Q132 647 150 647Q190 647 215.5 616.5Q241 586 241 538Q241 484 211 455Q181 426 131 426Q66 426 30 462L64 516Q75 506 89.5 500Q104 494 122 494Q142 494 154 505.5Q166 517 166 538Q166 557 155 568Q144 579 125 579Q97 579 80 556H43V750ZM588 750 152 0H62L498 750ZM618 0H413V68H478V252H410V320H553V68H618ZM876 256Q828 252 802 238Q776 224 765 195Q785 217 813 217Q851 217 872 188Q893 159 893 107Q893 53 866.5 24.5Q840 -4 792 -4Q739 -4 712 32.5Q685 69 685 139Q685 227 732 274Q779 321 870 324ZM791 147Q769 147 757 119Q762 64 790 64Q818 64 818 107Q818 127 812 137Q806 147 791 147Z" glyph-name="fivesixteenths" horiz-adv-x="925" /><glyph d="M231 384V0H102V384H23V500H102V570Q102 657 152.5 708Q203 759 290 759Q330 759 359.5 751.5Q389 744 412 730L382 625Q355 643 313 643Q273 643 252 620.5Q231 598 231 556V500H383V384ZM590 158Q590 108 640 108Q648 108 652 108.5Q656 109 660 110L662 -4Q642 -9 615 -9Q461 -9 461 146V750H590Z" glyph-name="fl" horiz-adv-x="690" unicode="&#64258;" /><glyph d="M516 132H441V0H306V132H34V232L206 750H346L175 256H306V450H441V256H516Z" glyph-name="four" horiz-adv-x="550" unicode="4" /><glyph d="M245 -152H216V-200H147V-152H30V-98L99 120H176L107 -85H147V-21H216V-85H245Z" glyph-name="four.inf" horiz-adv-x="275" /><glyph glyph-name="fourperemspace" horiz-adv-x="250" unicode="&#8197;" /><glyph d="M313 750 -123 0H-213L223 750Z" glyph-name="fraction" horiz-adv-x="100" unicode="&#8260;" /><glyph d="M38 250Q38 310 51 357.5Q64 405 88 439Q112 473 146 491Q180 509 222 509Q330 509 373 416V500H494V10Q494 -96 431.5 -152.5Q369 -209 244 -209Q184 -209 134.5 -198Q85 -187 41 -162L73 -48Q118 -73 158.5 -83Q199 -93 240 -93Q365 -93 365 20V68Q321 -9 222 -9Q180 -9 146 9.5Q112 28 88 61.5Q64 95 51 143Q38 191 38 250ZM266 393Q167 393 167 250Q167 108 266 108Q365 108 365 250Q365 393 266 393Z" glyph-name="g" horiz-adv-x="547" unicode="g" /><glyph d="M38 250Q38 310 51 357.5Q64 405 88 439Q112 473 146 491Q180 509 222 509Q330 509 373 416V500H494V10Q494 -96 431.5 -152.5Q369 -209 244 -209Q184 -209 134.5 -198Q85 -187 41 -162L73 -48Q118 -73 158.5 -83Q199 -93 240 -93Q365 -93 365 20V68Q321 -9 222 -9Q180 -9 146 9.5Q112 28 88 61.5Q64 95 51 143Q38 191 38 250ZM266 393Q167 393 167 250Q167 108 266 108Q365 108 365 250Q365 393 266 393ZM266 655Q304 655 326.5 678.5Q349 702 351 750H446Q443 664 394.5 614.5Q346 565 266 565Q186 565 137.5 614.5Q89 664 86 750H181Q183 702 205.5 678.5Q228 655 266 655Z" glyph-name="gbreve" horiz-adv-x="547" unicode="&#287;" /><glyph d="M38 250Q38 310 51 357.5Q64 405 88 439Q112 473 146 491Q180 509 222 509Q330 509 373 416V500H494V10Q494 -96 431.5 -152.5Q369 -209 244 -209Q184 -209 134.5 -198Q85 -187 41 -162L73 -48Q118 -73 158.5 -83Q199 -93 240 -93Q365 -93 365 20V68Q321 -9 222 -9Q180 -9 146 9.5Q112 28 88 61.5Q64 95 51 143Q38 191 38 250ZM266 393Q167 393 167 250Q167 108 266 108Q365 108 365 250Q365 393 266 393ZM455 576H344L266 667L188 576H77L216 750H316Z" glyph-name="gcircumflex" horiz-adv-x="547" unicode="&#285;" /><glyph d="M38 250Q38 310 51 357.5Q64 405 88 439Q112 473 146 491Q180 509 222 509Q330 509 373 416V500H494V10Q494 -96 431.5 -152.5Q369 -209 244 -209Q184 -209 134.5 -198Q85 -187 41 -162L73 -48Q118 -73 158.5 -83Q199 -93 240 -93Q365 -93 365 20V68Q321 -9 222 -9Q180 -9 146 9.5Q112 28 88 61.5Q64 95 51 143Q38 191 38 250ZM266 393Q167 393 167 250Q167 108 266 108Q365 108 365 250V257Q362 393 266 393ZM325 576H195V621Q195 641 198.5 658.5Q202 676 207 692L226 761L347 736L330 670Q325 652 325 632Z" glyph-name="gcommaaccent" horiz-adv-x="547" unicode="&#291;" /><glyph d="M38 250Q38 310 51 357.5Q64 405 88 439Q112 473 146 491Q180 509 222 509Q330 509 373 416V500H494V10Q494 -96 431.5 -152.5Q369 -209 244 -209Q184 -209 134.5 -198Q85 -187 41 -162L73 -48Q118 -73 158.5 -83Q199 -93 240 -93Q365 -93 365 20V68Q321 -9 222 -9Q180 -9 146 9.5Q112 28 88 61.5Q64 95 51 143Q38 191 38 250ZM266 393Q167 393 167 250Q167 108 266 108Q365 108 365 250Q365 393 266 393ZM202 741H331V586H202Z" glyph-name="gdotaccent" horiz-adv-x="547" unicode="&#289;" /><glyph d="M297 759Q348 759 389.5 746.5Q431 734 460.5 711.5Q490 689 506 657Q522 625 522 586Q522 541 502 512.5Q482 484 458.5 463.5Q435 443 415 427Q395 411 395 390Q395 374 405 363.5Q415 353 440 342L461 334Q527 306 556 266Q585 226 585 166Q585 127 571 95Q557 63 532 39.5Q507 16 472 3.5Q437 -9 394 -9Q308 -9 237 27L272 138Q328 107 374 107Q456 107 456 166Q456 208 401 233L380 241Q314 270 287 300Q260 330 260 376Q260 419 282 446Q304 473 330.5 493Q357 513 379 531Q401 549 401 574Q401 607 374.5 625Q348 643 297 643Q182 643 182 542V0H53V557Q53 603 70.5 640Q88 677 119.5 703.5Q151 730 196.5 744.5Q242 759 297 759Z" glyph-name="germandbls" horiz-adv-x="608" unicode="&#223;" /><glyph d="M85 750H227L315 576H191Z" glyph-name="grave" horiz-adv-x="500" unicode="`" /><glyph d="M85 986H227L315 814H191Z" glyph-name="grave.cap" horiz-adv-x="500" /><glyph d="M62 628 488 431V319L62 122V249L353 375L62 501Z" glyph-name="greater" horiz-adv-x="550" unicode="&gt;" /><glyph d="M62 658 488 495V401L62 239V356L321 448L62 540ZM62 73V191L488 354V236Z" glyph-name="greaterequal" horiz-adv-x="550" unicode="&#8805;" /><glyph d="M494 109 271 255V345L494 491V386L373 300L494 214ZM256 109 34 255V345L256 491V386L136 300L256 214Z" glyph-name="guillemotleft" horiz-adv-x="538" unicode="&#171;" /><glyph d="M494 184 271 330V420L494 566V461L373 375L494 289ZM256 184 34 330V420L256 566V461L136 375L256 289Z" glyph-name="guillemotleft.cap" horiz-adv-x="538" /><glyph d="M281 491 504 345V255L281 109V214L401 300L281 386ZM44 491 266 345V255L44 109V214L164 300L44 386Z" glyph-name="guillemotright" horiz-adv-x="538" unicode="&#187;" /><glyph d="M281 566 504 420V330L281 184V289L401 375L281 461ZM44 566 266 420V330L44 184V289L164 375L44 461Z" glyph-name="guillemotright.cap" horiz-adv-x="538" /><glyph d="M256 109 34 255V345L256 491V386L136 300L256 214Z" glyph-name="guilsinglleft" horiz-adv-x="300" unicode="&#8249;" /><glyph d="M256 184 34 330V420L256 566V461L136 375L256 289Z" glyph-name="guilsinglleft.cap" horiz-adv-x="300" /><glyph d="M44 491 266 345V255L44 109V214L164 300L44 386Z" glyph-name="guilsinglright" horiz-adv-x="300" unicode="&#8250;" /><glyph d="M44 566 266 420V330L44 184V289L164 375L44 461Z" glyph-name="guilsinglright.cap" horiz-adv-x="300" /><glyph d="M369 0V321Q369 355 347 374Q325 393 288 393Q242 393 212 357Q182 321 182 265V0H53V750H182V422Q234 509 343 509Q377 509 405.5 497.5Q434 486 454.5 465.5Q475 445 486.5 416.5Q498 388 498 354V0Z" glyph-name="h" horiz-adv-x="549" unicode="h" /><glyph glyph-name="hairspace" horiz-adv-x="10" unicode="&#8202;" /><glyph d="M369 0V321Q369 355 347 374Q325 393 288 393Q243 393 213.5 358.5Q184 324 182 270V0H53V576H-7V674H53V750H182V674H290V576H182V422Q234 509 343 509Q377 509 405.5 497.5Q434 486 454.5 465.5Q475 445 486.5 416.5Q498 388 498 354V0Z" glyph-name="hbar" horiz-adv-x="549" unicode="&#295;" /><glyph d="M307 814H196L118 905L40 814H-71L68 986H168ZM369 0V321Q369 355 347 374Q325 393 288 393Q242 393 212 357Q182 321 182 265V0H53V750H182V422Q234 509 343 509Q377 509 405.5 497.5Q434 486 454.5 465.5Q475 445 486.5 416.5Q498 388 498 354V0Z" glyph-name="hcircumflex" horiz-adv-x="549" unicode="&#293;" /><glyph d="M109 576 185 750H310L222 576ZM276 576 352 750H477L388 576Z" glyph-name="hungarumlaut" horiz-adv-x="500" unicode="&#733;" /><glyph d="M109 814 185 986H310L222 814ZM276 814 352 986H477L388 814Z" glyph-name="hungarumlaut.cap" horiz-adv-x="500" /><glyph d="M43 358H257V242H43Z" glyph-name="hyphen" horiz-adv-x="300" unicode="-" /><glyph d="M43 433H257V317H43Z" glyph-name="hyphen.cap" horiz-adv-x="300" /><glyph d="M60 741H189V586H60ZM189 158Q189 108 239 108Q247 108 251 108.5Q255 109 259 110L261 -4Q241 -9 214 -9Q60 -9 60 146V500H189Z" glyph-name="i" horiz-adv-x="289" unicode="i" /><glyph d="M189 158Q189 108 239 108Q247 108 251 108.5Q255 109 259 110L261 -4Q241 -9 214 -9Q60 -9 60 146V500H189ZM59 576 147 750H289L183 576Z" glyph-name="iacute" horiz-adv-x="289" unicode="&#237;" /><glyph d="M189 158Q189 108 239 108Q247 108 251 108.5Q255 109 259 110L261 -4Q241 -9 214 -9Q60 -9 60 146V500H189ZM124 655Q162 655 184.5 678.5Q207 702 209 750H304Q301 664 252.5 614.5Q204 565 124 565Q44 565 -4.5 614.5Q-53 664 -56 750H39Q41 702 63.5 678.5Q86 655 124 655Z" glyph-name="ibreve" horiz-adv-x="289" unicode="&#301;" /><glyph d="M189 158Q189 108 239 108Q247 108 251 108.5Q255 109 259 110L261 -4Q241 -9 214 -9Q60 -9 60 146V500H189ZM313 576H202L124 667L46 576H-65L74 750H174Z" glyph-name="icircumflex" horiz-adv-x="289" unicode="&#238;" /><glyph d="M189 158Q189 108 239 108Q247 108 251 108.5Q255 109 259 110L261 -4Q241 -9 214 -9Q60 -9 60 146V500H189ZM-42 741H87V586H-42ZM161 741H290V586H161Z" glyph-name="idieresis" horiz-adv-x="289" unicode="&#239;" /><glyph d="M189 158Q189 108 239 108Q247 108 251 108.5Q255 109 259 110L261 -4Q241 -9 214 -9Q60 -9 60 146V500H189ZM60 741H189V586H60Z" glyph-name="idotaccent" horiz-adv-x="289" /><glyph d="M189 158Q189 108 239 108Q247 108 251 108.5Q255 109 259 110L261 -4Q241 -9 214 -9Q60 -9 60 146V500H189ZM-41 750H101L189 576H65Z" glyph-name="igrave" horiz-adv-x="289" unicode="&#236;" /><glyph d="M60 741H189V586H60ZM189 150Q189 112 227 112Q233 112 236 112.5Q239 113 242 113L244 0Q236 -3 223 -4.5Q210 -6 197 -6Q60 -6 60 136V500H189ZM407 -33Q407 -84 390.5 -114Q374 -144 336 -166L254 -213L193 -102L245 -71Q263 -60 270.5 -44.5Q278 -29 278 -3V500H407ZM278 586V741H407V586Z" glyph-name="ij" horiz-adv-x="467" unicode="&#307;" /><glyph d="M189 158Q189 108 239 108Q247 108 251 108.5Q255 109 259 110L261 -4Q241 -9 214 -9Q60 -9 60 146V500H189ZM253 607H-5V719H253Z" glyph-name="imacron" horiz-adv-x="289" unicode="&#299;" /><glyph d="M250 672Q212 672 189.5 648Q167 624 165 576H70Q73 663 121.5 713Q170 763 250 763Q330 763 378.5 713Q427 663 430 576H335Q333 624 310.5 648Q288 672 250 672Z" glyph-name="invertedbreve" horiz-adv-x="500" /><glyph d="M250 908Q212 908 189.5 884Q167 860 165 814H70Q73 900 121.5 949.5Q170 999 250 999Q330 999 378.5 949.5Q427 900 430 814H335Q333 860 310.5 884Q288 908 250 908Z" glyph-name="invertedbreve.cap" horiz-adv-x="500" /><glyph d="M60 741H189V586H60ZM189 158Q189 108 239 108Q247 108 251 108.5Q255 109 259 110L261 -4Q241 -9 214 -9Q60 -9 60 146V500H189ZM218 -213Q160 -213 126 -183.5Q92 -154 92 -104Q92 -56 124.5 -17Q157 22 223 48L261 0Q222 -12 198.5 -36Q175 -60 175 -89Q175 -110 188.5 -122.5Q202 -135 227 -135Q259 -135 285 -112L323 -172Q285 -213 218 -213Z" glyph-name="iogonek" horiz-adv-x="289" unicode="&#303;" /><glyph d="M189 158Q189 108 239 108Q247 108 251 108.5Q255 109 259 110L261 -4Q241 -9 214 -9Q60 -9 60 146V500H189ZM319 726V705Q319 651 292 621Q265 591 216 591Q193 591 171 599Q149 607 123 621Q101 635 89.5 640Q78 645 67 645Q42 645 42 619V609H-47V620Q-47 675 -20 704.5Q7 734 56 734Q79 734 101 726Q123 718 149 704Q171 691 182.5 685.5Q194 680 205 680Q217 680 223.5 687.5Q230 695 230 707V726Z" glyph-name="itilde" horiz-adv-x="289" unicode="&#297;" /><glyph d="M189 -33Q189 -84 172.5 -114Q156 -144 117 -166L36 -213L-26 -102L26 -71Q45 -60 52.5 -44.5Q60 -29 60 -3V500H189ZM60 741H189V586H60Z" glyph-name="j" horiz-adv-x="249" unicode="j" /><glyph d="M189 -33Q189 -84 172.5 -114Q156 -144 117 -166L36 -213L-26 -102L26 -71Q45 -60 52.5 -44.5Q60 -29 60 -3V500H189ZM313 576H202L124 667L46 576H-65L74 750H174Z" glyph-name="jcircumflex" horiz-adv-x="249" unicode="&#309;" /><glyph d="M53 750H182V323H233L346 500H494L336 264L514 0H360L226 207H182V0H53Z" glyph-name="k" horiz-adv-x="527" unicode="k" /><glyph d="M53 750H182V323H233L346 500H494L336 264L514 0H360L226 207H182V0H53ZM198 -39H329V-83Q329 -103 325 -120.5Q321 -138 317 -154L301 -213L177 -198L194 -132Q196 -124 197 -114Q198 -104 198 -94Z" glyph-name="kcommaaccent" horiz-adv-x="527" unicode="&#311;" /><glyph d="M53 500H182V323H233L346 500H494L336 264L514 0H360L226 207H182V0H53Z" glyph-name="kgreenlandic" horiz-adv-x="527" unicode="&#312;" /><glyph d="M189 158Q189 108 239 108Q247 108 251 108.5Q255 109 259 110L261 -4Q241 -9 214 -9Q60 -9 60 146V750H189Z" glyph-name="l" horiz-adv-x="289" unicode="l" /><glyph d="M62 814 150 986H292L186 814ZM189 158Q189 108 239 108Q247 108 251 108.5Q255 109 259 110L261 -4Q241 -9 214 -9Q60 -9 60 146V750H189Z" glyph-name="lacute" horiz-adv-x="289" unicode="&#314;" /><glyph d="M189 158Q189 108 239 108Q247 108 251 108.5Q255 109 259 110L261 -4Q241 -9 214 -9Q60 -9 60 146V750H189ZM255 566 265 750H347L332 566Z" glyph-name="lcaron" horiz-adv-x="289" unicode="&#318;" /><glyph d="M189 158Q189 108 239 108Q247 108 251 108.5Q255 109 259 110L261 -4Q241 -9 214 -9Q60 -9 60 146V750H189ZM99 -39H230V-83Q230 -103 226 -120.5Q222 -138 218 -154L202 -213L78 -198L95 -132Q97 -124 98 -114Q99 -104 99 -94Z" glyph-name="lcommaaccent" horiz-adv-x="289" unicode="&#316;" /><glyph d="M189 158Q189 108 239 108Q247 108 251 108.5Q255 109 259 110L261 -4Q241 -9 214 -9Q60 -9 60 146V750H189ZM255 226V375H385V226Z" glyph-name="ldot" horiz-adv-x="389" unicode="&#320;" /><glyph d="M488 628V501L197 375L488 249V122L62 319V431Z" glyph-name="less" horiz-adv-x="550" unicode="&lt;" /><glyph d="M228 448 488 356V239L62 401V495L488 658V540ZM62 354 488 191V73L62 236Z" glyph-name="lessequal" horiz-adv-x="550" unicode="&#8804;" /><glyph d="M370 216V416H62V534H488V216Z" glyph-name="logicalnot" horiz-adv-x="550" unicode="&#172;" /><glyph d="M0 107H200V0H0Z" glyph-name="lowline" horiz-adv-x="200" /><glyph d="M217 158Q217 108 267 108Q275 108 279 108.5Q283 109 287 110L289 -4Q267 -9 242 -9Q88 -9 88 146V225L18 172V294L88 347V750H217V444L295 503V381L217 322Z" glyph-name="lslash" horiz-adv-x="315" unicode="&#322;" /><glyph d="M53 500H174V420Q196 462 231 485.5Q266 509 311 509Q363 509 395.5 487Q428 465 439 423Q462 463 497 486Q532 509 576 509Q642 509 676 474Q710 439 710 373V0H581V339Q581 362 565 377.5Q549 393 523 393Q449 393 446 302V0H317V339Q317 362 300.5 377.5Q284 393 258 393Q185 393 182 302V0H53Z" glyph-name="m" horiz-adv-x="761" unicode="m" /><glyph d="M379 607H121V719H379Z" glyph-name="macron" horiz-adv-x="500" unicode="&#175;" /><glyph d="M379 845H121V955H379Z" glyph-name="macron.cap" horiz-adv-x="500" /><glyph d="M53 500H174V420Q196 462 231 485.5Q266 509 311 509Q363 509 395.5 487Q428 465 439 423Q462 463 497 486Q532 509 576 509Q642 509 676 474Q710 439 710 373V0H581V339Q581 362 565 377.5Q549 393 523 393Q449 393 446 302V0H317V339Q317 362 300.5 377.5Q284 393 258 393Q185 393 182 302V0H53ZM318 741H447V586H318Z" glyph-name="mdotaccent" horiz-adv-x="761" unicode="&#7745;" /><glyph d="M62 434H488V316H62Z" glyph-name="minus" horiz-adv-x="550" unicode="&#8722;" /><glyph d="M37 -7H237V-73H37Z" glyph-name="minus.inf" horiz-adv-x="275" /><glyph d="M57 239 193 375 57 511 139 593 275 457 411 593 493 511 357 375 493 239 411 157 275 293 139 157Z" glyph-name="multiply" horiz-adv-x="550" unicode="&#215;" /><glyph d="M369 0V321Q369 355 347 374Q325 393 288 393Q243 393 213.5 358.5Q184 324 182 270V0H53V500H174V408Q198 457 241 483Q284 509 343 509Q377 509 405.5 497.5Q434 486 454.5 465.5Q475 445 486.5 416.5Q498 388 498 354V0Z" glyph-name="n" horiz-adv-x="549" unicode="n" /><glyph d="M369 0V321Q369 355 347 374Q325 393 288 393Q243 393 213.5 358.5Q184 324 182 270V0H53V500H174V408Q198 457 241 483Q284 509 343 509Q377 509 405.5 497.5Q434 486 454.5 465.5Q475 445 486.5 416.5Q498 388 498 354V0ZM210 576 298 750H440L334 576Z" glyph-name="nacute" horiz-adv-x="549" unicode="&#324;" /><glyph d="M369 0V321Q369 355 347 374Q325 393 288 393Q243 393 213.5 358.5Q184 324 182 270V0H53V500H174V408Q198 457 241 483Q284 509 343 509Q377 509 405.5 497.5Q434 486 454.5 465.5Q475 445 486.5 416.5Q498 388 498 354V0ZM86 750H197L275 659L353 750H464L325 576H225Z" glyph-name="ncaron" horiz-adv-x="549" unicode="&#328;" /><glyph d="M369 0V321Q369 355 347 374Q325 393 288 393Q243 393 213.5 358.5Q184 324 182 270V0H53V500H174V408Q198 457 241 483Q284 509 343 509Q377 509 405.5 497.5Q434 486 454.5 465.5Q475 445 486.5 416.5Q498 388 498 354V0ZM209 -39H340V-83Q340 -103 336 -120.5Q332 -138 328 -154L312 -213L188 -198L205 -132Q207 -124 208 -114Q209 -104 209 -94Z" glyph-name="ncommaaccent" horiz-adv-x="549" unicode="&#326;" /><glyph d="M80 117Q200 129 267 172.5Q334 216 359 301Q304 254 233 254Q139 254 87.5 319.5Q36 385 36 505Q36 624 97.5 691.5Q159 759 267 759Q386 759 447.5 674Q509 589 509 425Q509 228 401 115.5Q293 3 91 -9ZM264 382Q297 382 326 400.5Q355 419 374 451Q368 634 267 634Q221 634 196 601Q171 568 171 505Q171 441 193 411.5Q215 382 264 382Z" glyph-name="nine" horiz-adv-x="550" unicode="9" /><glyph d="M48 -135Q96 -131 122 -117.5Q148 -104 159 -75Q137 -97 110 -97Q74 -97 53 -67.5Q32 -38 32 14Q32 67 58 95.5Q84 124 132 124Q185 124 212.5 87.5Q240 51 240 -19Q240 -106 192.5 -153.5Q145 -201 54 -204ZM133 -27Q154 -27 166 1Q161 57 134 57Q106 57 106 14Q106 -7 112 -17Q118 -27 133 -27Z" glyph-name="nine.inf" horiz-adv-x="275" /><glyph d="M48 495Q96 499 122 512Q148 525 159 554Q138 533 110 533Q74 533 53 562.5Q32 592 32 644Q32 697 58 725.5Q84 754 132 754Q185 754 212.5 717.5Q240 681 240 611Q240 524 192.5 476.5Q145 429 54 426ZM133 603Q155 603 166 631Q161 687 134 687Q106 687 106 644Q106 623 112 613Q118 603 133 603ZM588 750 152 0H62L498 750ZM618 0H413V68H478V252H410V320H553V68H618ZM876 256Q828 252 802 238Q776 224 765 195Q785 217 813 217Q851 217 872 188Q893 159 893 107Q893 53 866.5 24.5Q840 -4 792 -4Q739 -4 712 32.5Q685 69 685 139Q685 227 732 274Q779 321 870 324ZM791 147Q769 147 757 119Q762 64 790 64Q818 64 818 107Q818 127 812 137Q806 147 791 147Z" glyph-name="ninesixteenths" horiz-adv-x="925" /><glyph glyph-name="nonbreakingspace" horiz-adv-x="200" unicode="&#160;" /><glyph glyph-name="nonmarkingreturn" horiz-adv-x="250" unicode="" /><glyph d="M62 534H314L372 635L452 590L419 534H488V416H351L304 334H488V216H236L178 115L98 160L130 216H62V334H198L246 416H62Z" glyph-name="notequal" horiz-adv-x="550" unicode="&#8800;" /><glyph d="M369 0V321Q369 355 347 374Q325 393 288 393Q243 393 213.5 358.5Q184 324 182 270V0H53V500H174V408Q198 457 241 483Q284 509 343 509Q377 509 405.5 497.5Q434 486 454.5 465.5Q475 445 486.5 416.5Q498 388 498 354V0ZM458 726V705Q458 651 431 621Q404 591 355 591Q332 591 310 599Q288 607 262 621Q240 635 228.5 640Q217 645 206 645Q181 645 181 619V609H92V620Q92 675 119 704.5Q146 734 195 734Q218 734 240 726Q262 718 288 704Q310 691 321.5 685.5Q333 680 344 680Q356 680 362.5 687.5Q369 695 369 707V726Z" glyph-name="ntilde" horiz-adv-x="549" unicode="&#241;" /><glyph d="M424 409V341H515V226H424V0H309V226H241V0H126V226H35V341H126V409H35V524H126V750H241V524H309V750H424V524H515V409ZM241 341H309V409H241Z" glyph-name="numbersign" horiz-adv-x="550" unicode="#" /><glyph d="M167 250Q167 181 192.5 144.5Q218 108 265 108Q311 108 336.5 144.5Q362 181 362 250Q362 319 336.5 356Q311 393 265 393Q218 393 192.5 356Q167 319 167 250ZM38 250Q38 310 54 358Q70 406 99.5 439.5Q129 473 171 491Q213 509 265 509Q317 509 358.5 491Q400 473 429.5 439.5Q459 406 475 358Q491 310 491 250Q491 190 475 142Q459 94 429.5 60.5Q400 27 358.5 9Q317 -9 265 -9Q213 -9 171 9Q129 27 99.5 60.5Q70 94 54 142Q38 190 38 250Z" glyph-name="o" horiz-adv-x="529" unicode="o" /><glyph d="M167 250Q167 181 192.5 144.5Q218 108 265 108Q311 108 336.5 144.5Q362 181 362 250Q362 319 336.5 356Q311 393 265 393Q218 393 192.5 356Q167 319 167 250ZM38 250Q38 310 54 358Q70 406 99.5 439.5Q129 473 171 491Q213 509 265 509Q317 509 358.5 491Q400 473 429.5 439.5Q459 406 475 358Q491 310 491 250Q491 190 475 142Q459 94 429.5 60.5Q400 27 358.5 9Q317 -9 265 -9Q213 -9 171 9Q129 27 99.5 60.5Q70 94 54 142Q38 190 38 250ZM200 576 288 750H430L324 576Z" glyph-name="oacute" horiz-adv-x="529" unicode="&#243;" /><glyph d="M167 250Q167 181 192.5 144.5Q218 108 265 108Q311 108 336.5 144.5Q362 181 362 250Q362 319 336.5 356Q311 393 265 393Q218 393 192.5 356Q167 319 167 250ZM38 250Q38 310 54 358Q70 406 99.5 439.5Q129 473 171 491Q213 509 265 509Q317 509 358.5 491Q400 473 429.5 439.5Q459 406 475 358Q491 310 491 250Q491 190 475 142Q459 94 429.5 60.5Q400 27 358.5 9Q317 -9 265 -9Q213 -9 171 9Q129 27 99.5 60.5Q70 94 54 142Q38 190 38 250ZM265 655Q303 655 325.5 678.5Q348 702 350 750H445Q442 664 393.5 614.5Q345 565 265 565Q185 565 136.5 614.5Q88 664 85 750H180Q182 702 204.5 678.5Q227 655 265 655Z" glyph-name="obreve" horiz-adv-x="529" unicode="&#335;" /><glyph d="M167 250Q167 181 192.5 144.5Q218 108 265 108Q311 108 336.5 144.5Q362 181 362 250Q362 319 336.5 356Q311 393 265 393Q218 393 192.5 356Q167 319 167 250ZM38 250Q38 310 54 358Q70 406 99.5 439.5Q129 473 171 491Q213 509 265 509Q317 509 358.5 491Q400 473 429.5 439.5Q459 406 475 358Q491 310 491 250Q491 190 475 142Q459 94 429.5 60.5Q400 27 358.5 9Q317 -9 265 -9Q213 -9 171 9Q129 27 99.5 60.5Q70 94 54 142Q38 190 38 250ZM454 576H343L265 667L187 576H76L215 750H315Z" glyph-name="ocircumflex" horiz-adv-x="529" unicode="&#244;" /><glyph d="M167 250Q167 181 192.5 144.5Q218 108 265 108Q311 108 336.5 144.5Q362 181 362 250Q362 319 336.5 356Q311 393 265 393Q218 393 192.5 356Q167 319 167 250ZM38 250Q38 310 54 358Q70 406 99.5 439.5Q129 473 171 491Q213 509 265 509Q317 509 358.5 491Q400 473 429.5 439.5Q459 406 475 358Q491 310 491 250Q491 190 475 142Q459 94 429.5 60.5Q400 27 358.5 9Q317 -9 265 -9Q213 -9 171 9Q129 27 99.5 60.5Q70 94 54 142Q38 190 38 250ZM99 741H228V586H99ZM302 741H431V586H302Z" glyph-name="odieresis" horiz-adv-x="529" unicode="&#246;" /><glyph d="M617 -9Q548 -9 501.5 13Q455 35 428 77Q403 35 363 13Q323 -9 265 -9Q213 -9 171 9Q129 27 99.5 60.5Q70 94 54 142Q38 190 38 250Q38 310 54 358Q70 406 99.5 439.5Q129 473 171 491Q213 509 265 509Q321 509 360.5 488Q400 467 424 428Q447 467 486 488Q525 509 582 509Q688 509 744.5 442Q801 375 801 250V199H495Q505 151 537 129.5Q569 108 629 108Q674 108 701 118.5Q728 129 748 142L797 37Q762 14 718 2.5Q674 -9 617 -9ZM167 250Q167 181 192.5 144.5Q218 108 265 108Q311 108 336.5 144.5Q362 181 362 250Q362 319 336.5 356Q311 393 265 393Q218 393 192.5 356Q167 319 167 250ZM582 400Q543 400 521.5 376Q500 352 493 301H670Q664 352 642 376Q620 400 582 400Z" glyph-name="oe" horiz-adv-x="839" unicode="&#339;" /><glyph d="M207 -213Q149 -213 115 -183.5Q81 -154 81 -104Q81 -56 113.5 -17Q146 22 212 48L250 0Q211 -12 187.5 -36Q164 -60 164 -89Q164 -110 177.5 -122.5Q191 -135 216 -135Q248 -135 274 -112L312 -172Q274 -213 207 -213Z" glyph-name="ogonek" horiz-adv-x="500" unicode="&#731;" /><glyph d="M167 250Q167 181 192.5 144.5Q218 108 265 108Q311 108 336.5 144.5Q362 181 362 250Q362 319 336.5 356Q311 393 265 393Q218 393 192.5 356Q167 319 167 250ZM38 250Q38 310 54 358Q70 406 99.5 439.5Q129 473 171 491Q213 509 265 509Q317 509 358.5 491Q400 473 429.5 439.5Q459 406 475 358Q491 310 491 250Q491 190 475 142Q459 94 429.5 60.5Q400 27 358.5 9Q317 -9 265 -9Q213 -9 171 9Q129 27 99.5 60.5Q70 94 54 142Q38 190 38 250ZM100 750H242L330 576H206Z" glyph-name="ograve" horiz-adv-x="529" unicode="&#242;" /><glyph d="M167 250Q167 181 192.5 144.5Q218 108 265 108Q311 108 336.5 144.5Q362 181 362 250Q362 319 336.5 356Q311 393 265 393Q218 393 192.5 356Q167 319 167 250ZM38 250Q38 310 54 358Q70 406 99.5 439.5Q129 473 171 491Q213 509 265 509Q317 509 358.5 491Q400 473 429.5 439.5Q459 406 475 358Q491 310 491 250Q491 190 475 142Q459 94 429.5 60.5Q400 27 358.5 9Q317 -9 265 -9Q213 -9 171 9Q129 27 99.5 60.5Q70 94 54 142Q38 190 38 250ZM124 576 200 750H325L237 576ZM291 576 367 750H492L403 576Z" glyph-name="ohungarumlaut" horiz-adv-x="529" unicode="&#337;" /><glyph d="M167 250Q167 181 192.5 144.5Q218 108 265 108Q311 108 336.5 144.5Q362 181 362 250Q362 319 336.5 356Q311 393 265 393Q218 393 192.5 356Q167 319 167 250ZM38 250Q38 310 54 358Q70 406 99.5 439.5Q129 473 171 491Q213 509 265 509Q317 509 358.5 491Q400 473 429.5 439.5Q459 406 475 358Q491 310 491 250Q491 190 475 142Q459 94 429.5 60.5Q400 27 358.5 9Q317 -9 265 -9Q213 -9 171 9Q129 27 99.5 60.5Q70 94 54 142Q38 190 38 250ZM394 607H136V719H394Z" glyph-name="omacron" horiz-adv-x="529" unicode="&#333;" /><glyph d="M513 0H66V124H221V626H48V750H356V124H513Z" glyph-name="one" horiz-adv-x="550" unicode="1" /><glyph d="M243 -200H38V-132H103V52H35V120H178V-132H243Z" glyph-name="one.inf" horiz-adv-x="275" /><glyph d="M243 430H38V498H103V682H35V750H178V498H243ZM588 750 152 0H62L498 750ZM618 0H407V59L508 160Q525 177 532 190.5Q539 204 539 220Q539 237 528 247Q517 257 499 257Q484 257 470.5 249.5Q457 242 444 230L408 285Q446 324 505 324Q556 324 584.5 297.5Q613 271 613 225Q613 194 598.5 167Q584 140 547 104L511 68H618Z" glyph-name="onehalf" horiz-adv-x="650" unicode="&#189;" /><glyph d="M243 430H38V498H103V682H35V750H178V498H243ZM588 750 152 0H62L498 750ZM620 48H591V0H522V48H405V102L474 320H551L482 115H522V179H591V115H620Z" glyph-name="onequarter" horiz-adv-x="650" unicode="&#188;" /><glyph d="M243 430H38V498H103V682H35V750H178V498H243ZM588 750 152 0H62L498 750ZM618 0H413V68H478V252H410V320H553V68H618ZM876 256Q828 252 802 238Q776 224 765 195Q785 217 813 217Q851 217 872 188Q893 159 893 107Q893 53 866.5 24.5Q840 -4 792 -4Q739 -4 712 32.5Q685 69 685 139Q685 227 732 274Q779 321 870 324ZM791 147Q769 147 757 119Q762 64 790 64Q818 64 818 107Q818 127 812 137Q806 147 791 147Z" glyph-name="onesixteenth" horiz-adv-x="925" /><glyph d="M243 430H38V498H103V682H35V750H178V498H243Z" glyph-name="onesuperior" horiz-adv-x="275" unicode="&#185;" /><glyph d="M43 358H290V242H43Z" glyph-name="onethirdemdash" horiz-adv-x="333" /><glyph d="M43 433H290V317H43Z" glyph-name="onethirdemdash.cap" horiz-adv-x="333" /><glyph d="M241 417V483Q224 449 196 430Q168 411 130 411Q87 411 61 436Q35 461 35 502Q35 537 50.5 559Q66 581 101 601L208 663Q188 673 163 673Q132 673 106.5 662.5Q81 652 67 644L42 728Q95 759 170 759Q248 759 289 721.5Q330 684 330 614V417ZM330 222H50V322H330ZM156 496Q187 496 210 520Q233 544 235 578V594L148 543Q130 533 130 516Q130 508 137 502Q144 496 156 496Z" glyph-name="ordfeminine" horiz-adv-x="376" unicode="&#170;" /><glyph d="M336 322V222H55V322ZM352 585Q352 505 309.5 458Q267 411 195 411Q123 411 81 458Q39 505 39 585Q39 665 81 712Q123 759 195 759Q267 759 309.5 712Q352 665 352 585ZM134 585Q134 543 150 519.5Q166 496 195 496Q224 496 240 519.5Q256 543 256 585Q256 627 240 650Q224 673 195 673Q166 673 150 650Q134 627 134 585Z" glyph-name="ordmasculine" horiz-adv-x="391" unicode="&#186;" /><glyph d="M32 42 76 92Q38 156 38 250Q38 310 54 358Q70 406 99.5 439.5Q129 473 171 491Q213 509 265 509Q306 509 340.5 497.5Q375 486 402 465L441 509L498 458L453 407Q491 343 491 250Q491 190 475 142Q459 94 429.5 60.5Q400 27 358.5 9Q317 -9 265 -9Q182 -9 127 34L89 -9ZM167 250Q167 221 171 201L321 372Q299 393 265 393Q218 393 192.5 356Q167 319 167 250ZM362 250Q362 263 361 275Q360 287 358 298L208 127Q232 108 265 108Q311 108 336.5 144.5Q362 181 362 250Z" glyph-name="oslash" horiz-adv-x="529" unicode="&#248;" /><glyph d="M167 250Q167 181 192.5 144.5Q218 108 265 108Q311 108 336.5 144.5Q362 181 362 250Q362 319 336.5 356Q311 393 265 393Q218 393 192.5 356Q167 319 167 250ZM38 250Q38 310 54 358Q70 406 99.5 439.5Q129 473 171 491Q213 509 265 509Q317 509 358.5 491Q400 473 429.5 439.5Q459 406 475 358Q491 310 491 250Q491 190 475 142Q459 94 429.5 60.5Q400 27 358.5 9Q317 -9 265 -9Q213 -9 171 9Q129 27 99.5 60.5Q70 94 54 142Q38 190 38 250ZM448 726V705Q448 651 421 621Q394 591 345 591Q322 591 300 599Q278 607 252 621Q230 635 218.5 640Q207 645 196 645Q171 645 171 619V609H82V620Q82 675 109 704.5Q136 734 185 734Q208 734 230 726Q252 718 278 704Q300 691 311.5 685.5Q323 680 334 680Q346 680 352.5 687.5Q359 695 359 707V726Z" glyph-name="otilde" horiz-adv-x="529" unicode="&#245;" /><glyph d="M53 500H174V416Q218 509 325 509Q367 509 401 491Q435 473 459 439Q483 405 496 357.5Q509 310 509 250Q509 191 496 143Q483 95 459 61.5Q435 28 401 9.5Q367 -9 325 -9Q225 -9 182 68V-200H53ZM281 393Q184 393 182 257V250Q182 108 281 108Q380 108 380 250Q380 393 281 393Z" glyph-name="p" horiz-adv-x="547" unicode="p" /><glyph d="M590 -50H463V627H418V-50H291V285H250Q201 285 161 301.5Q121 318 93.5 348.5Q66 379 51 422Q36 465 36 517Q36 570 51 613Q66 656 93.5 686.5Q121 717 161 733.5Q201 750 250 750H590ZM165 517Q165 464 190 436Q215 408 262 408H291V627H262Q215 627 190 598.5Q165 570 165 517Z" glyph-name="paragraph" horiz-adv-x="644" unicode="&#182;" /><glyph d="M172 325Q172 83 326 -100H183Q150 -63 123 -14Q96 35 76.5 91Q57 147 46.5 207Q36 267 36 325Q36 383 46.5 443Q57 503 76.5 559Q96 615 123 664Q150 713 183 750H326Q172 567 172 325Z" glyph-name="parenleft" horiz-adv-x="342" unicode="(" /><glyph d="M172 375Q172 162 293 0H150Q124 36 103 80.5Q82 125 67 173.5Q52 222 44 273.5Q36 325 36 375Q36 425 44 476.5Q52 528 67 576.5Q82 625 103 669.5Q124 714 150 750H293Q172 588 172 375Z" glyph-name="parenleft.cap" horiz-adv-x="342" /><glyph d="M125 -40Q125 -92 142 -136Q159 -180 192 -220H117Q88 -188 71 -139Q54 -90 54 -40Q54 11 71 59.5Q88 108 117 140H192Q159 100 142 56Q125 12 125 -40Z" glyph-name="parenleft.inf" horiz-adv-x="275" /><glyph d="M170 325Q170 567 16 750H159Q192 713 219 664Q246 615 265.5 559Q285 503 295.5 443Q306 383 306 325Q306 267 295.5 207Q285 147 265.5 91Q246 35 219 -14Q192 -63 159 -100H16Q170 83 170 325Z" glyph-name="parenright" horiz-adv-x="342" unicode=")" /><glyph d="M170 375Q170 588 49 750H192Q218 714 239 669.5Q260 625 275 576.5Q290 528 298 476.5Q306 425 306 375Q306 325 298 273.5Q290 222 275 173.5Q260 125 239 80.5Q218 36 192 0H49Q170 162 170 375Z" glyph-name="parenright.cap" horiz-adv-x="342" /><glyph d="M150 -40Q150 12 133 56Q116 100 83 140H158Q187 108 204 59Q221 10 221 -40Q221 -91 204 -139.5Q187 -188 158 -220H83Q116 -180 133 -136Q150 -92 150 -40Z" glyph-name="parenright.inf" horiz-adv-x="275" /><glyph d="M53 500H174V416Q218 509 325 509Q367 509 401 491Q435 473 459 439Q483 405 496 357.5Q509 310 509 250Q509 191 496 143Q483 95 459 61.5Q435 28 401 9.5Q367 -9 325 -9Q225 -9 182 68V-200H53ZM281 393Q184 393 182 257V250Q182 108 281 108Q380 108 380 250Q380 393 281 393ZM217 741H346V586H217Z" glyph-name="pdotaccent" horiz-adv-x="547" unicode="&#7767;" /><glyph d="M231 761Q272 761 306.5 747Q341 733 366 708Q391 683 405 648.5Q419 614 419 573Q419 532 405 497.5Q391 463 366 438Q341 413 306.5 399Q272 385 231 385Q190 385 155.5 399Q121 413 96 438Q71 463 57 497.5Q43 532 43 573Q43 614 57 648.5Q71 683 96 708Q121 733 155.5 747Q190 761 231 761ZM157 573Q157 536 176.5 515Q196 494 231 494Q266 494 285.5 515Q305 536 305 573Q305 609 285.5 630.5Q266 652 231 652Q196 652 176.5 630.5Q157 609 157 573ZM312 0H178L628 750H762ZM521 177Q521 218 535 252.5Q549 287 574 312Q599 337 633.5 351Q668 365 709 365Q750 365 784.5 351Q819 337 844 312Q869 287 883 252.5Q897 218 897 177Q897 136 883 101.5Q869 67 844 42Q819 17 784.5 3Q750 -11 709 -11Q668 -11 633.5 3Q599 17 574 42Q549 67 535 101.5Q521 136 521 177ZM783 177Q783 214 763.5 235Q744 256 709 256Q674 256 654.5 235Q635 214 635 177Q635 141 654.5 119.5Q674 98 709 98Q744 98 763.5 119.5Q783 141 783 177Z" glyph-name="percent" horiz-adv-x="940" unicode="%" /><glyph d="M59 0V149H190V0Z" glyph-name="period" horiz-adv-x="249" unicode="." /><glyph d="M59 226V375H190V226Z" glyph-name="periodcentered" horiz-adv-x="249" unicode="&#183;" /><glyph d="M59 301V450H190V301Z" glyph-name="periodcentered.cap" horiz-adv-x="249" /><glyph d="M231 761Q272 761 306.5 747Q341 733 366 708Q391 683 405 648.5Q419 614 419 573Q419 532 405 497.5Q391 463 366 438Q341 413 306.5 399Q272 385 231 385Q190 385 155.5 399Q121 413 96 438Q71 463 57 497.5Q43 532 43 573Q43 614 57 648.5Q71 683 96 708Q121 733 155.5 747Q190 761 231 761ZM157 573Q157 536 176.5 515Q196 494 231 494Q266 494 285.5 515Q305 536 305 573Q305 609 285.5 630.5Q266 652 231 652Q196 652 176.5 630.5Q157 609 157 573ZM312 0H178L628 750H762ZM521 177Q521 218 535 252.5Q549 287 574 312Q599 337 633.5 351Q668 365 709 365Q750 365 784.5 351Q819 337 844 312Q869 287 883 252.5Q897 218 897 177Q897 136 883 101.5Q869 67 844 42Q819 17 784.5 3Q750 -11 709 -11Q668 -11 633.5 3Q599 17 574 42Q549 67 535 101.5Q521 136 521 177ZM783 177Q783 214 763.5 235Q744 256 709 256Q674 256 654.5 235Q635 214 635 177Q635 141 654.5 119.5Q674 98 709 98Q744 98 763.5 119.5Q783 141 783 177ZM1195 177Q1195 214 1175.5 235Q1156 256 1121 256Q1086 256 1066.5 235Q1047 214 1047 177Q1047 141 1066.5 119.5Q1086 98 1121 98Q1156 98 1175.5 119.5Q1195 141 1195 177ZM933 177Q933 218 947 252.5Q961 287 986 312Q1011 337 1045.5 351Q1080 365 1121 365Q1162 365 1196.5 351Q1231 337 1256 312Q1281 287 1295 252.5Q1309 218 1309 177Q1309 136 1295 101.5Q1281 67 1256 42Q1231 17 1196.5 3Q1162 -11 1121 -11Q1080 -11 1045.5 3Q1011 17 986 42Q961 67 947 101.5Q933 136 933 177Z" glyph-name="perthousand" horiz-adv-x="1352" unicode="&#8240;" /><glyph d="M62 434H216V588H334V434H488V316H334V162H216V316H62Z" glyph-name="plus" horiz-adv-x="550" unicode="+" /><glyph d="M37 -7H104V60H170V-7H237V-73H170V-140H104V-73H37Z" glyph-name="plus.inf" horiz-adv-x="275" /><glyph d="M62 534H216V641H334V534H488V416H334V309H216V416H62ZM62 234H488V116H62Z" glyph-name="plusminus" horiz-adv-x="550" unicode="&#177;" /><glyph glyph-name="punctuationspace" horiz-adv-x="200" unicode="&#8200;" /><glyph d="M38 250Q38 310 51 357.5Q64 405 88 439Q112 473 146 491Q180 509 222 509Q330 509 373 416V500H494V-200H365V68Q321 -9 222 -9Q180 -9 146 9.5Q112 28 88 61.5Q64 95 51 143Q38 191 38 250ZM266 393Q167 393 167 250Q167 108 266 108Q365 108 365 250V257Q362 393 266 393Z" glyph-name="q" horiz-adv-x="547" unicode="q" /><glyph d="M208 759Q261 759 303 744.5Q345 730 373.5 704Q402 678 417 642Q432 606 432 562Q432 518 420 486.5Q408 455 389.5 431Q371 407 350 386.5Q329 366 310.5 343Q292 320 280 291Q268 262 268 221H159Q159 296 180.5 344.5Q202 393 227.5 428.5Q253 464 274.5 492Q296 520 296 554Q296 593 271 612.5Q246 632 201 632Q158 632 124 618Q90 604 61 585L32 710Q64 731 104 745Q144 759 208 759ZM148 0V149H280V0Z" glyph-name="question" horiz-adv-x="468" unicode="?" /><glyph d="M260 -209Q207 -209 165.5 -194.5Q124 -180 95.5 -154.5Q67 -129 52 -94Q37 -59 37 -17Q37 24 49 52.5Q61 81 79 103.5Q97 126 118.5 144Q140 162 158 181.5Q176 201 188 224Q200 247 200 279H309Q309 218 288 175.5Q267 133 241.5 101.5Q216 70 194.5 44Q173 18 173 -10Q173 -45 197.5 -63.5Q222 -82 267 -82Q310 -82 344.5 -68Q379 -54 407 -35L436 -160Q404 -181 364 -195Q324 -209 260 -209ZM320 500V351H188V500Z" glyph-name="questiondown" horiz-adv-x="468" unicode="&#191;" /><glyph d="M260 -9Q207 -9 165.5 5.5Q124 20 95.5 46Q67 72 52 108.5Q37 145 37 188Q37 233 49 264Q61 295 79 319.5Q97 344 118.5 364.5Q140 385 158 407.5Q176 430 188 459Q200 488 200 529H309Q309 454 288 405.5Q267 357 241.5 321.5Q216 286 194.5 258Q173 230 173 196Q173 157 197.5 137.5Q222 118 267 118Q310 118 344.5 132Q379 146 407 165L436 40Q404 19 364 5Q324 -9 260 -9ZM320 750V601H188V750Z" glyph-name="questiondown.cap" horiz-adv-x="468" /><glyph d="M62 451V750H191V451ZM247 451V750H376V451Z" glyph-name="quotedbl" horiz-adv-x="438" unicode="&quot;" /><glyph d="M59 149H190V70Q190 47 184.5 20Q179 -7 171 -39L139 -167L22 -136L50 -28Q59 4 59 42ZM241 149H372V70Q372 47 366.5 20Q361 -7 353 -39L321 -167L204 -136L232 -28Q241 4 241 42Z" glyph-name="quotedblbase" horiz-adv-x="431" unicode="&#8222;" /><glyph d="M190 451H59V530Q59 553 64.5 580Q70 607 78 639L110 767L227 736L199 628Q190 597 190 558ZM372 451H241V530Q241 553 246.5 580Q252 607 260 639L292 767L409 736L381 628Q372 597 372 558Z" glyph-name="quotedblleft" horiz-adv-x="431" unicode="&#8220;" /><glyph d="M59 750H190V671Q190 648 184.5 621Q179 594 171 562L139 434L22 465L50 573Q59 605 59 643ZM241 750H372V671Q372 648 366.5 621Q361 594 353 562L321 434L204 465L232 573Q241 605 241 643Z" glyph-name="quotedblright" horiz-adv-x="431" unicode="&#8221;" /><glyph d="M190 451H59V530Q59 553 64.5 580Q70 607 78 639L110 767L227 736L199 628Q190 597 190 558Z" glyph-name="quoteleft" horiz-adv-x="249" unicode="&#8216;" /><glyph d="M59 750H190V671Q190 648 184.5 621Q179 594 171 562L139 434L22 465L50 573Q59 605 59 643Z" glyph-name="quoteright" horiz-adv-x="249" unicode="&#8217;" /><glyph d="M59 149H190V70Q190 47 184.5 20Q179 -7 171 -39L139 -167L22 -136L50 -28Q59 4 59 42Z" glyph-name="quotesinglbase" horiz-adv-x="249" unicode="&#8218;" /><glyph d="M62 451V750H191V451Z" glyph-name="quotesingle" horiz-adv-x="253" unicode="&apos;" /><glyph d="M365 411 228 334Q182 308 182 253V0H53V500H174V397Q204 466 269 503L302 522Z" glyph-name="r" horiz-adv-x="380" unicode="r" /><glyph d="M365 411 228 334Q182 308 182 253V0H53V500H174V397Q204 466 269 503L302 522ZM129 576 217 750H359L253 576Z" glyph-name="racute" horiz-adv-x="393" unicode="&#341;" /><glyph d="M365 411 228 334Q182 308 182 253V0H53V500H174V397Q204 466 269 503L302 522ZM5 750H116L194 659L272 750H383L244 576H144Z" glyph-name="rcaron" horiz-adv-x="393" unicode="&#345;" /><glyph d="M365 411 228 334Q182 308 182 253V0H53V500H174V397Q204 466 269 503L302 522ZM51 -39H182V-83Q182 -103 178 -120.5Q174 -138 170 -154L154 -213L30 -198L47 -132Q49 -124 50 -114Q51 -104 51 -94Z" glyph-name="rcommaaccent" horiz-adv-x="393" unicode="&#343;" /><glyph d="M394 570Q394 530 380 495.5Q366 461 341 436Q316 411 282.5 396.5Q249 382 210 382Q171 382 137.5 396.5Q104 411 79.5 436Q55 461 41 495.5Q27 530 27 570Q27 610 41 644.5Q55 679 79.5 704.5Q104 730 137.5 744.5Q171 759 210 759Q249 759 282.5 744.5Q316 730 341 704.5Q366 679 380 644.5Q394 610 394 570ZM71 570Q71 540 82 513.5Q93 487 111.5 467.5Q130 448 155.5 437Q181 426 210 426Q240 426 265 437Q290 448 309 467.5Q328 487 338.5 513.5Q349 540 349 570Q349 601 338.5 627Q328 653 309 672.5Q290 692 265 703Q240 714 210 714Q181 714 155.5 703Q130 692 111.5 672.5Q93 653 82 627Q71 601 71 570ZM286 604Q286 558 253 541L297 466H241L204 534H185V466H137V674H222Q286 674 286 604ZM185 630V578H214Q237 578 237 604Q237 630 214 630Z" glyph-name="registered" horiz-adv-x="425" unicode="&#174;" /><glyph d="M372 643Q372 605 381 573L409 465L292 434L260 562Q252 594 246.5 621Q241 648 241 671V750H372ZM190 643Q190 605 199 573L227 465L110 434L78 562Q70 594 64.5 621Q59 648 59 671V750H190Z" glyph-name="reversequotedblleft" horiz-adv-x="431" unicode="&#8223;" /><glyph d="M190 643Q190 605 199 573L227 465L110 434L78 562Q70 594 64.5 621Q59 648 59 671V750H190Z" glyph-name="reversequoteleft" horiz-adv-x="249" unicode="&#8219;" /><glyph d="M369 675Q369 623 335.5 589.5Q302 556 250 556Q198 556 164.5 589.5Q131 623 131 675Q131 727 164.5 760.5Q198 794 250 794Q302 794 335.5 760.5Q369 727 369 675ZM194 675Q194 650 209.5 634Q225 618 250 618Q275 618 290.5 634Q306 650 306 675Q306 700 290.5 716Q275 732 250 732Q225 732 209.5 716Q194 700 194 675Z" glyph-name="ring" horiz-adv-x="500" unicode="&#730;" /><glyph d="M369 911Q369 860 335.5 826Q302 792 250 792Q198 792 164.5 826Q131 860 131 911Q131 963 164.5 997Q198 1031 250 1031Q302 1031 335.5 997Q369 963 369 911ZM194 911Q194 887 209.5 870.5Q225 854 250 854Q275 854 290.5 870.5Q306 887 306 911Q306 937 290.5 953Q275 969 250 969Q225 969 209.5 953Q194 937 194 911Z" glyph-name="ring.cap" horiz-adv-x="500" /><glyph d="M226 -9Q168 -9 116.5 3Q65 15 25 38L57 151Q102 128 143.5 118Q185 108 233 108Q305 108 305 153Q305 186 258 197L174 216Q113 230 79.5 263.5Q46 297 46 358Q46 427 97 468Q148 509 238 509Q294 509 340 498.5Q386 488 418 471L385 358Q350 376 315.5 384.5Q281 393 243 393Q175 393 175 357Q175 330 216 321L301 301Q365 286 399.5 249Q434 212 434 150Q434 77 381.5 34Q329 -9 226 -9Z" glyph-name="s" horiz-adv-x="458" unicode="s" /><glyph d="M226 -9Q168 -9 116.5 3Q65 15 25 38L57 151Q102 128 143.5 118Q185 108 233 108Q305 108 305 153Q305 186 258 197L174 216Q113 230 79.5 263.5Q46 297 46 358Q46 427 97 468Q148 509 238 509Q294 509 340 498.5Q386 488 418 471L385 358Q350 376 315.5 384.5Q281 393 243 393Q175 393 175 357Q175 330 216 321L301 301Q365 286 399.5 249Q434 212 434 150Q434 77 381.5 34Q329 -9 226 -9ZM173 576 261 750H403L297 576Z" glyph-name="sacute" horiz-adv-x="458" unicode="&#347;" /><glyph d="M226 -9Q168 -9 116.5 3Q65 15 25 38L57 151Q102 128 143.5 118Q185 108 233 108Q305 108 305 153Q305 186 258 197L174 216Q113 230 79.5 263.5Q46 297 46 358Q46 427 97 468Q148 509 238 509Q294 509 340 498.5Q386 488 418 471L385 358Q350 376 315.5 384.5Q281 393 243 393Q175 393 175 357Q175 330 216 321L301 301Q365 286 399.5 249Q434 212 434 150Q434 77 381.5 34Q329 -9 226 -9ZM49 750H160L238 659L316 750H427L288 576H188Z" glyph-name="scaron" horiz-adv-x="458" unicode="&#353;" /><glyph d="M226 -9Q168 -9 116.5 3Q65 15 25 38L57 151Q102 128 143.5 118Q185 108 233 108Q305 108 305 153Q305 186 258 197L174 216Q113 230 79.5 263.5Q46 297 46 358Q46 427 97 468Q148 509 238 509Q294 509 340 498.5Q386 488 418 471L385 358Q350 376 315.5 384.5Q281 393 243 393Q175 393 175 357Q175 330 216 321L301 301Q365 286 399.5 249Q434 212 434 150Q434 77 381.5 34Q329 -9 226 -9ZM264 -3 255 -39Q328 -64 328 -130Q328 -169 301 -192.5Q274 -216 227 -216Q194 -216 167 -205.5Q140 -195 125 -176L157 -129Q187 -153 222 -153Q258 -153 258 -125Q258 -108 244.5 -97Q231 -86 199 -79L175 -75L194 -3Z" glyph-name="scedilla" horiz-adv-x="458" unicode="&#351;" /><glyph d="M222 509Q344 509 410.5 441.5Q477 374 477 250Q477 126 419.5 58.5Q362 -9 257 -9Q151 -9 94.5 58Q38 125 38 250V301H343Q333 349 301 370.5Q269 392 210 392Q165 392 138 381.5Q111 371 91 358L42 463Q77 486 121 497.5Q165 509 222 509ZM257 100Q295 100 316.5 124Q338 148 345 199H168Q175 147 196.5 123.5Q218 100 257 100Z" glyph-name="schwa" horiz-adv-x="515" unicode="&#601;" /><glyph d="M226 -9Q168 -9 116.5 3Q65 15 25 38L57 151Q102 128 143.5 118Q185 108 233 108Q305 108 305 153Q305 186 258 197L174 216Q113 230 79.5 263.5Q46 297 46 358Q46 427 97 468Q148 509 238 509Q294 509 340 498.5Q386 488 418 471L385 358Q350 376 315.5 384.5Q281 393 243 393Q175 393 175 357Q175 330 216 321L301 301Q365 286 399.5 249Q434 212 434 150Q434 77 381.5 34Q329 -9 226 -9ZM427 576H316L238 667L160 576H49L188 750H288Z" glyph-name="scircumflex" horiz-adv-x="458" unicode="&#349;" /><glyph d="M226 -9Q168 -9 116.5 3Q65 15 25 38L57 151Q102 128 143.5 118Q185 108 233 108Q305 108 305 153Q305 186 258 197L174 216Q113 230 79.5 263.5Q46 297 46 358Q46 427 97 468Q148 509 238 509Q294 509 340 498.5Q386 488 418 471L385 358Q350 376 315.5 384.5Q281 393 243 393Q175 393 175 357Q175 330 216 321L301 301Q365 286 399.5 249Q434 212 434 150Q434 77 381.5 34Q329 -9 226 -9ZM160 -42H291V-86Q291 -106 287 -123.5Q283 -141 279 -157L263 -216L139 -201L156 -135Q158 -127 159 -117Q160 -107 160 -97Z" glyph-name="scommaaccent" horiz-adv-x="458" unicode="&#537;" /><glyph d="M510 355Q510 306 490.5 272Q471 238 434 218Q474 178 474 111Q474 31 416 -16Q358 -63 258 -63Q202 -63 149 -51Q96 -39 55 -17L92 100Q169 60 252 60Q347 60 347 113Q347 137 320.5 150.5Q294 164 228 172Q134 184 86.5 227Q39 270 39 345Q39 439 114 482Q74 522 74 589Q74 669 132.5 715.5Q191 762 292 763Q348 763 400.5 751Q453 739 494 717L457 600Q381 640 297 640Q247 639 225 626.5Q203 614 203 587Q203 563 229 549.5Q255 536 321 528Q510 504 510 355ZM382 350Q382 379 358.5 394.5Q335 410 270 419Q167 419 167 350Q167 321 191 305.5Q215 290 279 281Q333 281 357.5 298.5Q382 316 382 350Z" glyph-name="section" horiz-adv-x="550" unicode="&#167;" /><glyph d="M59 322V471H190V322ZM59 149H190V88Q190 65 184.5 38Q179 11 171 -21L139 -149L22 -119L50 -10Q55 4 57 23Q59 42 59 59Z" glyph-name="semicolon" horiz-adv-x="249" unicode=";" /><glyph d="M295 500H243V750H331L365 589L400 750H487V500H432V667L394 500H332L295 665ZM108 496Q81 496 58 502Q35 508 20 519L32 569Q48 559 67 553.5Q86 548 105 548Q147 548 147 573Q147 584 138.5 590Q130 596 115 600L87 607Q52 616 37.5 632.5Q23 649 23 678Q23 713 47.5 733Q72 753 114 753Q166 753 195 734L184 683Q158 701 118 701Q77 701 77 680Q77 672 83.5 667.5Q90 663 108 658L136 650Q202 632 202 577Q202 496 108 496Z" glyph-name="servicemark" horiz-adv-x="520" unicode="&#8480;" /><glyph d="M38 750H513V643L370 442Q356 420 346 398.5Q336 377 330 353Q324 329 321.5 301Q319 273 319 238V0H183V232Q183 279 186.5 314.5Q190 350 198.5 381Q207 412 221.5 440.5Q236 469 257 501L346 626H38Z" glyph-name="seven" horiz-adv-x="550" unicode="7" /><glyph d="M32 120H243V61L176 -27Q166 -41 162.5 -56.5Q159 -72 159 -95V-200H85V-98Q85 -62 91.5 -39Q98 -16 117 9L149 52H32Z" glyph-name="seven.inf" horiz-adv-x="275" /><glyph d="M32 750H243V691L176 603Q166 589 162.5 573.5Q159 558 159 535V430H85V532Q85 568 91.5 591Q98 614 117 639L149 682H32ZM588 750 152 0H62L498 750ZM618 0H413V68H478V252H410V320H553V68H618ZM876 256Q828 252 802 238Q776 224 765 195Q785 217 813 217Q851 217 872 188Q893 159 893 107Q893 53 866.5 24.5Q840 -4 792 -4Q739 -4 712 32.5Q685 69 685 139Q685 227 732 274Q779 321 870 324ZM791 147Q769 147 757 119Q762 64 790 64Q818 64 818 107Q818 127 812 137Q806 147 791 147Z" glyph-name="sevensixteenths" horiz-adv-x="925" /><glyph d="M470 633Q350 621 282.5 577Q215 533 190 449Q246 496 317 496Q411 496 462.5 430.5Q514 365 514 245Q514 126 452.5 58.5Q391 -9 284 -9Q164 -9 102.5 76Q41 161 41 325Q41 522 149 634.5Q257 747 459 759ZM286 368Q252 368 223.5 349Q195 330 175 298Q183 116 284 116Q329 116 354 149Q379 182 379 245Q379 309 357 338.5Q335 368 286 368Z" glyph-name="six" horiz-adv-x="550" unicode="6" /><glyph d="M226 56Q178 52 152 38.5Q126 25 115 -4Q136 17 163 17Q201 17 222 -12Q243 -41 243 -93Q243 -147 216.5 -175.5Q190 -204 142 -204Q89 -204 62 -167.5Q35 -131 35 -61Q35 27 82 74Q129 121 220 124ZM141 -53Q119 -53 107 -81Q112 -136 140 -136Q168 -136 168 -93Q168 -73 162 -63Q156 -53 141 -53Z" glyph-name="six.inf" horiz-adv-x="275" /><glyph glyph-name="sixperemspace" horiz-adv-x="167" unicode="&#8198;" /><glyph d="M390 750 136 -100H0L254 750Z" glyph-name="slash" horiz-adv-x="420" unicode="/" /><glyph d="M390 750 166 0H30L254 750Z" glyph-name="slash.cap" horiz-adv-x="420" /><glyph glyph-name="space" horiz-adv-x="200" unicode=" " /><glyph d="M308 759Q372 759 418 740.5Q464 722 499 691L442 584Q426 601 397.5 618Q369 635 327 635Q277 635 247 609Q217 583 217 523Q217 498 219.5 475.5Q222 453 227 432H403V318H260Q272 277 281 231.5Q290 186 290 126V112H506V0H34V112H165V115Q165 178 155 226Q145 274 131 318H34V432H96Q89 458 85.5 485Q82 512 82 543Q82 593 98 633Q114 673 143.5 701Q173 729 214.5 744Q256 759 308 759Z" glyph-name="sterling" horiz-adv-x="550" unicode="&#163;" /><glyph d="M100 384H22V500H100V675H229V500H375V384H229V177Q229 143 245 125.5Q261 108 296 108Q313 108 326.5 112.5Q340 117 353 124L386 21Q365 7 337.5 -1Q310 -9 275 -9Q188 -9 144 34Q100 77 100 154Z" glyph-name="t" horiz-adv-x="414" unicode="t" /><glyph d="M100 208H32V306H100V384H22V500H100V675H229V500H375V384H229V306H341V208H229V177Q229 143 245 125.5Q261 108 296 108Q313 108 326.5 112.5Q340 117 353 124L386 21Q365 7 337.5 -1Q310 -9 275 -9Q188 -9 144 34Q100 77 100 154Z" glyph-name="tbar" horiz-adv-x="411" unicode="&#359;" /><glyph d="M100 384H22V500H100V675H229V500H375V384H229V177Q229 143 245 125.5Q261 108 296 108Q313 108 326.5 112.5Q340 117 353 124L386 21Q365 7 337.5 -1Q310 -9 275 -9Q188 -9 144 34Q100 77 100 154ZM295 566 305 750H387L372 566Z" glyph-name="tcaron" horiz-adv-x="411" unicode="&#357;" /><glyph d="M100 384H22V500H100V675H229V500H375V384H229V177Q229 143 245 125.5Q261 108 296 108Q313 108 326.5 112.5Q340 117 353 124L386 21Q365 7 337.5 -1Q310 -9 275 -9Q188 -9 144 34Q100 77 100 154ZM235 -213Q202 -213 175 -202.5Q148 -192 133 -173L165 -126Q195 -150 230 -150Q266 -150 266 -122Q266 -105 252.5 -94Q239 -83 207 -77L194 -75L206 -25L218 -27Q273 -36 304.5 -61.5Q336 -87 336 -127Q336 -166 309 -189.5Q282 -213 235 -213Z" glyph-name="tcedilla" horiz-adv-x="411" unicode="&#355;" /><glyph d="M100 384H22V500H100V675H229V500H375V384H229V177Q229 143 245 125.5Q261 108 296 108Q313 108 326.5 112.5Q340 117 353 124L386 21Q365 7 337.5 -1Q310 -9 275 -9Q188 -9 144 34Q100 77 100 154ZM170 -39H301V-83Q301 -103 297 -120.5Q293 -138 289 -154L273 -213L149 -198L166 -132Q168 -124 169 -114Q170 -104 170 -94Z" glyph-name="tcommaaccent" horiz-adv-x="411" unicode="&#539;" /><glyph d="M100 384H22V500H100V675H229V500H375V384H229V177Q229 143 245 125.5Q261 108 296 108Q313 108 326.5 112.5Q340 117 353 124L386 21Q365 7 337.5 -1Q310 -9 275 -9Q188 -9 144 34Q100 77 100 154ZM100 902H229V748H100Z" glyph-name="tdotaccent" horiz-adv-x="411" unicode="&#7787;" /><glyph glyph-name="thinspace" horiz-adv-x="100" unicode="&#8201;" /><glyph d="M243 430H38V498H103V682H35V750H178V498H243ZM406 754Q454 754 483 729Q512 704 512 662Q512 639 501.5 621.5Q491 604 472 593Q516 572 516 520Q516 475 486.5 450.5Q457 426 406 426Q376 426 349.5 434Q323 442 305 456L323 520Q340 507 360.5 500.5Q381 494 402 494Q441 494 441 527Q441 559 402 559H359V626H400Q437 626 437 656Q437 687 398 687Q382 687 366 681Q350 675 336 664L314 727Q331 740 355.5 747Q380 754 406 754ZM863 750 427 0H337L773 750ZM893 0H688V68H753V252H685V320H828V68H893ZM1151 256Q1103 252 1077 238Q1051 224 1040 195Q1060 217 1088 217Q1126 217 1147 188Q1168 159 1168 107Q1168 53 1141.5 24.5Q1115 -4 1067 -4Q1014 -4 987 32.5Q960 69 960 139Q960 227 1007 274Q1054 321 1145 324ZM1066 147Q1044 147 1032 119Q1037 64 1065 64Q1093 64 1093 107Q1093 127 1087 137Q1081 147 1066 147Z" glyph-name="thirteensixteenths" horiz-adv-x="1200" /><glyph d="M53 750H182V432Q226 509 325 509Q367 509 401 491Q435 473 459 439Q483 405 496 357.5Q509 310 509 250Q509 191 496 143Q483 95 459 61.5Q435 28 401 9.5Q367 -9 325 -9Q225 -9 182 68V-200H53ZM281 393Q184 393 182 257V250Q182 108 281 108Q380 108 380 250Q380 393 281 393Z" glyph-name="thorn" horiz-adv-x="547" unicode="&#254;" /><glyph d="M260 759Q315 759 359 744Q403 729 434 701Q465 673 482 634Q499 595 499 547Q499 492 473 449.5Q447 407 399 382Q452 359 480.5 314.5Q509 270 509 207Q509 158 491.5 118Q474 78 442 49.5Q410 21 364.5 6Q319 -9 262 -9Q192 -9 132.5 9Q73 27 31 60L66 177Q105 148 154.5 132Q204 116 255 116Q312 116 343 142.5Q374 169 374 220Q374 268 346.5 294Q319 320 266 320H150V440H262Q310 440 337 465Q364 490 364 535Q364 582 333.5 608Q303 634 249 634Q204 634 162.5 619Q121 604 92 581L51 699Q87 726 142 742.5Q197 759 260 759Z" glyph-name="three" horiz-adv-x="550" unicode="3" /><glyph d="M131 124Q179 124 208 99Q237 74 237 32Q237 9 226.5 -8.5Q216 -26 197 -37Q241 -58 241 -110Q241 -155 211.5 -179.5Q182 -204 131 -204Q101 -204 74.5 -196Q48 -188 30 -174L48 -110Q65 -123 85.5 -129.5Q106 -136 127 -136Q166 -136 166 -103Q166 -71 127 -71H84V-4H125Q162 -4 162 26Q162 57 123 57Q107 57 91 51Q75 45 61 34L39 97Q56 110 80.5 117Q105 124 131 124Z" glyph-name="three.inf" horiz-adv-x="275" /><glyph glyph-name="threeperemspace" horiz-adv-x="333" unicode="&#8196;" /><glyph d="M43 357H707V244H43Z" glyph-name="threequarteremdash" horiz-adv-x="750" /><glyph d="M43 432H707V319H43Z" glyph-name="threequarteremdash.cap" horiz-adv-x="750" /><glyph d="M131 754Q179 754 208 729Q237 704 237 662Q237 639 226.5 621.5Q216 604 197 593Q241 572 241 520Q241 475 211.5 450.5Q182 426 131 426Q101 426 74.5 434Q48 442 30 456L48 520Q65 507 85.5 500.5Q106 494 127 494Q166 494 166 527Q166 559 127 559H84V626H125Q162 626 162 656Q162 687 123 687Q107 687 91 681Q75 675 61 664L39 727Q56 740 80.5 747Q105 754 131 754ZM588 750 152 0H62L498 750ZM620 48H591V0H522V48H405V102L474 320H551L482 115H522V179H591V115H620Z" glyph-name="threequarters" horiz-adv-x="650" unicode="&#190;" /><glyph d="M131 754Q179 754 208 729Q237 704 237 662Q237 639 226.5 621.5Q216 604 197 593Q241 572 241 520Q241 475 211.5 450.5Q182 426 131 426Q101 426 74.5 434Q48 442 30 456L48 520Q65 507 85.5 500.5Q106 494 127 494Q166 494 166 527Q166 559 127 559H84V626H125Q162 626 162 656Q162 687 123 687Q107 687 91 681Q75 675 61 664L39 727Q56 740 80.5 747Q105 754 131 754ZM588 750 152 0H62L498 750ZM618 0H413V68H478V252H410V320H553V68H618ZM876 256Q828 252 802 238Q776 224 765 195Q785 217 813 217Q851 217 872 188Q893 159 893 107Q893 53 866.5 24.5Q840 -4 792 -4Q739 -4 712 32.5Q685 69 685 139Q685 227 732 274Q779 321 870 324ZM791 147Q769 147 757 119Q762 64 790 64Q818 64 818 107Q818 127 812 137Q806 147 791 147Z" glyph-name="threesixteenths" horiz-adv-x="925" /><glyph d="M131 754Q179 754 208 729Q237 704 237 662Q237 639 226.5 621.5Q216 604 197 593Q241 572 241 520Q241 475 211.5 450.5Q182 426 131 426Q101 426 74.5 434Q48 442 30 456L48 520Q65 507 85.5 500.5Q106 494 127 494Q166 494 166 527Q166 559 127 559H84V626H125Q162 626 162 656Q162 687 123 687Q107 687 91 681Q75 675 61 664L39 727Q56 740 80.5 747Q105 754 131 754Z" glyph-name="threesuperior" horiz-adv-x="275" unicode="&#179;" /><glyph d="M433 726V705Q433 651 406 621Q379 591 330 591Q307 591 285 599Q263 607 237 621Q215 635 203.5 640Q192 645 181 645Q156 645 156 619V609H67V620Q67 675 94 704.5Q121 734 170 734Q193 734 215 726Q237 718 263 704Q285 691 296.5 685.5Q308 680 319 680Q331 680 337.5 687.5Q344 695 344 707V726Z" glyph-name="tilde" horiz-adv-x="500" unicode="&#732;" /><glyph d="M433 963V942Q433 887 406 858Q379 829 330 829Q307 829 285 836.5Q263 844 237 858Q215 871 203.5 876.5Q192 882 181 882Q156 882 156 855V847H67V857Q67 911 94 941Q121 971 170 971Q193 971 215 963Q237 955 263 941Q285 927 296.5 922Q308 917 319 917Q344 917 344 944V963Z" glyph-name="tilde.cap" horiz-adv-x="500" /><glyph d="M295 500H243V750H331L365 589L400 750H487V500H432V667L394 500H332L295 666ZM204 699H139V500H84V699H20V750H204Z" glyph-name="trademark" horiz-adv-x="520" unicode="&#8482;" /><glyph d="M62 451V750H191V451ZM247 451V750H376V451ZM432 451V750H561V451Z" glyph-name="tripleprime" horiz-adv-x="623" unicode="&#8244;" /><glyph d="M514 0H36V108L287 358Q332 403 351 440Q370 477 370 520Q370 571 336.5 602.5Q303 634 249 634Q206 634 173.5 617Q141 600 109 571L43 675Q88 718 140 738.5Q192 759 256 759Q313 759 359 742.5Q405 726 437.5 696Q470 666 488 624Q506 582 506 531Q506 494 499 462Q492 430 475 398.5Q458 367 430 333Q402 299 361 258L228 124H514Z" glyph-name="two" horiz-adv-x="550" unicode="2" /><glyph d="M243 -200H32V-141L133 -40Q150 -23 157 -9.5Q164 4 164 20Q164 37 153 47Q142 57 124 57Q109 57 95.5 49.5Q82 42 69 30L33 85Q71 124 130 124Q181 124 209.5 97.5Q238 71 238 25Q238 -6 223.5 -33Q209 -60 172 -96L136 -132H243Z" glyph-name="two.inf" horiz-adv-x="275" /><glyph d="M243 430H32V489L133 590Q150 607 157 620.5Q164 634 164 650Q164 667 153 677Q142 687 124 687Q109 687 95.5 679.5Q82 672 69 660L33 715Q71 754 130 754Q181 754 209.5 727.5Q238 701 238 655Q238 624 223.5 597Q209 570 172 534L136 498H243Z" glyph-name="twosuperior" horiz-adv-x="275" unicode="&#178;" /><glyph d="M180 500V179Q180 145 202 126.5Q224 108 261 108Q307 108 337 143.5Q367 179 367 235V500H496V0H375V92Q350 42 307 16.5Q264 -9 206 -9Q172 -9 143.5 2.5Q115 14 94.5 34.5Q74 55 62.5 83.5Q51 112 51 146V500Z" glyph-name="u" horiz-adv-x="549" unicode="u" /><glyph d="M180 500V179Q180 145 202 126.5Q224 108 261 108Q307 108 337 143.5Q367 179 367 235V500H496V0H375V92Q350 42 307 16.5Q264 -9 206 -9Q172 -9 143.5 2.5Q115 14 94.5 34.5Q74 55 62.5 83.5Q51 112 51 146V500ZM209 576 297 750H439L333 576Z" glyph-name="uacute" horiz-adv-x="549" unicode="&#250;" /><glyph d="M180 500V179Q180 145 202 126.5Q224 108 261 108Q307 108 337 143.5Q367 179 367 235V500H496V0H375V92Q350 42 307 16.5Q264 -9 206 -9Q172 -9 143.5 2.5Q115 14 94.5 34.5Q74 55 62.5 83.5Q51 112 51 146V500ZM274 655Q312 655 334.5 678.5Q357 702 359 750H454Q451 664 402.5 614.5Q354 565 274 565Q194 565 145.5 614.5Q97 664 94 750H189Q191 702 213.5 678.5Q236 655 274 655Z" glyph-name="ubreve" horiz-adv-x="549" unicode="&#365;" /><glyph d="M180 500V179Q180 145 202 126.5Q224 108 261 108Q307 108 337 143.5Q367 179 367 235V500H496V0H375V92Q350 42 307 16.5Q264 -9 206 -9Q172 -9 143.5 2.5Q115 14 94.5 34.5Q74 55 62.5 83.5Q51 112 51 146V500ZM463 576H352L274 667L196 576H85L224 750H324Z" glyph-name="ucircumflex" horiz-adv-x="549" unicode="&#251;" /><glyph d="M180 500V179Q180 145 202 126.5Q224 108 261 108Q307 108 337 143.5Q367 179 367 235V500H496V0H375V92Q350 42 307 16.5Q264 -9 206 -9Q172 -9 143.5 2.5Q115 14 94.5 34.5Q74 55 62.5 83.5Q51 112 51 146V500ZM108 741H237V586H108ZM311 741H440V586H311Z" glyph-name="udieresis" horiz-adv-x="549" unicode="&#252;" /><glyph d="M180 500V179Q180 145 202 126.5Q224 108 261 108Q307 108 337 143.5Q367 179 367 235V500H496V0H375V92Q350 42 307 16.5Q264 -9 206 -9Q172 -9 143.5 2.5Q115 14 94.5 34.5Q74 55 62.5 83.5Q51 112 51 146V500ZM109 750H251L339 576H215Z" glyph-name="ugrave" horiz-adv-x="549" unicode="&#249;" /><glyph d="M180 500V179Q180 145 202 126.5Q224 108 261 108Q307 108 337 143.5Q367 179 367 235V500H496V0H375V92Q350 42 307 16.5Q264 -9 206 -9Q172 -9 143.5 2.5Q115 14 94.5 34.5Q74 55 62.5 83.5Q51 112 51 146V500ZM133 576 209 750H334L246 576ZM300 576 376 750H501L412 576Z" glyph-name="uhungarumlaut" horiz-adv-x="549" unicode="&#369;" /><glyph d="M180 500V179Q180 145 202 126.5Q224 108 261 108Q307 108 337 143.5Q367 179 367 235V500H496V0H375V92Q350 42 307 16.5Q264 -9 206 -9Q172 -9 143.5 2.5Q115 14 94.5 34.5Q74 55 62.5 83.5Q51 112 51 146V500ZM403 607H145V719H403Z" glyph-name="umacron" horiz-adv-x="549" unicode="&#363;" /><glyph d="M0 -82H200V-190H0Z" glyph-name="underscore" horiz-adv-x="200" unicode="_" /><glyph d="M0 -82H550V-190H0Z" glyph-name="underscoremonospace" horiz-adv-x="550" unicode="&#65343;" /><glyph d="M43 358H257V242H43Z" glyph-name="uni00AD" horiz-adv-x="300" unicode="&#173;" /><glyph d="M43 357H1057V244H43Z" glyph-name="uni2015" horiz-adv-x="1100" unicode="&#8213;" /><glyph d="M43 432H1057V319H43Z" glyph-name="uni2015.cap" horiz-adv-x="1100" /><glyph d="M37 658Q37 702 64.5 728Q92 754 137 754Q183 754 210.5 728Q238 702 238 658V523Q238 479 210.5 452.5Q183 426 137 426Q92 426 64.5 452.5Q37 479 37 523ZM111 524Q111 494 137 494Q164 494 164 524V657Q164 687 137 687Q125 687 118 679Q111 671 111 657Z" glyph-name="uni2070" horiz-adv-x="275" unicode="&#8304;" /><glyph d="M245 478H216V430H147V478H30V532L99 750H176L107 545H147V609H216V545H245Z" glyph-name="uni2074" horiz-adv-x="275" unicode="&#8308;" /><glyph d="M228 750V682H115V637Q132 647 150 647Q190 647 215.5 616.5Q241 586 241 538Q241 484 211 455Q181 426 131 426Q66 426 30 462L64 516Q75 506 89.5 500Q104 494 122 494Q142 494 154 505.5Q166 517 166 538Q166 557 155 568Q144 579 125 579Q97 579 80 556H43V750Z" glyph-name="uni2075" horiz-adv-x="275" unicode="&#8309;" /><glyph d="M226 686Q178 682 152 668Q126 654 115 625Q135 647 163 647Q201 647 222 618Q243 589 243 537Q243 483 216.5 454.5Q190 426 142 426Q89 426 62 462.5Q35 499 35 569Q35 657 82 704Q129 751 220 754ZM141 577Q119 577 107 549Q112 494 140 494Q168 494 168 537Q168 557 162 567Q156 577 141 577Z" glyph-name="uni2076" horiz-adv-x="275" unicode="&#8310;" /><glyph d="M32 750H243V691L176 603Q166 589 162.5 573.5Q159 558 159 535V430H85V532Q85 568 91.5 591Q98 614 117 639L149 682H32Z" glyph-name="uni2077" horiz-adv-x="275" unicode="&#8311;" /><glyph d="M137 757Q185 757 212.5 731.5Q240 706 240 662Q240 641 231 624Q222 607 206 596Q225 583 236 563.5Q247 544 247 521Q247 474 217.5 448.5Q188 423 137 423Q86 423 57 448.5Q28 474 28 521Q28 544 38.5 563Q49 582 67 595Q34 620 34 662Q34 706 62.5 731.5Q91 757 137 757ZM137 491Q154 491 162.5 500.5Q171 510 171 526Q171 541 162 551.5Q153 562 137 562Q122 562 113 551.5Q104 541 104 526Q104 510 113 500.5Q122 491 137 491ZM137 627Q150 627 158 635.5Q166 644 166 658Q166 672 158 680.5Q150 689 137 689Q109 689 109 658Q109 627 137 627Z" glyph-name="uni2078" horiz-adv-x="275" unicode="&#8312;" /><glyph d="M48 495Q96 499 122 512Q148 525 159 554Q138 533 110 533Q74 533 53 562.5Q32 592 32 644Q32 697 58 725.5Q84 754 132 754Q185 754 212.5 717.5Q240 681 240 611Q240 524 192.5 476.5Q145 429 54 426ZM133 603Q155 603 166 631Q161 687 134 687Q106 687 106 644Q106 623 112 613Q118 603 133 603Z" glyph-name="uni2079" horiz-adv-x="275" unicode="&#8313;" /><glyph d="M37 623H104V690H170V623H237V557H170V490H104V557H37Z" glyph-name="uni207A" horiz-adv-x="275" unicode="&#8314;" /><glyph d="M37 623H237V557H37Z" glyph-name="uni207B" horiz-adv-x="275" unicode="&#8315;" /><glyph d="M37 677H237V611H37ZM37 569H237V503H37Z" glyph-name="uni207C" horiz-adv-x="275" unicode="&#8316;" /><glyph d="M125 590Q125 538 142 494Q159 450 192 410H117Q88 442 71 491Q54 540 54 590Q54 641 71 689.5Q88 738 117 770H192Q159 730 142 686Q125 642 125 590Z" glyph-name="uni207D" horiz-adv-x="275" unicode="&#8317;" /><glyph d="M150 590Q150 642 133 686Q116 730 83 770H158Q187 738 204 689Q221 640 221 590Q221 539 204 490.5Q187 442 158 410H83Q116 450 133 494Q150 538 150 590Z" glyph-name="uni207E" horiz-adv-x="275" unicode="&#8318;" /><glyph d="M37 228Q37 272 64.5 298Q92 324 137 324Q183 324 210.5 298Q238 272 238 228V93Q238 49 210.5 22.5Q183 -4 137 -4Q92 -4 64.5 22.5Q37 49 37 93ZM111 94Q111 64 137 64Q164 64 164 94V227Q164 257 137 257Q125 257 118 249Q111 241 111 227Z" glyph-name="uni2080" horiz-adv-x="275" unicode="&#8320;" /><glyph d="M243 0H38V68H103V252H35V320H178V68H243Z" glyph-name="uni2081" horiz-adv-x="275" unicode="&#8321;" /><glyph d="M243 0H32V59L133 160Q150 177 157 190.5Q164 204 164 220Q164 237 153 247Q142 257 124 257Q109 257 95.5 249.5Q82 242 69 230L33 285Q71 324 130 324Q181 324 209.5 297.5Q238 271 238 225Q238 194 223.5 167Q209 140 172 104L136 68H243Z" glyph-name="uni2082" horiz-adv-x="275" unicode="&#8322;" /><glyph d="M131 324Q179 324 208 299Q237 274 237 232Q237 209 226.5 191.5Q216 174 197 163Q241 142 241 90Q241 45 211.5 20.5Q182 -4 131 -4Q101 -4 74.5 4Q48 12 30 26L48 90Q65 77 85.5 70.5Q106 64 127 64Q166 64 166 97Q166 129 127 129H84V196H125Q162 196 162 226Q162 257 123 257Q107 257 91 251Q75 245 61 234L39 297Q56 310 80.5 317Q105 324 131 324Z" glyph-name="uni2083" horiz-adv-x="275" unicode="&#8323;" /><glyph d="M245 48H216V0H147V48H30V102L99 320H176L107 115H147V179H216V115H245Z" glyph-name="uni2084" horiz-adv-x="275" unicode="&#8324;" /><glyph d="M228 320V252H115V207Q132 217 150 217Q190 217 215.5 186.5Q241 156 241 108Q241 54 211 25Q181 -4 131 -4Q66 -4 30 32L64 86Q75 76 89.5 70Q104 64 122 64Q142 64 154 75.5Q166 87 166 108Q166 127 155 138Q144 149 125 149Q97 149 80 126H43V320Z" glyph-name="uni2085" horiz-adv-x="275" unicode="&#8325;" /><glyph d="M226 256Q178 252 152 238Q126 224 115 195Q135 217 163 217Q201 217 222 188Q243 159 243 107Q243 53 216.5 24.5Q190 -4 142 -4Q89 -4 62 32.5Q35 69 35 139Q35 227 82 274Q129 321 220 324ZM141 147Q119 147 107 119Q112 64 140 64Q168 64 168 107Q168 127 162 137Q156 147 141 147Z" glyph-name="uni2086" horiz-adv-x="275" unicode="&#8326;" /><glyph d="M32 320H243V261L176 173Q166 159 162.5 143.5Q159 128 159 105V0H85V102Q85 138 91.5 161Q98 184 117 209L149 252H32Z" glyph-name="uni2087" horiz-adv-x="275" unicode="&#8327;" /><glyph d="M137 327Q185 327 212.5 301.5Q240 276 240 232Q240 211 231 194Q222 177 206 166Q225 153 236 133.5Q247 114 247 91Q247 44 217.5 18.5Q188 -7 137 -7Q86 -7 57 18.5Q28 44 28 91Q28 114 38.5 133Q49 152 67 165Q34 190 34 232Q34 276 62.5 301.5Q91 327 137 327ZM137 61Q154 61 162.5 70.5Q171 80 171 96Q171 111 162 121.5Q153 132 137 132Q122 132 113 121.5Q104 111 104 96Q104 80 113 70.5Q122 61 137 61ZM137 197Q150 197 158 205.5Q166 214 166 228Q166 242 158 250.5Q150 259 137 259Q109 259 109 228Q109 197 137 197Z" glyph-name="uni2088" horiz-adv-x="275" unicode="&#8328;" /><glyph d="M48 65Q96 69 122 82Q148 95 159 124Q138 103 110 103Q74 103 53 132.5Q32 162 32 214Q32 267 58 295.5Q84 324 132 324Q185 324 212.5 287.5Q240 251 240 181Q240 94 192.5 46.5Q145 -1 54 -4ZM133 173Q155 173 166 201Q161 257 134 257Q106 257 106 214Q106 193 112 183Q118 173 133 173Z" glyph-name="uni2089" horiz-adv-x="275" unicode="&#8329;" /><glyph d="M37 193H104V260H170V193H237V127H170V60H104V127H37Z" glyph-name="uni208A" horiz-adv-x="275" unicode="&#8330;" /><glyph d="M37 193H237V127H37Z" glyph-name="uni208B" horiz-adv-x="275" unicode="&#8331;" /><glyph d="M37 247H237V181H37ZM37 139H237V73H37Z" glyph-name="uni208C" horiz-adv-x="275" unicode="&#8332;" /><glyph d="M125 160Q125 108 142 64Q159 20 192 -20H117Q88 12 71 61Q54 110 54 160Q54 211 71 259.5Q88 308 117 340H192Q159 300 142 256Q125 212 125 160Z" glyph-name="uni208D" horiz-adv-x="275" unicode="&#8333;" /><glyph d="M150 160Q150 212 133 256Q116 300 83 340H158Q187 308 204 259Q221 210 221 160Q221 109 204 60.5Q187 12 158 -20H83Q116 20 133 64Q150 108 150 160Z" glyph-name="uni208E" horiz-adv-x="275" unicode="&#8334;" /><glyph d="M243 430H38V498H103V682H35V750H178V498H243ZM588 750 152 0H62L498 750ZM506 324Q554 324 583 299Q612 274 612 232Q612 209 601.5 191.5Q591 174 572 163Q616 142 616 90Q616 45 586.5 20.5Q557 -4 506 -4Q476 -4 449.5 4Q423 12 405 26L423 90Q440 77 460.5 70.5Q481 64 502 64Q541 64 541 97Q541 129 502 129H459V196H500Q537 196 537 226Q537 257 498 257Q482 257 466 251Q450 245 436 234L414 297Q431 310 455.5 317Q480 324 506 324Z" glyph-name="uni2153" horiz-adv-x="650" unicode="&#8531;" /><glyph d="M243 430H32V489L133 590Q150 607 157 620.5Q164 634 164 650Q164 667 153 677Q142 687 124 687Q109 687 95.5 679.5Q82 672 69 660L33 715Q71 754 130 754Q181 754 209.5 727.5Q238 701 238 655Q238 624 223.5 597Q209 570 172 534L136 498H243ZM588 750 152 0H62L498 750ZM506 324Q554 324 583 299Q612 274 612 232Q612 209 601.5 191.5Q591 174 572 163Q616 142 616 90Q616 45 586.5 20.5Q557 -4 506 -4Q476 -4 449.5 4Q423 12 405 26L423 90Q440 77 460.5 70.5Q481 64 502 64Q541 64 541 97Q541 129 502 129H459V196H500Q537 196 537 226Q537 257 498 257Q482 257 466 251Q450 245 436 234L414 297Q431 310 455.5 317Q480 324 506 324Z" glyph-name="uni2154" horiz-adv-x="650" unicode="&#8532;" /><glyph d="M243 430H38V498H103V682H35V750H178V498H243ZM588 750 152 0H62L498 750ZM603 320V252H490V207Q507 217 525 217Q565 217 590.5 186.5Q616 156 616 108Q616 54 586 25Q556 -4 506 -4Q441 -4 405 32L439 86Q450 76 464.5 70Q479 64 497 64Q517 64 529 75.5Q541 87 541 108Q541 127 530 138Q519 149 500 149Q472 149 455 126H418V320Z" glyph-name="uni2155" horiz-adv-x="650" unicode="&#8533;" /><glyph d="M243 430H32V489L133 590Q150 607 157 620.5Q164 634 164 650Q164 667 153 677Q142 687 124 687Q109 687 95.5 679.5Q82 672 69 660L33 715Q71 754 130 754Q181 754 209.5 727.5Q238 701 238 655Q238 624 223.5 597Q209 570 172 534L136 498H243ZM588 750 152 0H62L498 750ZM603 320V252H490V207Q507 217 525 217Q565 217 590.5 186.5Q616 156 616 108Q616 54 586 25Q556 -4 506 -4Q441 -4 405 32L439 86Q450 76 464.5 70Q479 64 497 64Q517 64 529 75.5Q541 87 541 108Q541 127 530 138Q519 149 500 149Q472 149 455 126H418V320Z" glyph-name="uni2156" horiz-adv-x="650" unicode="&#8534;" /><glyph d="M131 754Q179 754 208 729Q237 704 237 662Q237 639 226.5 621.5Q216 604 197 593Q241 572 241 520Q241 475 211.5 450.5Q182 426 131 426Q101 426 74.5 434Q48 442 30 456L48 520Q65 507 85.5 500.5Q106 494 127 494Q166 494 166 527Q166 559 127 559H84V626H125Q162 626 162 656Q162 687 123 687Q107 687 91 681Q75 675 61 664L39 727Q56 740 80.5 747Q105 754 131 754ZM588 750 152 0H62L498 750ZM603 320V252H490V207Q507 217 525 217Q565 217 590.5 186.5Q616 156 616 108Q616 54 586 25Q556 -4 506 -4Q441 -4 405 32L439 86Q450 76 464.5 70Q479 64 497 64Q517 64 529 75.5Q541 87 541 108Q541 127 530 138Q519 149 500 149Q472 149 455 126H418V320Z" glyph-name="uni2157" horiz-adv-x="650" unicode="&#8535;" /><glyph d="M245 478H216V430H147V478H30V532L99 750H176L107 545H147V609H216V545H245ZM588 750 152 0H62L498 750ZM603 320V252H490V207Q507 217 525 217Q565 217 590.5 186.5Q616 156 616 108Q616 54 586 25Q556 -4 506 -4Q441 -4 405 32L439 86Q450 76 464.5 70Q479 64 497 64Q517 64 529 75.5Q541 87 541 108Q541 127 530 138Q519 149 500 149Q472 149 455 126H418V320Z" glyph-name="uni2158" horiz-adv-x="650" unicode="&#8536;" /><glyph d="M243 430H38V498H103V682H35V750H178V498H243ZM588 750 152 0H62L498 750ZM601 256Q553 252 527 238Q501 224 490 195Q510 217 538 217Q576 217 597 188Q618 159 618 107Q618 53 591.5 24.5Q565 -4 517 -4Q464 -4 437 32.5Q410 69 410 139Q410 227 457 274Q504 321 595 324ZM516 147Q494 147 482 119Q487 64 515 64Q543 64 543 107Q543 127 537 137Q531 147 516 147Z" glyph-name="uni2159" horiz-adv-x="650" unicode="&#8537;" /><glyph d="M228 750V682H115V637Q132 647 150 647Q190 647 215.5 616.5Q241 586 241 538Q241 484 211 455Q181 426 131 426Q66 426 30 462L64 516Q75 506 89.5 500Q104 494 122 494Q142 494 154 505.5Q166 517 166 538Q166 557 155 568Q144 579 125 579Q97 579 80 556H43V750ZM588 750 152 0H62L498 750ZM601 256Q553 252 527 238Q501 224 490 195Q510 217 538 217Q576 217 597 188Q618 159 618 107Q618 53 591.5 24.5Q565 -4 517 -4Q464 -4 437 32.5Q410 69 410 139Q410 227 457 274Q504 321 595 324ZM516 147Q494 147 482 119Q487 64 515 64Q543 64 543 107Q543 127 537 137Q531 147 516 147Z" glyph-name="uni215A" horiz-adv-x="650" unicode="&#8538;" /><glyph d="M243 430H38V498H103V682H35V750H178V498H243ZM588 750 152 0H62L498 750ZM512 327Q560 327 587.5 301.5Q615 276 615 232Q615 211 606 194Q597 177 581 166Q600 153 611 133.5Q622 114 622 91Q622 44 592.5 18.5Q563 -7 512 -7Q461 -7 432 18.5Q403 44 403 91Q403 114 413.5 133Q424 152 442 165Q409 190 409 232Q409 276 437.5 301.5Q466 327 512 327ZM512 61Q529 61 537.5 70.5Q546 80 546 96Q546 111 537 121.5Q528 132 512 132Q497 132 488 121.5Q479 111 479 96Q479 80 488 70.5Q497 61 512 61ZM512 197Q525 197 533 205.5Q541 214 541 228Q541 242 533 250.5Q525 259 512 259Q484 259 484 228Q484 197 512 197Z" glyph-name="uni215B" horiz-adv-x="650" unicode="&#8539;" /><glyph d="M131 754Q179 754 208 729Q237 704 237 662Q237 639 226.5 621.5Q216 604 197 593Q241 572 241 520Q241 475 211.5 450.5Q182 426 131 426Q101 426 74.5 434Q48 442 30 456L48 520Q65 507 85.5 500.5Q106 494 127 494Q166 494 166 527Q166 559 127 559H84V626H125Q162 626 162 656Q162 687 123 687Q107 687 91 681Q75 675 61 664L39 727Q56 740 80.5 747Q105 754 131 754ZM588 750 152 0H62L498 750ZM512 327Q560 327 587.5 301.5Q615 276 615 232Q615 211 606 194Q597 177 581 166Q600 153 611 133.5Q622 114 622 91Q622 44 592.5 18.5Q563 -7 512 -7Q461 -7 432 18.5Q403 44 403 91Q403 114 413.5 133Q424 152 442 165Q409 190 409 232Q409 276 437.5 301.5Q466 327 512 327ZM512 61Q529 61 537.5 70.5Q546 80 546 96Q546 111 537 121.5Q528 132 512 132Q497 132 488 121.5Q479 111 479 96Q479 80 488 70.5Q497 61 512 61ZM512 197Q525 197 533 205.5Q541 214 541 228Q541 242 533 250.5Q525 259 512 259Q484 259 484 228Q484 197 512 197Z" glyph-name="uni215C" horiz-adv-x="650" unicode="&#8540;" /><glyph d="M228 750V682H115V637Q132 647 150 647Q190 647 215.5 616.5Q241 586 241 538Q241 484 211 455Q181 426 131 426Q66 426 30 462L64 516Q75 506 89.5 500Q104 494 122 494Q142 494 154 505.5Q166 517 166 538Q166 557 155 568Q144 579 125 579Q97 579 80 556H43V750ZM588 750 152 0H62L498 750ZM512 327Q560 327 587.5 301.5Q615 276 615 232Q615 211 606 194Q597 177 581 166Q600 153 611 133.5Q622 114 622 91Q622 44 592.5 18.5Q563 -7 512 -7Q461 -7 432 18.5Q403 44 403 91Q403 114 413.5 133Q424 152 442 165Q409 190 409 232Q409 276 437.5 301.5Q466 327 512 327ZM512 61Q529 61 537.5 70.5Q546 80 546 96Q546 111 537 121.5Q528 132 512 132Q497 132 488 121.5Q479 111 479 96Q479 80 488 70.5Q497 61 512 61ZM512 197Q525 197 533 205.5Q541 214 541 228Q541 242 533 250.5Q525 259 512 259Q484 259 484 228Q484 197 512 197Z" glyph-name="uni215D" horiz-adv-x="650" unicode="&#8541;" /><glyph d="M32 750H243V691L176 603Q166 589 162.5 573.5Q159 558 159 535V430H85V532Q85 568 91.5 591Q98 614 117 639L149 682H32ZM588 750 152 0H62L498 750ZM512 327Q560 327 587.5 301.5Q615 276 615 232Q615 211 606 194Q597 177 581 166Q600 153 611 133.5Q622 114 622 91Q622 44 592.5 18.5Q563 -7 512 -7Q461 -7 432 18.5Q403 44 403 91Q403 114 413.5 133Q424 152 442 165Q409 190 409 232Q409 276 437.5 301.5Q466 327 512 327ZM512 61Q529 61 537.5 70.5Q546 80 546 96Q546 111 537 121.5Q528 132 512 132Q497 132 488 121.5Q479 111 479 96Q479 80 488 70.5Q497 61 512 61ZM512 197Q525 197 533 205.5Q541 214 541 228Q541 242 533 250.5Q525 259 512 259Q484 259 484 228Q484 197 512 197Z" glyph-name="uni215E" horiz-adv-x="650" unicode="&#8542;" /><glyph d="M243 430H38V498H103V682H35V750H178V498H243ZM588 750 152 0H62L498 750Z" glyph-name="uni215F" horiz-adv-x="375" unicode="&#8543;" /><glyph d="M180 500V179Q180 145 202 126.5Q224 108 261 108Q307 108 337 143.5Q367 179 367 235V500H496V0H375V92Q350 42 307 16.5Q264 -9 206 -9Q172 -9 143.5 2.5Q115 14 94.5 34.5Q74 55 62.5 83.5Q51 112 51 146V500ZM453 -213Q395 -213 361 -183.5Q327 -154 327 -104Q327 -56 359.5 -17Q392 22 458 48L496 0Q457 -12 433.5 -36Q410 -60 410 -89Q410 -110 423.5 -122.5Q437 -135 462 -135Q494 -135 520 -112L558 -172Q520 -213 453 -213Z" glyph-name="uogonek" horiz-adv-x="549" unicode="&#371;" /><glyph d="M180 500V179Q180 145 202 126.5Q224 108 261 108Q307 108 337 143.5Q367 179 367 235V500H496V0H375V92Q350 42 307 16.5Q264 -9 206 -9Q172 -9 143.5 2.5Q115 14 94.5 34.5Q74 55 62.5 83.5Q51 112 51 146V500ZM393 675Q393 623 359.5 589.5Q326 556 274 556Q222 556 188.5 589.5Q155 623 155 675Q155 727 188.5 760.5Q222 794 274 794Q326 794 359.5 760.5Q393 727 393 675ZM218 675Q218 650 233.5 634Q249 618 274 618Q299 618 314.5 634Q330 650 330 675Q330 700 314.5 716Q299 732 274 732Q249 732 233.5 716Q218 700 218 675Z" glyph-name="uring" horiz-adv-x="549" unicode="&#367;" /><glyph d="M180 500V179Q180 145 202 126.5Q224 108 261 108Q307 108 337 143.5Q367 179 367 235V500H496V0H375V92Q350 42 307 16.5Q264 -9 206 -9Q172 -9 143.5 2.5Q115 14 94.5 34.5Q74 55 62.5 83.5Q51 112 51 146V500ZM458 726V705Q458 651 431 621Q404 591 355 591Q332 591 310 599Q288 607 262 621Q240 635 228.5 640Q217 645 206 645Q181 645 181 619V609H92V620Q92 675 119 704.5Q146 734 195 734Q218 734 240 726Q262 718 288 704Q310 691 321.5 685.5Q333 680 344 680Q356 680 362.5 687.5Q369 695 369 707V726Z" glyph-name="utilde" horiz-adv-x="549" unicode="&#361;" /><glyph d="M183 0 17 500H155L269 119L384 500H515L349 0Z" glyph-name="v" horiz-adv-x="532" unicode="v" /><glyph d="M140 0 22 500H154L227 137L327 500H482L582 139L658 500H782L664 0H495L402 347L308 0Z" glyph-name="w" horiz-adv-x="805" unicode="w" /><glyph d="M140 0 22 500H154L227 137L327 500H482L582 139L658 500H782L664 0H495L402 347L308 0ZM337 576 425 750H567L461 576Z" glyph-name="wacute" horiz-adv-x="805" unicode="&#7811;" /><glyph d="M140 0 22 500H154L227 137L327 500H482L582 139L658 500H782L664 0H495L402 347L308 0ZM591 576H480L402 667L324 576H213L352 750H452Z" glyph-name="wcircumflex" horiz-adv-x="805" unicode="&#373;" /><glyph d="M140 0 22 500H154L227 137L327 500H482L582 139L658 500H782L664 0H495L402 347L308 0ZM236 741H365V586H236ZM439 741H568V586H439Z" glyph-name="wdieresis" horiz-adv-x="805" unicode="&#7813;" /><glyph d="M140 0 22 500H154L227 137L327 500H482L582 139L658 500H782L664 0H495L402 347L308 0ZM237 750H379L467 576H343Z" glyph-name="wgrave" horiz-adv-x="805" unicode="&#7809;" /><glyph d="M387 299Q387 262 373.5 229.5Q360 197 336 173Q312 149 280 135.5Q248 122 210 122Q173 122 140.5 135.5Q108 149 84 173Q60 197 46.5 229.5Q33 262 33 299Q33 336 46.5 368.5Q60 401 84 425Q108 449 140.5 462.5Q173 476 210 476Q248 476 280 462.5Q312 449 336 425Q360 401 373.5 368.5Q387 336 387 299ZM136 300Q136 265 156 244Q176 223 210 223Q244 223 264 244Q284 265 284 300Q284 335 264 356Q244 377 210 377Q176 377 156 356Q136 335 136 300Z" glyph-name="whitebullet" horiz-adv-x="420" unicode="&#9702;" /><glyph d="M387 374Q387 337 373.5 304.5Q360 272 336 248Q312 224 280 210.5Q248 197 210 197Q173 197 140.5 210.5Q108 224 84 248Q60 272 46.5 304.5Q33 337 33 374Q33 411 46.5 443.5Q60 476 84 500Q108 524 140.5 537.5Q173 551 210 551Q248 551 280 537.5Q312 524 336 500Q360 476 373.5 443.5Q387 411 387 374ZM136 375Q136 340 156 319Q176 298 210 298Q244 298 264 319Q284 340 284 375Q284 410 264 431Q244 452 210 452Q176 452 156 431Q136 410 136 375Z" glyph-name="whitebullet.cap" horiz-adv-x="420" unicode="&#57346;" /><glyph d="M15 0 182 253 25 500H174L256 349L343 500H483L323 254L493 0H344L251 159L155 0Z" glyph-name="x" horiz-adv-x="508" unicode="x" /><glyph d="M349 -21Q335 -58 315.5 -82.5Q296 -107 258 -128L101 -214L43 -102L202 -20Q219 -11 226 -2Q233 7 238 21H189L16 500H155L271 137H277L398 500H530Z" glyph-name="y" horiz-adv-x="546" unicode="y" /><glyph d="M349 -21Q335 -58 315.5 -82.5Q296 -107 258 -128L101 -214L43 -102L202 -20Q219 -11 226 -2Q233 7 238 21H189L16 500H155L271 137H277L398 500H530ZM211 576 299 750H441L335 576Z" glyph-name="yacute" horiz-adv-x="546" unicode="&#253;" /><glyph d="M349 -21Q335 -58 315.5 -82.5Q296 -107 258 -128L101 -214L43 -102L202 -20Q219 -11 226 -2Q233 7 238 21H189L16 500H155L271 137H277L398 500H530ZM465 576H354L276 667L198 576H87L226 750H326Z" glyph-name="ycircumflex" horiz-adv-x="546" unicode="&#375;" /><glyph d="M349 -21Q335 -58 315.5 -82.5Q296 -107 258 -128L101 -214L43 -102L202 -20Q219 -11 226 -2Q233 7 238 21H189L16 500H155L271 137H277L398 500H530ZM110 741H239V586H110ZM313 741H442V586H313Z" glyph-name="ydieresis" horiz-adv-x="546" unicode="&#255;" /><glyph d="M47 432H164L7 750H156L276 451L400 750H543L386 432H503V318H344V256H503V142H344V0H206V142H47V256H206V318H47Z" glyph-name="yen" horiz-adv-x="550" unicode="&#165;" /><glyph d="M349 -21Q335 -58 315.5 -82.5Q296 -107 258 -128L101 -214L43 -102L202 -20Q219 -11 226 -2Q233 7 238 21H189L16 500H155L271 137H277L398 500H530ZM111 750H253L341 576H217Z" glyph-name="ygrave" horiz-adv-x="546" unicode="&#7923;" /><glyph d="M349 -21Q335 -58 315.5 -82.5Q296 -107 258 -128L101 -214L43 -102L202 -20Q219 -11 226 -2Q233 7 238 21H189L16 500H155L271 137H277L398 500H530ZM405 607H147V719H405Z" glyph-name="ymacron" horiz-adv-x="546" unicode="&#563;" /><glyph d="M48 500H442V420L218 116H442V0H33V87L256 384H48Z" glyph-name="z" horiz-adv-x="475" unicode="z" /><glyph d="M48 500H442V420L218 116H442V0H33V87L256 384H48ZM175 576 263 750H405L299 576Z" glyph-name="zacute" horiz-adv-x="475" unicode="&#378;" /><glyph d="M48 500H442V420L218 116H442V0H33V87L256 384H48ZM51 750H162L240 659L318 750H429L290 576H190Z" glyph-name="zcaron" horiz-adv-x="475" unicode="&#382;" /><glyph d="M48 500H442V420L218 116H442V0H33V87L256 384H48ZM176 741H305V586H176Z" glyph-name="zdotaccent" horiz-adv-x="475" unicode="&#380;" /><glyph d="M45 523Q45 576 61.5 619.5Q78 663 108 694Q138 725 180.5 742Q223 759 275 759Q326 759 368.5 742Q411 725 441.5 694Q472 663 489 619.5Q506 576 506 523V228Q506 175 489 131Q472 87 441.5 56Q411 25 368.5 8Q326 -9 275 -9Q223 -9 180.5 8Q138 25 108 56Q78 87 61.5 131Q45 175 45 228ZM180 225Q180 173 205 144.5Q230 116 275 116Q320 116 345 144.5Q370 173 370 225V525Q370 577 345 605.5Q320 634 275 634Q230 634 205 605.5Q180 577 180 525Z" glyph-name="zero" horiz-adv-x="550" unicode="0" /><glyph d="M37 28Q37 72 64.5 98Q92 124 137 124Q183 124 210.5 98Q238 72 238 28V-107Q238 -151 210.5 -177.5Q183 -204 137 -204Q92 -204 64.5 -177.5Q37 -151 37 -107ZM111 -106Q111 -136 137 -136Q164 -136 164 -106V27Q164 57 137 57Q125 57 118 49Q111 41 111 27Z" glyph-name="zero.inf" horiz-adv-x="275" /><glyph glyph-name="zerowidthspace" horiz-adv-x="0" unicode="&#8203;" /></font>
</defs>
</svg>
