<?xml version="1.0" encoding="utf-8"?>
<!-- Generator: Adobe Illustrator 24.3.0, SVG Export Plug-In . SVG Version: 6.00 Build 0)  -->
<svg version="1.1" id="Layer_1" xmlns="http://www.w3.org/2000/svg" xmlns:xlink="http://www.w3.org/1999/xlink" x="0px" y="0px"
	 viewBox="0 0 300 214.5" style="enable-background:new 0 0 300 214.5;" xml:space="preserve">
<style type="text/css">
	.st0{clip-path:url(#SVGID_2_);fill:#FFFFFF;}
</style>
<g>
	<defs>
		<rect id="SVGID_1_" x="3.1" y="2.5" width="294.2" height="209.4"/>
	</defs>
	<clipPath id="SVGID_2_">
		<use xlink:href="#SVGID_1_"  style="overflow:visible;"/>
	</clipPath>
	<path class="st0" d="M200.8,61.3c0,18.6-15.1,33.6-33.6,33.6h-12.8V80.3h12.8c10.4,0,18.9-8.5,18.9-18.9c0-10.4-8.5-18.9-18.9-18.9
		h-12.8V27.7h12.8C185.8,27.7,200.8,42.8,200.8,61.3 M129.2,27.7V55h-23.4l-8.6,14.7h46.7v-42H129.2z M297.3,48.7
		c0,25.5-20.7,46.2-46.2,46.2v25.2h-39.9v-19.7c-10.8,12.1-26.5,19.7-43.9,19.7h-38.1V95H99.5l-14.7,25.2H38.1L106.7,2.5h60.6
		c17.5,0,33.1,7.6,43.9,19.7V2.5h39.9C276.6,2.5,297.3,23.2,297.3,48.7 M167.2,105.5c17.6,0,32.8-10.3,39.9-25.2h18.7v25.2h10.5
		V80.3h14.7c17.4,0,31.5-14.1,31.5-31.5c0-17.4-14.1-31.5-31.5-31.5h-25.2V55h-15c-3-21.4-21.4-37.8-43.6-37.8h-51.7L64,105.5h12.3
		L91,80.3h52.9v25.2H167.2z M251.1,27.7h-14.7v14.7h14.7c3.5,0,6.3,2.8,6.3,6.3c0,3.5-2.8,6.3-6.3,6.3h-14.7v14.7h14.7
		c11.6,0,21-9.4,21-21C272.1,37.1,262.7,27.7,251.1,27.7"/>
	<path class="st0" d="M271.9,112.8c0,3.3-2.7,6.1-6.1,6.1c-3.3,0-6.1-2.7-6.1-6.1c0-3.3,2.7-6.1,6.1-6.1
		C269.2,106.8,271.9,109.5,271.9,112.8 M273.2,112.8c0-4-3.3-7.3-7.3-7.3c-4,0-7.3,3.3-7.3,7.3c0,4,3.3,7.3,7.3,7.3
		C269.9,120.2,273.2,116.9,273.2,112.8"/>
	<path class="st0" d="M266.1,109.7c0.4,0,0.8,0.1,1,0.4c0.2,0.3,0.3,0.6,0.3,1.2c0,0.5-0.1,0.9-0.3,1.2c-0.2,0.3-0.6,0.4-1,0.4h-1.6
		v-3.1H266.1z M268.1,109.2c-0.5-0.5-1.1-0.7-1.9-0.7h-2.9v8.7h1.3v-3.3h1.4l1.9,3.3h1.5l-2.1-3.4c0.5-0.2,0.9-0.5,1.1-0.9
		c0.3-0.4,0.4-1,0.4-1.6C268.7,110.4,268.5,109.7,268.1,109.2"/>
	<path class="st0" d="M16,141.1l8.7,24.7h-3.8l-2.3-6.6H9l-2.2,6.6H3.2l8.7-24.7H16z M10.2,156h7.3l-3.6-10.7L10.2,156z"/>
	<path class="st0" d="M30.2,161.4c0,1.1,0.5,1.6,1.6,1.6c0.2,0,0.3,0,0.4,0c0.1,0,0.2,0,0.3-0.1l0.1,3c-0.2,0-0.4,0.1-0.6,0.1
		c-0.2,0-0.5,0-0.7,0c-2.9,0-4.4-1.5-4.4-4.4v-20.6h3.4V161.4z"/>
	<polygon class="st0" points="38.4,165.9 34.4,149.4 37.9,149.4 40.8,162.6 44.7,149.4 48.7,149.4 52.6,162.5 55.5,149.4 
		58.7,149.4 54.7,165.9 50.2,165.9 46.6,153.4 43,165.9 	"/>
	<path class="st0" d="M70.2,165.9v-3.3c-0.6,1.1-1.3,2-2.3,2.6c-0.9,0.6-2,0.9-3.2,0.9c-1.3,0-2.4-0.4-3.3-1.2
		c-0.8-0.8-1.3-1.8-1.3-3.1c0-1,0.3-1.9,0.8-2.6c0.5-0.7,1.5-1.5,2.8-2.2l5.7-3.3c-0.6-0.9-1.7-1.4-3.3-1.4c-0.7,0-1.4,0.1-2.2,0.3
		c-0.8,0.2-1.6,0.5-2.3,1l-0.8-3c0.8-0.5,1.6-0.8,2.6-1c0.9-0.2,2-0.3,3.1-0.3c2.2,0,3.9,0.6,5.1,1.6c1.2,1.1,1.8,2.6,1.8,4.6v10.5
		H70.2z M65.5,163.1c0.6,0,1.2-0.1,1.8-0.4c0.5-0.3,1-0.7,1.5-1.2c0.4-0.5,0.7-1.1,1-1.7c0.2-0.7,0.4-1.4,0.4-2.1v-1.3l-4.9,2.8
		c-0.6,0.3-1,0.7-1.2,1c-0.2,0.3-0.4,0.8-0.4,1.3c0,0.4,0.2,0.8,0.5,1.1C64.4,163,64.9,163.1,65.5,163.1"/>
	<path class="st0" d="M85.6,166.9c-0.3,0.8-0.6,1.4-1,1.9c-0.4,0.5-1,1-1.8,1.4l-4.7,2.6l-1.5-2.9l4.5-2.4c0.5-0.3,0.9-0.6,1.1-0.8
		c0.2-0.3,0.4-0.6,0.5-1l0.1-0.3h-1.3l-5.8-16.1h3.6l4.3,13.1h0.2l4.5-13.1h3.4L85.6,166.9z"/>
	<path class="st0" d="M99.2,166.1c-1.3,0-2.4-0.1-3.4-0.4c-1-0.2-2-0.6-2.9-1.1l0.9-2.9c0.9,0.5,1.8,0.9,2.7,1.1
		c0.9,0.2,1.9,0.3,2.9,0.3c2,0,2.9-0.7,2.9-2c0-1-0.7-1.7-2-2l-2.5-0.6c-1.4-0.3-2.4-0.9-3.1-1.6c-0.7-0.7-1-1.7-1-3
		c0-1.5,0.5-2.6,1.6-3.4c1.1-0.8,2.5-1.3,4.4-1.3c1.1,0,2.1,0.1,3,0.3c0.9,0.2,1.7,0.5,2.4,0.8l-0.9,2.9c-0.7-0.4-1.5-0.6-2.2-0.8
		c-0.7-0.2-1.5-0.2-2.3-0.2c-1.8,0-2.7,0.6-2.7,1.7c0,0.8,0.6,1.4,1.8,1.7l2.6,0.6c2.9,0.7,4.3,2.3,4.3,4.9c0,1.5-0.6,2.7-1.7,3.6
		C102.9,165.7,101.3,166.1,99.2,166.1"/>
	<path class="st0" d="M133.5,153.5c0,4-0.8,7.1-2.3,9.2c-1.6,2.1-3.8,3.2-6.9,3.2h-8.2v-24.7h8.2c3,0,5.3,1.1,6.9,3.2
		C132.7,146.4,133.5,149.5,133.5,153.5 M119.7,144.4v18.1h4.1c2.1,0,3.6-0.7,4.6-2.2c1-1.5,1.5-3.8,1.5-6.8c0-3.1-0.5-5.4-1.5-6.8
		c-1-1.5-2.5-2.2-4.6-2.2H119.7z"/>
	<path class="st0" d="M144.5,166.1c-2.7,0-4.7-0.7-6-2.1c-1.4-1.4-2-3.5-2-6.4c0-2.7,0.6-4.8,1.8-6.3c1.2-1.5,2.9-2.2,5.1-2.2
		c2.2,0,3.9,0.7,5.1,2.2c1.2,1.5,1.8,3.6,1.8,6.3v1.4h-10.4c0.2,1.5,0.6,2.5,1.4,3.1c0.8,0.6,1.9,0.9,3.4,0.9c0.9,0,1.7-0.1,2.3-0.3
		c0.6-0.2,1.2-0.5,1.8-0.9l1.3,2.7C148.7,165.6,146.8,166.1,144.5,166.1 M143.4,152.1c-1.1,0-1.9,0.3-2.4,1
		c-0.6,0.7-0.9,1.7-1.1,3.2h7c-0.1-1.5-0.5-2.5-1-3.2C145.3,152.4,144.4,152.1,143.4,152.1"/>
	<path class="st0" d="M158.9,166.1c-1.3,0-2.4-0.1-3.4-0.4c-1-0.2-2-0.6-2.9-1.1l0.9-2.9c0.9,0.5,1.8,0.9,2.7,1.1
		c0.9,0.2,1.9,0.3,2.9,0.3c2,0,2.9-0.7,2.9-2c0-1-0.7-1.7-2-2l-2.5-0.6c-1.4-0.3-2.4-0.9-3.1-1.6c-0.7-0.7-1-1.7-1-3
		c0-1.5,0.5-2.6,1.6-3.4c1.1-0.8,2.5-1.3,4.4-1.3c1.1,0,2.1,0.1,3,0.3c0.9,0.2,1.7,0.5,2.4,0.8l-0.9,2.9c-0.7-0.4-1.5-0.6-2.2-0.8
		c-0.7-0.2-1.5-0.2-2.3-0.2c-1.8,0-2.7,0.6-2.7,1.7c0,0.8,0.6,1.4,1.8,1.7l2.6,0.6c2.9,0.7,4.3,2.3,4.3,4.9c0,1.5-0.6,2.7-1.7,3.6
		C162.6,165.7,161,166.1,158.9,166.1"/>
	<path class="st0" d="M168.4,141.7h3.4v4.4h-3.4V141.7z M171.8,161.4c0,1.1,0.5,1.6,1.6,1.6c0.2,0,0.3,0,0.4,0c0.1,0,0.2,0,0.3-0.1
		l0.1,3c-0.2,0-0.4,0.1-0.6,0.1c-0.2,0-0.5,0-0.7,0c-2.9,0-4.4-1.5-4.4-4.4v-12.3h3.4V161.4z"/>
	<path class="st0" d="M176.3,157.6c0-2.7,0.5-4.7,1.6-6.2c1-1.5,2.5-2.2,4.3-2.2c2.4,0,4.1,1,5,3.1v-2.8h3.2v16.5
		c0,2.3-0.6,4-1.9,5.1c-1.3,1.2-3.2,1.7-5.8,1.7c-1.2,0-2.3-0.1-3.3-0.3c-1-0.2-2-0.6-2.9-1.1l0.9-3c0.9,0.5,1.8,0.8,2.7,1
		c0.8,0.2,1.7,0.3,2.6,0.3c1.5,0,2.7-0.3,3.4-1c0.7-0.7,1.1-1.7,1.1-3.2v-2.1c-1,1.8-2.6,2.7-4.8,2.7c-1.8,0-3.3-0.7-4.3-2.2
		C176.9,162.4,176.3,160.3,176.3,157.6 M183.4,152.2c-2.4,0-3.7,1.8-3.7,5.4c0,3.6,1.2,5.4,3.7,5.4c2.4,0,3.7-1.8,3.7-5.4v-0.3
		C187,153.9,185.8,152.2,183.4,152.2"/>
	<path class="st0" d="M204.5,165.9v-11c0-0.8-0.3-1.5-0.8-2c-0.5-0.5-1.3-0.7-2.2-0.7c-1.1,0-2.1,0.4-2.8,1.3
		c-0.8,0.8-1.2,2-1.2,3.3v9.1h-3.4v-16.5h3.2v3.1c0.5-1.1,1.3-1.9,2.2-2.5c0.9-0.6,2.1-0.8,3.3-0.8c1.5,0,2.7,0.5,3.7,1.4
		c0.9,0.9,1.4,2.1,1.4,3.7v11.7H204.5z"/>
	<path class="st0" d="M211.7,141.7h3.4v4.4h-3.4V141.7z M215,161.4c0,1.1,0.5,1.6,1.6,1.6c0.2,0,0.3,0,0.4,0c0.1,0,0.2,0,0.3-0.1
		l0.1,3c-0.2,0-0.4,0.1-0.6,0.1c-0.2,0-0.5,0-0.7,0c-2.9,0-4.4-1.5-4.4-4.4v-12.3h3.4V161.4z"/>
	<path class="st0" d="M230.5,165.9v-11c0-0.8-0.3-1.5-0.8-2c-0.6-0.5-1.3-0.7-2.2-0.7c-1.1,0-2.1,0.4-2.8,1.3
		c-0.8,0.8-1.2,2-1.2,3.3v9.1h-3.4v-16.5h3.2v3.1c0.5-1.1,1.3-1.9,2.2-2.5c0.9-0.6,2.1-0.8,3.3-0.8c1.5,0,2.7,0.5,3.7,1.4
		c0.9,0.9,1.4,2.1,1.4,3.7v11.7H230.5z"/>
	<path class="st0" d="M237,157.6c0-2.7,0.5-4.7,1.6-6.2c1-1.5,2.5-2.2,4.3-2.2c2.4,0,4.1,1,5,3.1v-2.8h3.2v16.5c0,2.3-0.6,4-1.9,5.1
		c-1.3,1.2-3.2,1.7-5.8,1.7c-1.2,0-2.3-0.1-3.3-0.3c-1-0.2-2-0.6-2.9-1.1l0.9-3c0.9,0.5,1.8,0.8,2.7,1c0.8,0.2,1.7,0.3,2.6,0.3
		c1.5,0,2.7-0.3,3.4-1c0.7-0.7,1.1-1.7,1.1-3.2v-2.1c-1,1.8-2.6,2.7-4.8,2.7c-1.8,0-3.3-0.7-4.3-2.2
		C237.5,162.4,237,160.3,237,157.6 M244.1,152.2c-2.4,0-3.7,1.8-3.7,5.4c0,3.6,1.2,5.4,3.7,5.4c2.4,0,3.7-1.8,3.7-5.4v-0.3
		C247.7,153.9,246.4,152.2,244.1,152.2"/>
	<path class="st0" d="M120,191.9v13.5h-3.4v-13.5H114v-3h2.6v-2.5c0-1.8,0.5-3.2,1.6-4.3c1.1-1.1,2.5-1.6,4.3-1.6
		c1.6,0,2.8,0.3,3.7,0.9l-0.8,2.8c-0.7-0.4-1.5-0.6-2.5-0.6c-1,0-1.7,0.3-2.2,0.8c-0.5,0.6-0.8,1.4-0.8,2.4v2.2h5.4v3H120z"/>
	<path class="st0" d="M126.6,197.1c0-2.7,0.6-4.8,1.8-6.3c1.2-1.5,3-2.2,5.2-2.2c2.2,0,4,0.7,5.2,2.2c1.2,1.5,1.8,3.6,1.8,6.3
		c0,2.7-0.6,4.8-1.8,6.3c-1.2,1.5-3,2.2-5.2,2.2c-2.2,0-4-0.7-5.2-2.2C127.2,201.9,126.6,199.8,126.6,197.1 M130,197.1
		c0,1.8,0.3,3.1,0.9,4.1c0.6,0.9,1.5,1.4,2.7,1.4c1.2,0,2.1-0.5,2.7-1.4c0.6-0.9,0.9-2.3,0.9-4.1c0-1.8-0.3-3.1-0.9-4.1
		c-0.6-0.9-1.5-1.4-2.7-1.4c-1.2,0-2.1,0.5-2.7,1.4C130.3,194,130,195.3,130,197.1"/>
	<path class="st0" d="M153.1,191.1l-4,2.3c-0.6,0.4-1.1,0.8-1.4,1.3c-0.3,0.5-0.5,1.2-0.5,1.9v8.7h-3.4v-16.5h3.2v3.5
		c0.6-1.5,1.6-2.6,3-3.4l1.4-0.8L153.1,191.1z"/>
	<path class="st0" d="M169.6,180.6c2.3,0,4,0.7,5.3,2.1c1.3,1.4,1.9,3.3,1.9,5.7c0,2.4-0.6,4.3-1.9,5.7c-1.3,1.4-3.1,2.1-5.3,2.1
		h-4.7v9.3h-3.6v-24.7H169.6z M164.9,183.9v8.8h4.4c1.3,0,2.2-0.4,2.9-1.1c0.7-0.7,1-1.8,1-3.3c0-1.5-0.3-2.6-1-3.3
		c-0.7-0.7-1.6-1.1-2.9-1.1H164.9z"/>
	<path class="st0" d="M186.5,205.6c-2.7,0-4.7-0.7-6-2.1c-1.4-1.4-2-3.5-2-6.4c0-2.7,0.6-4.8,1.8-6.3c1.2-1.5,2.9-2.2,5.1-2.2
		c2.2,0,3.9,0.7,5.1,2.2c1.2,1.5,1.8,3.6,1.8,6.3v1.4h-10.4c0.2,1.5,0.6,2.5,1.4,3.1c0.8,0.6,1.9,0.9,3.4,0.9c0.9,0,1.7-0.1,2.3-0.3
		c0.6-0.2,1.2-0.5,1.8-0.9l1.3,2.7C190.7,205.1,188.8,205.6,186.5,205.6 M185.4,191.5c-1.1,0-1.9,0.3-2.4,1
		c-0.6,0.7-0.9,1.7-1.1,3.2h7c-0.1-1.5-0.5-2.5-1-3.2C187.2,191.9,186.4,191.5,185.4,191.5"/>
	<path class="st0" d="M195.1,197.1c0-2.7,0.6-4.8,1.8-6.3c1.2-1.5,3-2.2,5.2-2.2c2.2,0,4,0.7,5.2,2.2c1.2,1.5,1.8,3.6,1.8,6.3
		c0,2.7-0.6,4.8-1.8,6.3c-1.2,1.5-3,2.2-5.2,2.2c-2.2,0-4-0.7-5.2-2.2C195.7,201.9,195.1,199.8,195.1,197.1 M198.5,197.1
		c0,1.8,0.3,3.1,0.9,4.1c0.6,0.9,1.5,1.4,2.7,1.4s2.1-0.5,2.7-1.4c0.6-0.9,0.9-2.3,0.9-4.1c0-1.8-0.3-3.1-0.9-4.1
		c-0.6-0.9-1.5-1.4-2.7-1.4s-2.1,0.5-2.7,1.4C198.8,194,198.5,195.3,198.5,197.1"/>
	<path class="st0" d="M212.4,188.8h3.2v2.8c0.9-2,2.6-3.1,5-3.1c1.8,0,3.3,0.7,4.3,2.2c1,1.5,1.6,3.6,1.6,6.2c0,2.7-0.5,4.7-1.6,6.2
		c-1,1.5-2.5,2.2-4.3,2.2c-2.2,0-3.9-0.9-4.8-2.7v9h-3.4V188.8z M219.4,191.6c-2.4,0-3.6,1.7-3.7,5.2v0.3c0,3.6,1.2,5.4,3.7,5.4
		c2.4,0,3.7-1.8,3.7-5.4C223.1,193.5,221.8,191.6,219.4,191.6"/>
	<path class="st0" d="M233.2,200.9c0,1.1,0.5,1.6,1.6,1.6c0.2,0,0.3,0,0.4,0c0.1,0,0.2,0,0.3-0.1l0.1,3c-0.2,0-0.4,0.1-0.6,0.1
		c-0.2,0-0.5,0-0.7,0c-2.9,0-4.4-1.5-4.4-4.4v-20.6h3.4V200.9z"/>
	<path class="st0" d="M245.8,205.6c-2.7,0-4.7-0.7-6-2.1c-1.4-1.4-2-3.5-2-6.4c0-2.7,0.6-4.8,1.8-6.3c1.2-1.5,2.9-2.2,5.1-2.2
		c2.2,0,3.9,0.7,5.1,2.2c1.2,1.5,1.8,3.6,1.8,6.3v1.4h-10.4c0.2,1.5,0.6,2.5,1.4,3.1c0.8,0.6,1.9,0.9,3.4,0.9c0.9,0,1.7-0.1,2.3-0.3
		c0.6-0.2,1.2-0.5,1.8-0.9l1.3,2.7C250,205.1,248.1,205.6,245.8,205.6 M244.7,191.5c-1.1,0-1.9,0.3-2.4,1c-0.6,0.7-0.9,1.7-1.1,3.2
		h7c-0.1-1.5-0.5-2.5-1-3.2C246.5,191.9,245.7,191.5,244.7,191.5"/>
	<polygon class="st0" points="260.4,180.6 259.3,185.1 258.3,180.6 256.4,180.6 256.4,187 257.5,187 257.5,182.4 258.6,187 260,187 
		261.1,182.3 261.1,187 262.3,187 262.3,180.6 	"/>
	<polygon class="st0" points="250.6,180.6 250.6,181.8 252.3,181.8 252.3,187 252.4,187 253.6,187 253.6,187 253.6,181.8 
		255.4,181.8 255.4,180.6 255,180.6 	"/>
</g>
</svg>
