<?xml version="1.0" encoding="utf-8"?>
<!-- Generator: Adobe Illustrator 24.3.0, SVG Export Plug-In . SVG Version: 6.00 Build 0)  -->
<svg version="1.1" id="Layer_1" xmlns="http://www.w3.org/2000/svg" xmlns:xlink="http://www.w3.org/1999/xlink" x="0px" y="0px"
	 viewBox="0 0 260 260" style="enable-background:new 0 0 260 260;" xml:space="preserve">
<style type="text/css">
	.st0{fill:#26328C;}
	.st1{clip-path:url(#SVGID_2_);fill:#FFFFFF;}
</style>
<rect class="st0" width="260" height="260"/>
<g>
	<defs>
		<rect id="SVGID_1_" x="12.5" y="46.3" width="235.1" height="167.4"/>
	</defs>
	<clipPath id="SVGID_2_">
		<use xlink:href="#SVGID_1_"  style="overflow:visible;"/>
	</clipPath>
	<path class="st1" d="M170.5,93.4c0,14.8-12,26.9-26.9,26.9h-10.3v-11.7h10.3c8.3,0,15.1-6.8,15.1-15.1c0-8.3-6.8-15.1-15.1-15.1
		h-10.3V66.5h10.3C158.5,66.5,170.5,78.5,170.5,93.4 M113.2,66.5v21.8H94.5l-6.9,11.8H125V66.5H113.2z M247.6,83.3
		c0,20.4-16.6,36.9-37,36.9v20.2h-31.9v-15.7c-8.6,9.6-21.1,15.7-35.1,15.7h-30.4v-20.2H89.5l-11.8,20.2H40.4l54.8-94h48.4
		c13.9,0,26.5,6.1,35.1,15.7V46.4h31.9C231,46.4,247.6,62.9,247.6,83.3 M143.6,128.6c14.1,0,26.2-8.2,31.9-20.2h15v20.2h8.4v-20.2
		h11.8c13.9,0,25.2-11.3,25.2-25.2c0-13.9-11.3-25.2-25.2-25.2h-20.1v30.2h-12c-2.4-17.1-17.1-30.2-34.9-30.2h-41.4l-41.1,70.5H71
		l11.7-20.2H125v20.2H143.6z M210.6,66.5h-11.8v11.7h11.8c2.8,0,5,2.3,5,5c0,2.8-2.2,5-5,5h-11.8v11.8h11.8
		c9.3,0,16.8-7.5,16.8-16.8C227.4,74,219.9,66.5,210.6,66.5"/>
	<path class="st1" d="M227.3,134.5c0,2.7-2.2,4.8-4.8,4.8c-2.7,0-4.8-2.2-4.8-4.8c0-2.7,2.2-4.8,4.8-4.8
		C225.1,129.7,227.3,131.9,227.3,134.5 M228.3,134.5c0-3.2-2.6-5.9-5.9-5.9c-3.2,0-5.9,2.6-5.9,5.9c0,3.2,2.6,5.9,5.9,5.9
		C225.7,140.4,228.3,137.8,228.3,134.5"/>
	<path class="st1" d="M222.7,132c0.4,0,0.6,0.1,0.8,0.3c0.2,0.2,0.3,0.5,0.3,0.9c0,0.4-0.1,0.7-0.3,0.9c-0.2,0.2-0.5,0.3-0.8,0.3
		h-1.2V132H222.7z M224.2,131.6c-0.4-0.4-0.9-0.6-1.5-0.6h-2.3v6.9h1v-2.6h1.1l1.5,2.6h1.2l-1.7-2.7c0.4-0.1,0.7-0.4,0.9-0.7
		c0.2-0.3,0.3-0.8,0.3-1.3C224.8,132.5,224.6,132,224.2,131.6"/>
	<path class="st1" d="M22.8,157.1l6.9,19.8h-3l-1.8-5.3h-7.6l-1.8,5.3h-2.8l6.9-19.8H22.8z M18.1,169H24l-2.9-8.5L18.1,169z"/>
	<path class="st1" d="M34.2,173.4c0,0.9,0.4,1.3,1.3,1.3c0.1,0,0.2,0,0.3,0c0.1,0,0.1,0,0.2,0l0.1,2.4c-0.1,0-0.3,0.1-0.5,0.1
		c-0.2,0-0.4,0-0.6,0c-2.4,0-3.5-1.2-3.5-3.5v-16.4h2.7V173.4z"/>
	<polygon class="st1" points="40.7,176.9 37.5,163.7 40.3,163.7 42.6,174.3 45.7,163.7 48.9,163.7 52,174.2 54.4,163.7 56.9,163.7 
		53.8,176.9 50.1,176.9 47.2,166.9 44.3,176.9 	"/>
	<path class="st1" d="M66.1,176.9v-2.6c-0.5,0.9-1.1,1.6-1.8,2.1c-0.7,0.5-1.6,0.7-2.6,0.7c-1.1,0-1.9-0.3-2.6-1
		c-0.7-0.6-1-1.5-1-2.5c0-0.8,0.2-1.5,0.6-2.1c0.4-0.6,1.2-1.2,2.2-1.8l4.6-2.7c-0.5-0.8-1.4-1.1-2.7-1.1c-0.6,0-1.2,0.1-1.8,0.3
		c-0.6,0.2-1.2,0.4-1.9,0.8l-0.7-2.4c0.6-0.4,1.3-0.6,2.1-0.8c0.8-0.2,1.6-0.3,2.5-0.3c1.8,0,3.1,0.4,4.1,1.3c1,0.9,1.5,2.1,1.5,3.7
		v8.4H66.1z M62.3,174.7c0.5,0,1-0.1,1.4-0.3c0.4-0.2,0.8-0.5,1.2-0.9c0.3-0.4,0.6-0.8,0.8-1.4c0.2-0.5,0.3-1.1,0.3-1.7v-1l-3.9,2.3
		c-0.5,0.3-0.8,0.5-1,0.8c-0.2,0.3-0.3,0.6-0.3,1c0,0.4,0.1,0.6,0.4,0.9C61.5,174.6,61.9,174.7,62.3,174.7"/>
	<path class="st1" d="M78.5,177.7c-0.2,0.6-0.5,1.1-0.8,1.6c-0.3,0.4-0.8,0.8-1.4,1.1l-3.7,2.1l-1.2-2.3l3.6-1.9
		c0.4-0.2,0.7-0.4,0.9-0.7c0.2-0.2,0.3-0.5,0.4-0.8l0.1-0.2h-1l-4.6-12.9h2.9l3.5,10.4h0.1l3.6-10.4h2.7L78.5,177.7z"/>
	<path class="st1" d="M89.3,177.1c-1,0-1.9-0.1-2.8-0.3c-0.8-0.2-1.6-0.5-2.3-0.9l0.7-2.3c0.7,0.4,1.5,0.7,2.2,0.9
		c0.7,0.2,1.5,0.3,2.3,0.3c1.6,0,2.3-0.5,2.3-1.6c0-0.8-0.5-1.3-1.6-1.6l-2-0.5c-1.1-0.3-1.9-0.7-2.5-1.3c-0.6-0.6-0.8-1.4-0.8-2.4
		c0-1.2,0.4-2.1,1.3-2.7c0.8-0.7,2-1,3.5-1c0.9,0,1.7,0.1,2.4,0.2c0.7,0.2,1.4,0.4,1.9,0.7l-0.7,2.3c-0.6-0.3-1.2-0.5-1.7-0.6
		c-0.6-0.1-1.2-0.2-1.8-0.2c-1.4,0-2.2,0.4-2.2,1.3c0,0.6,0.5,1.1,1.5,1.3l2.1,0.5c2.3,0.6,3.4,1.9,3.4,3.9c0,1.2-0.4,2.2-1.3,2.9
		C92.2,176.7,91,177.1,89.3,177.1"/>
	<path class="st1" d="M116.7,167c0,3.2-0.6,5.7-1.9,7.4c-1.2,1.7-3.1,2.5-5.5,2.5h-6.5v-19.8h6.5c2.4,0,4.2,0.8,5.5,2.5
		C116,161.3,116.7,163.8,116.7,167 M105.7,159.8v14.5h3.2c1.7,0,2.9-0.6,3.7-1.8c0.8-1.2,1.2-3,1.2-5.5c0-2.5-0.4-4.3-1.2-5.5
		c-0.8-1.2-2-1.8-3.7-1.8H105.7z"/>
	<path class="st1" d="M125.5,177.1c-2.1,0-3.7-0.6-4.8-1.7c-1.1-1.1-1.6-2.8-1.6-5.1c0-2.2,0.5-3.9,1.4-5c1-1.2,2.3-1.8,4.1-1.8
		c1.8,0,3.1,0.6,4.1,1.7c0.9,1.2,1.4,2.8,1.4,5v1.1h-8.3c0.1,1.2,0.5,2,1.1,2.5c0.6,0.5,1.5,0.8,2.7,0.8c0.8,0,1.4-0.1,1.9-0.3
		c0.5-0.2,1-0.4,1.5-0.7l1,2.2C128.8,176.7,127.3,177.1,125.5,177.1 M124.6,165.9c-0.8,0-1.5,0.3-2,0.8c-0.5,0.5-0.7,1.4-0.8,2.5
		h5.6c-0.1-1.2-0.4-2-0.8-2.5C126.1,166.1,125.4,165.9,124.6,165.9"/>
	<path class="st1" d="M137,177.1c-1,0-1.9-0.1-2.8-0.3c-0.8-0.2-1.6-0.5-2.3-0.9l0.7-2.3c0.7,0.4,1.5,0.7,2.2,0.9
		c0.7,0.2,1.5,0.3,2.3,0.3c1.6,0,2.3-0.5,2.3-1.6c0-0.8-0.5-1.3-1.6-1.6l-2-0.5c-1.1-0.3-1.9-0.7-2.5-1.3c-0.6-0.6-0.8-1.4-0.8-2.4
		c0-1.2,0.4-2.1,1.3-2.7s2-1,3.5-1c0.9,0,1.7,0.1,2.4,0.2c0.7,0.2,1.4,0.4,1.9,0.7l-0.7,2.3c-0.6-0.3-1.2-0.5-1.7-0.6
		c-0.6-0.1-1.2-0.2-1.8-0.2c-1.4,0-2.2,0.4-2.2,1.3c0,0.6,0.5,1.1,1.5,1.3l2.1,0.5c2.3,0.6,3.4,1.9,3.4,3.9c0,1.2-0.4,2.2-1.3,2.9
		C139.9,176.7,138.7,177.1,137,177.1"/>
	<path class="st1" d="M144.6,157.6h2.7v3.5h-2.7V157.6z M147.3,173.4c0,0.9,0.4,1.3,1.3,1.3c0.1,0,0.2,0,0.3,0c0.1,0,0.1,0,0.2,0
		l0.1,2.4c-0.1,0-0.3,0.1-0.5,0.1c-0.2,0-0.4,0-0.6,0c-2.4,0-3.5-1.2-3.5-3.5v-9.8h2.7V173.4z"/>
	<path class="st1" d="M150.9,170.3c0-2.1,0.4-3.8,1.3-5c0.8-1.2,2-1.8,3.4-1.8c1.9,0,3.3,0.8,4,2.5v-2.3h2.5v13.2
		c0,1.8-0.5,3.2-1.6,4.1c-1,0.9-2.6,1.4-4.7,1.4c-0.9,0-1.8-0.1-2.6-0.3c-0.8-0.2-1.6-0.5-2.3-0.9l0.7-2.4c0.8,0.4,1.5,0.7,2.1,0.8
		c0.7,0.2,1.4,0.3,2,0.3c1.2,0,2.1-0.3,2.7-0.8c0.6-0.5,0.9-1.4,0.9-2.5V175c-0.8,1.4-2.1,2.1-3.8,2.1c-1.5,0-2.6-0.6-3.4-1.8
		C151.4,174.1,150.9,172.5,150.9,170.3 M156.5,166c-2,0-2.9,1.5-2.9,4.4c0,2.9,1,4.4,2.9,4.4c2,0,2.9-1.4,2.9-4.4v-0.2
		C159.4,167.4,158.4,166,156.5,166"/>
	<path class="st1" d="M173.4,176.9v-8.8c0-0.7-0.2-1.2-0.7-1.6c-0.4-0.4-1-0.6-1.8-0.6c-0.9,0-1.6,0.3-2.3,1c-0.6,0.7-0.9,1.6-1,2.7
		v7.3h-2.7v-13.2h2.5v2.5c0.4-0.9,1-1.5,1.8-2c0.8-0.4,1.6-0.7,2.7-0.7c1.2,0,2.2,0.4,2.9,1.1c0.7,0.7,1.1,1.7,1.1,3v9.3H173.4z"/>
	<path class="st1" d="M179.1,157.6h2.7v3.5h-2.7V157.6z M181.8,173.4c0,0.9,0.4,1.3,1.3,1.3c0.1,0,0.2,0,0.3,0c0.1,0,0.1,0,0.2,0
		l0.1,2.4c-0.1,0-0.3,0.1-0.5,0.1c-0.2,0-0.4,0-0.6,0c-2.4,0-3.5-1.2-3.5-3.5v-9.8h2.7V173.4z"/>
	<path class="st1" d="M194.2,176.9v-8.8c0-0.7-0.2-1.2-0.7-1.6c-0.4-0.4-1-0.6-1.8-0.6c-0.9,0-1.6,0.3-2.3,1c-0.6,0.7-0.9,1.6-1,2.7
		v7.3h-2.7v-13.2h2.5v2.5c0.4-0.9,1-1.5,1.8-2c0.8-0.4,1.6-0.7,2.7-0.7c1.2,0,2.2,0.4,2.9,1.1c0.7,0.7,1.1,1.7,1.1,3v9.3H194.2z"/>
	<path class="st1" d="M199.4,170.3c0-2.1,0.4-3.8,1.3-5c0.8-1.2,2-1.8,3.4-1.8c1.9,0,3.3,0.8,4,2.5v-2.3h2.5v13.2
		c0,1.8-0.5,3.2-1.6,4.1c-1,0.9-2.6,1.4-4.7,1.4c-0.9,0-1.8-0.1-2.6-0.3c-0.8-0.2-1.6-0.5-2.3-0.9l0.7-2.4c0.8,0.4,1.5,0.7,2.1,0.8
		c0.7,0.2,1.4,0.3,2,0.3c1.2,0,2.1-0.3,2.7-0.8c0.6-0.5,0.9-1.4,0.9-2.5V175c-0.8,1.4-2.1,2.1-3.8,2.1c-1.5,0-2.6-0.6-3.4-1.8
		C199.8,174.1,199.4,172.5,199.4,170.3 M205,166c-2,0-2.9,1.5-2.9,4.4c0,2.9,1,4.4,2.9,4.4c2,0,2.9-1.4,2.9-4.4v-0.2
		C207.9,167.4,206.9,166,205,166"/>
	<path class="st1" d="M105.9,197.7v10.8h-2.7v-10.8h-2.1v-2.4h2.1v-2c0-1.4,0.4-2.6,1.3-3.5c0.9-0.9,2-1.3,3.4-1.3
		c1.2,0,2.2,0.2,3,0.7l-0.6,2.2c-0.5-0.3-1.2-0.5-2-0.5c-0.8,0-1.4,0.2-1.8,0.7c-0.4,0.4-0.6,1.1-0.6,1.9v1.7h4.3v2.4H105.9z"/>
	<path class="st1" d="M111.2,201.9c0-2.2,0.5-3.9,1.5-5c1-1.2,2.4-1.8,4.2-1.8c1.8,0,3.2,0.6,4.2,1.8c1,1.2,1.5,2.8,1.5,5
		c0,2.2-0.5,3.9-1.5,5c-1,1.2-2.4,1.8-4.2,1.8c-1.8,0-3.2-0.6-4.2-1.8C111.7,205.7,111.2,204,111.2,201.9 M113.9,201.9
		c0,1.4,0.2,2.5,0.7,3.2c0.5,0.7,1.2,1.1,2.2,1.1c1,0,1.7-0.4,2.2-1.1c0.5-0.7,0.7-1.8,0.7-3.2c0-1.4-0.2-2.5-0.7-3.2
		c-0.5-0.7-1.2-1.1-2.2-1.1c-1,0-1.7,0.4-2.2,1.1C114.1,199.3,113.9,200.4,113.9,201.9"/>
	<path class="st1" d="M132.4,197.1l-3.2,1.8c-0.5,0.3-0.9,0.6-1.1,1c-0.2,0.4-0.4,0.9-0.4,1.5v6.9H125v-13.2h2.5v2.8
		c0.5-1.2,1.3-2.1,2.4-2.7l1.1-0.6L132.4,197.1z"/>
	<path class="st1" d="M145.6,188.7c1.8,0,3.2,0.5,4.3,1.6c1,1.1,1.5,2.6,1.5,4.5c0,1.9-0.5,3.4-1.5,4.5c-1,1.1-2.4,1.6-4.3,1.6h-3.7
		v7.4h-2.9v-19.8H145.6z M141.8,191.3v7.1h3.5c1,0,1.8-0.3,2.3-0.9c0.5-0.6,0.8-1.5,0.8-2.6c0-1.2-0.3-2-0.8-2.6
		c-0.5-0.6-1.3-0.9-2.3-0.9H141.8z"/>
	<path class="st1" d="M159.1,208.6c-2.1,0-3.7-0.6-4.8-1.7c-1.1-1.1-1.6-2.8-1.6-5.1c0-2.2,0.5-3.9,1.4-5c1-1.2,2.3-1.8,4.1-1.8
		c1.8,0,3.1,0.6,4.1,1.7c0.9,1.2,1.4,2.8,1.4,5v1.1h-8.3c0.1,1.2,0.5,2,1.1,2.5c0.6,0.5,1.5,0.8,2.7,0.8c0.8,0,1.4-0.1,1.9-0.3
		c0.5-0.2,1-0.4,1.5-0.7l1,2.2C162.4,208.2,160.9,208.6,159.1,208.6 M158.1,197.4c-0.8,0-1.5,0.3-2,0.8c-0.5,0.5-0.7,1.4-0.8,2.5
		h5.6c-0.1-1.2-0.4-2-0.8-2.5C159.6,197.7,159,197.4,158.1,197.4"/>
	<path class="st1" d="M165.9,201.9c0-2.2,0.5-3.9,1.5-5c1-1.2,2.4-1.8,4.2-1.8c1.8,0,3.2,0.6,4.2,1.8c1,1.2,1.5,2.8,1.5,5
		c0,2.2-0.5,3.9-1.5,5c-1,1.2-2.4,1.8-4.2,1.8c-1.8,0-3.2-0.6-4.2-1.8C166.4,205.7,165.9,204,165.9,201.9 M168.6,201.9
		c0,1.4,0.2,2.5,0.7,3.2c0.5,0.7,1.2,1.1,2.2,1.1c1,0,1.7-0.4,2.2-1.1c0.5-0.7,0.7-1.8,0.7-3.2c0-1.4-0.2-2.5-0.7-3.2
		c-0.5-0.7-1.2-1.1-2.2-1.1c-1,0-1.7,0.4-2.2,1.1C168.9,199.3,168.6,200.4,168.6,201.9"/>
	<path class="st1" d="M179.7,195.3h2.5v2.3c0.7-1.6,2.1-2.5,4-2.5c1.5,0,2.6,0.6,3.4,1.8c0.8,1.2,1.3,2.9,1.3,5c0,2.1-0.4,3.8-1.3,5
		c-0.8,1.2-2,1.8-3.4,1.8c-1.8,0-3.1-0.7-3.8-2.1v7.2h-2.7V195.3z M185.3,197.5c-1.9,0-2.9,1.4-2.9,4.1v0.2c0,2.9,1,4.4,2.9,4.4
		c2,0,2.9-1.4,2.9-4.4C188.3,199,187.3,197.5,185.3,197.5"/>
	<path class="st1" d="M196.4,204.9c0,0.9,0.4,1.3,1.3,1.3c0.1,0,0.2,0,0.3,0c0.1,0,0.1,0,0.2,0l0.1,2.4c-0.1,0-0.3,0.1-0.5,0.1
		c-0.2,0-0.4,0-0.6,0c-2.4,0-3.5-1.2-3.5-3.5v-16.4h2.7V204.9z"/>
	<path class="st1" d="M206.5,208.6c-2.1,0-3.7-0.6-4.8-1.7c-1.1-1.1-1.6-2.8-1.6-5.1c0-2.2,0.5-3.9,1.4-5c1-1.2,2.3-1.8,4.1-1.8
		c1.8,0,3.1,0.6,4.1,1.7c0.9,1.2,1.4,2.8,1.4,5v1.1h-8.3c0.1,1.2,0.5,2,1.1,2.5c0.6,0.5,1.5,0.8,2.7,0.8c0.8,0,1.4-0.1,1.9-0.3
		c0.5-0.2,1-0.4,1.4-0.7l1,2.2C209.8,208.2,208.3,208.6,206.5,208.6 M205.5,197.4c-0.8,0-1.5,0.3-2,0.8c-0.5,0.5-0.7,1.4-0.8,2.5
		h5.6c-0.1-1.2-0.4-2-0.8-2.5C207,197.7,206.4,197.4,205.5,197.4"/>
	<polygon class="st1" points="218.1,188.7 217.2,192.3 216.4,188.7 214.9,188.7 214.9,193.8 215.8,193.8 215.8,190.1 216.7,193.8 
		217.7,193.8 218.7,190.1 218.7,193.8 219.6,193.8 219.6,188.7 	"/>
	<polygon class="st1" points="210.3,188.7 210.3,189.6 211.6,189.6 211.6,193.8 211.7,193.8 212.6,193.8 212.7,193.8 212.7,189.6 
		214.1,189.6 214.1,188.7 213.8,188.7 	"/>
</g>
</svg>
