<?xml version="1.0" encoding="utf-8"?>
<!-- Generator: Adobe Illustrator 24.3.0, SVG Export Plug-In . SVG Version: 6.00 Build 0)  -->
<svg version="1.1" id="Layer_1" xmlns="http://www.w3.org/2000/svg" xmlns:xlink="http://www.w3.org/1999/xlink" x="0px" y="0px"
	 viewBox="0 0 162.8 140" style="enable-background:new 0 0 162.8 140;" xml:space="preserve">
<style type="text/css">
	.st0{fill:#F1645D;}
	.st1{fill:#121C4E;}
</style>
<g>
	<g>
		<rect x="104.1" y="130.2" class="st0" width="3.6" height="3.6"/>
		<rect x="128" y="130.2" class="st0" width="3.6" height="3.6"/>
		<rect x="79.8" y="130.2" class="st0" width="3.6" height="3.6"/>
		<rect x="53.7" y="128.3" class="st0" width="7.3" height="7.3"/>
		<rect x="3.3" y="126.5" class="st0" width="10.9" height="10.9"/>
		<rect x="27.6" y="126.5" class="st0" width="10.9" height="10.9"/>
		<polygon class="st0" points="152.3,140 149.2,138.7 156.8,124 159.9,125.3 		"/>
	</g>
	<g>
		<path class="st1" d="M31.2,5.3H12.8l-1.3,14.4h15.7L27,23.5H11.2L9.6,42.3H5.2L8.8,1.5h22.8L31.2,5.3z"/>
		<path class="st1" d="M32.6,28.7c0.4-4.6,1.6-8.1,3.6-10.4c2-2.3,4.8-3.5,8.4-3.5c3.5,0,6.1,1.2,7.8,3.5c1.6,2.3,2.2,5.8,1.8,10.4
			c-0.4,4.6-1.6,8.1-3.6,10.4c-2,2.3-4.8,3.5-8.4,3.5c-3.5,0-6.1-1.2-7.8-3.5S32.2,33.3,32.6,28.7z M36.7,28.7
			c-0.6,6.8,1.4,10.2,5.9,10.2c4.5,0,7.1-3.4,7.7-10.2c0.6-6.8-1.4-10.2-5.9-10.2C39.8,18.5,37.3,21.9,36.7,28.7z"/>
		<path class="st1" d="M63.1,28.7c-0.3,3.2,0.2,5.7,1.4,7.5c1.2,1.8,3.1,2.7,5.6,2.7c2.1,0,4.1-0.7,6-2l1.2,3.4
			c-2.1,1.6-4.8,2.4-7.9,2.4c-3.7,0-6.5-1.2-8.3-3.6c-1.8-2.4-2.5-5.8-2.1-10.3c0.4-4.5,1.7-7.9,3.9-10.3c2.2-2.4,5.2-3.6,8.9-3.6
			c3.1,0,5.6,0.8,7.5,2.4l-1.9,3.4c-1.7-1.4-3.6-2.1-5.7-2.1c-2.5,0-4.5,0.9-6,2.7C64.3,23,63.4,25.5,63.1,28.7z"/>
		<path class="st1" d="M88.7,15.1L87,33.9c-0.1,1.6,0.3,2.9,1.2,3.7c0.9,0.8,2.3,1.2,4,1.2c1,0,2-0.2,3-0.7c0.9-0.4,1.8-1,2.5-1.8
			c0.7-0.8,1.3-1.7,1.8-2.8c0.5-1.1,0.8-2.3,0.9-3.6l1.3-14.9h4.1l-2.4,27.1h-3.8l0.4-5.2c-1,1.8-2.4,3.2-4,4.1
			c-1.6,0.9-3.5,1.4-5.6,1.4c-2.5,0-4.4-0.7-5.8-2.1c-1.4-1.4-2-3.4-1.7-6.1l1.7-19.3H88.7z"/>
		<path class="st1" d="M118.3,42.6c-2.1,0-3.9-0.2-5.4-0.6c-1.5-0.4-3-1-4.4-1.8l1.4-3.6c1.4,0.8,2.8,1.4,4.2,1.7
			c1.4,0.3,2.9,0.5,4.6,0.5c3.8,0,5.9-1.4,6.1-4.3c0.2-2-1-3.4-3.7-4.1l-3.7-1c-2.2-0.6-3.9-1.4-4.9-2.6c-1-1.2-1.4-2.7-1.2-4.7
			c0.2-2.3,1.1-4.1,2.9-5.4c1.8-1.3,4.1-2,7-2c1.6,0,3,0.1,4.3,0.4c1.3,0.3,2.5,0.7,3.7,1.3l-1.5,3.5c-1.1-0.5-2.2-0.9-3.2-1.2
			c-1.1-0.3-2.3-0.4-3.6-0.4c-3.5,0-5.4,1.2-5.6,3.6c-0.2,1.7,1,2.9,3.5,3.6l3.7,1c4.6,1.2,6.6,3.9,6.2,8c-0.2,2.4-1.2,4.4-3.1,5.8
			C123.9,41.9,121.4,42.6,118.3,42.6z"/>
		<path class="st1" d="M25,54.3L35.7,95h-4.6l-3.2-12.5H11.5L6.2,95H1.9l17.9-40.7H25z M13.2,78.7h13.8l-5.2-20.1L13.2,78.7z"/>
		<path class="st1" d="M43.2,81.4c-0.3,3.2,0.2,5.7,1.4,7.5c1.2,1.8,3.1,2.7,5.6,2.7c2.1,0,4.1-0.7,6-2l1.2,3.4
			c-2.1,1.6-4.8,2.4-7.9,2.4c-3.7,0-6.5-1.2-8.3-3.6c-1.8-2.4-2.5-5.8-2.1-10.3c0.4-4.5,1.7-7.9,3.9-10.3c2.2-2.4,5.2-3.6,8.9-3.6
			c3.1,0,5.6,0.8,7.5,2.4l-1.9,3.4c-1.7-1.4-3.6-2.1-5.7-2.1c-2.5,0-4.5,0.9-6,2.7C44.4,75.7,43.5,78.2,43.2,81.4z"/>
		<path class="st1" d="M66.9,71.5h-4.4l0.4-3.7h4.3l0.9-9.5h4.1l-0.9,9.5h9.4l-0.4,3.7H71l-1.3,15.3c-0.2,3.1,1.2,4.7,4.4,4.7
			c0.7,0,1.3-0.1,2-0.3c0.7-0.2,1.3-0.4,2-0.7l0.8,3.3c-1.7,0.9-3.5,1.4-5.5,1.4c-2.6,0-4.6-0.7-5.9-2.1c-1.4-1.4-1.9-3.4-1.7-5.9
			L66.9,71.5z"/>
		<path class="st1" d="M90,67.8l-1.7,18.8c-0.1,1.6,0.3,2.9,1.2,3.7c0.9,0.8,2.3,1.2,4,1.2c1,0,2-0.2,3-0.7c0.9-0.4,1.8-1,2.5-1.8
			c0.7-0.8,1.3-1.7,1.8-2.8c0.5-1.1,0.8-2.3,0.9-3.6l1.3-14.9h4.1L104.8,95H101l0.4-5.2c-1,1.8-2.4,3.2-4,4.1
			c-1.6,0.9-3.5,1.4-5.6,1.4c-2.5,0-4.4-0.7-5.8-2.1c-1.4-1.4-2-3.4-1.7-6.1l1.7-19.3H90z"/>
	</g>
</g>
<g>
	<rect x="224.1" y="447.3" class="st0" width="4.7" height="4.7"/>
	<rect x="254.9" y="447.3" class="st0" width="4.7" height="4.7"/>
	<rect x="192.8" y="447.3" class="st0" width="4.7" height="4.7"/>
	<rect x="159.1" y="445" class="st0" width="9.4" height="9.4"/>
	<rect x="94.1" y="442.6" class="st0" width="14.1" height="14.1"/>
	<rect x="125.4" y="442.6" class="st0" width="14.1" height="14.1"/>
	<polygon class="st0" points="286.3,460 282.3,458.3 292.1,439.4 296.1,441.1 	"/>
</g>
<text transform="matrix(1 0 0 1 94.0716 333.979)"><tspan x="0" y="0" class="st1" style="font-family:'TaubSans-RegularItalic'; font-size:70px;">Focus</tspan><tspan x="0" y="68" class="st1" style="font-family:'TaubSans-RegularItalic'; font-size:70px;">Actu</tspan></text>
</svg>
