<?xml version="1.0" encoding="utf-8"?>
<!-- Generator: Adobe Illustrator 24.3.0, SVG Export Plug-In . SVG Version: 6.00 Build 0)  -->
<svg version="1.1" id="Layer_1" xmlns="http://www.w3.org/2000/svg" xmlns:xlink="http://www.w3.org/1999/xlink" x="0px" y="0px"
	 viewBox="0 0 162.8 140" style="enable-background:new 0 0 162.8 140;" xml:space="preserve">
<style type="text/css">
	.st0{fill:#F1645D;}
	.st1{fill:#121C4E;}
	.st2{font-family:'TaubSans-RegularItalic';}
	.st3{font-size:54.2796px;}
</style>
<g>
	<g>
		<rect x="104.1" y="130.2" class="st0" width="3.6" height="3.6"/>
		<rect x="128" y="130.2" class="st0" width="3.6" height="3.6"/>
		<rect x="79.8" y="130.2" class="st0" width="3.6" height="3.6"/>
		<rect x="53.7" y="128.3" class="st0" width="7.3" height="7.3"/>
		<rect x="3.3" y="126.5" class="st0" width="10.9" height="10.9"/>
		<rect x="27.6" y="126.5" class="st0" width="10.9" height="10.9"/>
		<polygon class="st0" points="152.3,140 149.2,138.7 156.8,124 159.9,125.3 		"/>
	</g>
	<text transform="matrix(1 0 0 1 3.2743 42.2562)"><tspan x="0" y="0" class="st1 st2 st3">Focus</tspan><tspan x="0" y="52.7" class="st1 st2 st3">Actu</tspan></text>
</g>
<g>
	<rect x="224.1" y="447.3" class="st0" width="4.7" height="4.7"/>
	<rect x="254.9" y="447.3" class="st0" width="4.7" height="4.7"/>
	<rect x="192.8" y="447.3" class="st0" width="4.7" height="4.7"/>
	<rect x="159.1" y="445" class="st0" width="9.4" height="9.4"/>
	<rect x="94.1" y="442.6" class="st0" width="14.1" height="14.1"/>
	<rect x="125.4" y="442.6" class="st0" width="14.1" height="14.1"/>
	<polygon class="st0" points="286.3,460 282.3,458.3 292.1,439.4 296.1,441.1 	"/>
</g>
<text transform="matrix(1 0 0 1 94.0716 333.979)"><tspan x="0" y="0" class="st1 st2" style="font-size:70px;">Focus</tspan><tspan x="0" y="68" class="st1 st2" style="font-size:70px;">Actu</tspan></text>
</svg>
