<?xml version="1.0" encoding="utf-8"?>
<!-- Generator: Adobe Illustrator 24.3.0, SVG Export Plug-In . SVG Version: 6.00 Build 0)  -->
<svg version="1.1" id="Layer_1" xmlns="http://www.w3.org/2000/svg" xmlns:xlink="http://www.w3.org/1999/xlink" x="0px" y="0px"
	 viewBox="0 0 219.2 125.4" style="enable-background:new 0 0 219.2 125.4;" xml:space="preserve">
<style type="text/css">
	.st0{fill:#F1645D;}
	.st1{fill:#121C4E;}
</style>
<g>
	<g>
		<rect x="102.5" y="114.5" class="st0" width="3.6" height="3.6"/>
		<rect x="125.8" y="114.5" class="st0" width="3.6" height="3.6"/>
		<rect x="78.7" y="114.5" class="st0" width="3.6" height="3.6"/>
		<rect x="53.2" y="112.7" class="st0" width="7.1" height="7.1"/>
		<rect x="3.9" y="111" class="st0" width="10.7" height="10.7"/>
		<rect x="27.6" y="111" class="st0" width="10.7" height="10.7"/>
		<polygon class="st0" points="149.6,124.1 146.6,122.8 154,108.5 157,109.8 		"/>
	</g>
	<g>
		<path class="st1" d="M26.2,42H3.9L7.4,2.2h4.2L8.5,38.2h18L26.2,42z"/>
		<path class="st1" d="M45.8,42l0.5-5.5c-1.1,1.8-2.4,3.3-4,4.3c-1.6,1-3.4,1.5-5.4,1.5c-1,0-2-0.2-2.8-0.5
			c-0.8-0.3-1.6-0.8-2.2-1.4c-0.6-0.6-1-1.3-1.3-2.1c-0.3-0.8-0.4-1.7-0.3-2.6c0.2-1.7,0.7-3.1,1.7-4.2c0.9-1.1,2.5-2.3,4.6-3.5
			l10.3-5.8c-0.6-2.3-2.6-3.4-5.9-3.4c-1.1,0-2.3,0.2-3.5,0.5c-1.2,0.3-2.5,0.8-3.8,1.4L33,17.1c2.5-1.3,5.4-2,8.6-2
			c3.1,0,5.6,0.8,7.2,2.5c1.7,1.6,2.4,3.8,2.1,6.6L49.5,42H45.8z M37.6,38.7c1.1,0,2.1-0.2,3.2-0.7c1-0.5,1.9-1.1,2.7-2
			c0.8-0.8,1.5-1.8,2-3c0.5-1.1,0.9-2.4,1.1-3.7l0.3-3.3l-9,4.9c-1.3,0.7-2.2,1.4-2.7,2.1c-0.5,0.7-0.9,1.6-1,2.6
			c-0.1,0.9,0.2,1.6,0.9,2.2C35.7,38.4,36.6,38.7,37.6,38.7z"/>
		<path class="st1" d="M72,22.1c-0.5,5.7,0.1,9.9,1.8,12.5c1.7,2.6,4.4,4,8.3,4c1.3,0,2.5-0.2,3.8-0.6c1.3-0.4,2.4-1,3.5-1.8
			l0.8-9.8h-9.7l0.3-3.7h13.4L92.7,42h-3.6l0.2-1.9c-2.3,1.5-4.8,2.2-7.6,2.2c-5.2,0-8.9-1.7-11.3-5c-2.4-3.3-3.2-8.4-2.6-15.1
			C68.9,8.6,75.2,1.9,86.7,1.9c1.7,0,3.4,0.2,4.9,0.6c1.5,0.4,3,1,4.4,1.8l-1.3,3.6c-1.5-0.8-2.8-1.3-4.2-1.7
			c-1.3-0.3-2.7-0.5-4.1-0.5c-4.5,0-7.9,1.3-10.2,4C73.9,12.2,72.5,16.4,72,22.1z"/>
		<path class="st1" d="M114.5,18.1l-5.9,3.2c-1.3,0.7-2.3,1.5-3,2.5s-1.1,2.2-1.2,3.7h-0.1L103.2,42h-4l2.3-26.5h3.7l-0.5,6
			c1.2-2.3,2.9-4.1,5.1-5.3l2.9-1.6L114.5,18.1z"/>
		<path class="st1" d="M130.4,42l0.5-5.5c-1.1,1.8-2.4,3.3-4,4.3c-1.6,1-3.4,1.5-5.4,1.5c-1,0-2-0.2-2.8-0.5
			c-0.8-0.3-1.6-0.8-2.2-1.4c-0.6-0.6-1-1.3-1.3-2.1c-0.3-0.8-0.4-1.7-0.3-2.6c0.2-1.7,0.7-3.1,1.7-4.2c0.9-1.1,2.5-2.3,4.6-3.5
			l10.3-5.8c-0.6-2.3-2.6-3.4-5.9-3.4c-1.1,0-2.3,0.2-3.5,0.5c-1.2,0.3-2.5,0.8-3.8,1.4l-0.6-3.5c2.5-1.3,5.4-2,8.6-2
			c3.1,0,5.6,0.8,7.2,2.5c1.7,1.6,2.4,3.8,2.1,6.6L134.1,42H130.4z M122.3,38.7c1.1,0,2.1-0.2,3.2-0.7s1.9-1.1,2.7-2
			c0.8-0.8,1.5-1.8,2-3c0.5-1.1,0.9-2.4,1.1-3.7l0.3-3.3l-9,4.9c-1.3,0.7-2.2,1.4-2.7,2.1c-0.5,0.7-0.9,1.6-1,2.6
			c-0.1,0.9,0.2,1.6,0.9,2.2C120.3,38.4,121.2,38.7,122.3,38.7z"/>
		<path class="st1" d="M157,42l1.6-18.4c0.1-1.6-0.3-2.8-1.2-3.6c-0.9-0.8-2.2-1.2-3.9-1.2c-1,0-2,0.2-2.9,0.6
			c-0.9,0.4-1.7,1-2.4,1.8c-0.7,0.8-1.3,1.7-1.8,2.8c-0.5,1.1-0.8,2.2-0.9,3.5L144.2,42h-4l2.3-26.5h3.7l-0.4,5c1-1.8,2.3-3.1,4-4
			c1.6-0.9,3.4-1.4,5.4-1.4c2.4,0,4.3,0.7,5.7,2.1c1.3,1.4,1.9,3.4,1.7,5.9L161,42H157z"/>
		<path class="st1" d="M187.4,42h-3.7l0.4-4.8c-1.8,3.4-4.7,5.1-8.5,5.1c-2.9,0-5-1.2-6.4-3.6c-1.4-2.4-1.9-5.7-1.5-10
			c0.4-4.3,1.5-7.7,3.3-10c1.8-2.4,4.1-3.6,7-3.6c3.7,0,6.3,1.6,7.5,4.7l1.5-17.6h4L187.4,42z M177.2,38.6c2.2,0,3.9-0.8,5.1-2.4
			c1.2-1.6,1.9-4.1,2.2-7.5c0.6-6.6-1.3-10-5.7-10s-6.8,3.3-7.4,10c-0.3,3.4,0,5.9,1,7.5C173.4,37.8,174.9,38.6,177.2,38.6z"/>
		<path class="st1" d="M205.1,42.3c-4.2,0-7.2-1.1-9-3.3c-1.8-2.2-2.5-5.6-2.1-10.3c0.4-4.4,1.6-7.7,3.6-10.1c2-2.3,4.7-3.5,8.1-3.5
			c3.4,0,5.9,1.2,7.5,3.5c1.6,2.3,2.2,5.7,1.8,10.1l-0.2,1.8h-17c-0.1,2.9,0.5,5,1.8,6.3c1.2,1.3,3.2,1.9,5.9,1.9
			c1.4,0,2.6-0.2,3.7-0.5c1-0.3,2.2-0.9,3.4-1.6l1.3,3.3C211.3,41.5,208.4,42.3,205.1,42.3z M205.4,18.7c-4,0-6.4,2.8-7.2,8.3h13
			C211.3,21.4,209.4,18.7,205.4,18.7z"/>
		<path class="st1" d="M10.7,60.8L7.8,93.5H3.9l3.5-39.8h6.3l6.5,33l12.3-33H39l-3.5,39.8h-4.2l3-33.7L21.6,93.5h-4.4L10.7,60.8z"/>
		<path class="st1" d="M57.2,93.5l0.5-5.5c-1.1,1.8-2.4,3.3-4,4.3c-1.6,1-3.4,1.5-5.4,1.5c-1,0-2-0.2-2.8-0.5
			c-0.8-0.3-1.6-0.8-2.2-1.4c-0.6-0.6-1-1.3-1.3-2.1c-0.3-0.8-0.4-1.7-0.3-2.6c0.2-1.7,0.7-3.1,1.7-4.2c0.9-1.1,2.5-2.3,4.6-3.5
			l10.3-5.8c-0.6-2.3-2.6-3.4-5.9-3.4c-1.1,0-2.3,0.2-3.5,0.5c-1.2,0.3-2.5,0.8-3.8,1.4l-0.6-3.5c2.5-1.3,5.4-2,8.6-2
			c3.1,0,5.6,0.8,7.2,2.5c1.7,1.6,2.4,3.8,2.1,6.6l-1.5,17.8H57.2z M49,90.2c1.1,0,2.1-0.2,3.2-0.7c1-0.5,1.9-1.1,2.7-2s1.5-1.8,2-3
			c0.5-1.1,0.9-2.4,1.1-3.7l0.3-3.3l-9,4.9c-1.3,0.7-2.2,1.4-2.7,2.1c-0.5,0.7-0.9,1.6-1,2.6c-0.1,0.9,0.2,1.6,0.9,2.2
			C47.1,89.9,48,90.2,49,90.2z"/>
		<path class="st1" d="M71.5,70.6h-4.3l0.4-3.6h4.2l0.8-9.3h4L75.8,67H85l-0.4,3.6h-9.2l-1.3,15c-0.2,3.1,1.2,4.6,4.3,4.6
			c0.6,0,1.3-0.1,1.9-0.3s1.3-0.4,1.9-0.7l0.7,3.2c-1.6,0.9-3.4,1.4-5.4,1.4c-2.5,0-4.5-0.7-5.8-2.1c-1.3-1.4-1.9-3.3-1.7-5.7
			L71.5,70.6z"/>
		<path class="st1" d="M92.8,87.5c-0.2,1.8,0.6,2.7,2.4,2.7c0.3,0,0.5,0,0.6,0c0.1,0,0.3,0,0.4-0.1l-0.2,3.5
			c-0.5,0.2-1.1,0.3-1.8,0.3c-1.9,0-3.4-0.5-4.3-1.5c-0.9-1-1.3-2.5-1.1-4.5L90.6,67h4L92.8,87.5z M91.6,54.9h4l-0.5,5.7h-4
			L91.6,54.9z"/>
		<path class="st1" d="M117.8,93.5l1.6-18.4c0.1-1.6-0.3-2.8-1.2-3.6c-0.9-0.8-2.2-1.2-3.9-1.2c-1,0-2,0.2-2.9,0.6
			c-0.9,0.4-1.7,1-2.4,1.8c-0.7,0.8-1.3,1.7-1.8,2.8s-0.8,2.2-0.9,3.5L105,93.5h-4l2.3-26.5h3.7l-0.4,5c1-1.8,2.3-3.1,4-4
			c1.6-0.9,3.4-1.4,5.4-1.4c2.4,0,4.3,0.7,5.7,2.1c1.3,1.4,1.9,3.4,1.7,5.9l-1.6,18.8H117.8z"/>
		<path class="st1" d="M142.8,93.5l0.5-5.5c-1.1,1.8-2.4,3.3-4,4.3c-1.6,1-3.4,1.5-5.4,1.5c-1,0-2-0.2-2.8-0.5
			c-0.8-0.3-1.6-0.8-2.2-1.4c-0.6-0.6-1-1.3-1.3-2.1c-0.3-0.8-0.4-1.7-0.3-2.6c0.2-1.7,0.7-3.1,1.7-4.2c0.9-1.1,2.5-2.3,4.6-3.5
			l10.3-5.8c-0.6-2.3-2.6-3.4-5.9-3.4c-1.1,0-2.3,0.2-3.5,0.5c-1.2,0.3-2.5,0.8-3.8,1.4l-0.6-3.5c2.5-1.3,5.4-2,8.6-2
			c3.1,0,5.6,0.8,7.2,2.5c1.7,1.6,2.4,3.8,2.1,6.6l-1.5,17.8H142.8z M134.7,90.2c1.1,0,2.1-0.2,3.2-0.7s1.9-1.1,2.7-2s1.5-1.8,2-3
			c0.5-1.1,0.9-2.4,1.1-3.7l0.3-3.3l-9,4.9c-1.3,0.7-2.2,1.4-2.7,2.1c-0.5,0.7-0.9,1.6-1,2.6c-0.1,0.9,0.2,1.6,0.9,2.2
			C132.8,89.9,133.6,90.2,134.7,90.2z"/>
		<path class="st1" d="M157.5,87.5c-0.2,1.8,0.6,2.7,2.4,2.7c0.3,0,0.5,0,0.6,0c0.1,0,0.3,0,0.4-0.1l-0.2,3.5
			c-0.5,0.2-1.1,0.3-1.8,0.3c-1.9,0-3.4-0.5-4.3-1.5c-0.9-1-1.3-2.5-1.1-4.5l3-34.1h4L157.5,87.5z"/>
		<path class="st1" d="M177.3,93.8c-4.2,0-7.2-1.1-9-3.3c-1.8-2.2-2.5-5.6-2.1-10.3c0.4-4.4,1.6-7.7,3.6-10.1c2-2.3,4.7-3.5,8.1-3.5
			c3.4,0,5.9,1.2,7.5,3.5c1.6,2.3,2.2,5.7,1.8,10.1L187,82h-17c-0.1,2.9,0.5,5,1.8,6.3c1.2,1.3,3.2,1.9,5.9,1.9
			c1.4,0,2.6-0.2,3.7-0.5c1-0.3,2.2-0.9,3.4-1.6l1.3,3.3C183.5,93,180.5,93.8,177.3,93.8z M177.5,70.2c-4,0-6.4,2.8-7.2,8.3h13
			C183.4,73,181.5,70.2,177.5,70.2z"/>
	</g>
</g>
</svg>
