<?xml version="1.0" encoding="utf-8"?>
<!-- Generator: Adobe Illustrator 24.3.0, SVG Export Plug-In . SVG Version: 6.00 Build 0)  -->
<svg version="1.1" id="Layer_1" xmlns="http://www.w3.org/2000/svg" xmlns:xlink="http://www.w3.org/1999/xlink" x="0px" y="0px"
	 viewBox="0 0 264.1 119.6" style="enable-background:new 0 0 264.1 119.6;" xml:space="preserve">
<style type="text/css">
	.st0{fill:#FFFFFF;}
	.st1{fill:#F1645D;}
</style>
<g>
	<g>
		<path class="st0" d="M21.4,60.7H4.2V33.3h6.6v21.2h10.6V60.7z"/>
		<path class="st0" d="M40.8,60.7H23.6V33.3h17.2v6.2H30.2v4.2H39v6.2h-8.8v4.6h10.6V60.7z"/>
		<path class="st0" d="M52.3,61.1c-2,0-3.8-0.2-5.5-0.7s-3.1-1-4.2-1.8l1.4-6.1c1.2,0.7,2.5,1.3,3.9,1.7c1.4,0.4,2.8,0.6,4.2,0.6
			c1.5,0,2.6-0.2,3.3-0.5s1-0.9,1-1.7c0-0.6-0.2-1.1-0.7-1.5c-0.5-0.4-1.3-0.7-2.5-1.1l-3.1-0.8c-2.5-0.7-4.3-1.6-5.4-2.9
			c-1.1-1.2-1.6-3-1.6-5.2c0-1.3,0.2-2.4,0.7-3.4c0.5-1,1.2-1.9,2-2.6c0.9-0.7,1.9-1.3,3.2-1.7c1.3-0.4,2.7-0.6,4.2-0.6
			c3.8,0,6.8,0.7,9,2.2l-1.4,6.1c-0.9-0.7-2-1.2-3.1-1.5c-1.1-0.4-2.5-0.5-4-0.5c-1.4,0-2.4,0.2-3.1,0.5c-0.7,0.3-1.1,0.8-1.1,1.5
			c0,0.3,0,0.5,0.1,0.7c0.1,0.2,0.2,0.4,0.5,0.5c0.2,0.2,0.5,0.3,0.9,0.4c0.4,0.1,0.9,0.3,1.5,0.5l3,0.8c2.5,0.6,4.4,1.6,5.5,2.9
			c1.2,1.3,1.8,3.1,1.8,5.2c0,3-0.9,5.2-2.7,6.7C58.4,60.4,55.8,61.1,52.3,61.1z"/>
		<path class="st0" d="M93.1,60.7V43.6l-3.7,17.1h-7.5l-3.7-17.3v17.3H72V33.3h10.6l3.3,16.3l3.3-16.3h10.5v27.4H93.1z"/>
		<path class="st0" d="M117.4,33.3l9.6,27.4h-6.8l-1.6-4.8h-9.6l-1.6,4.8H101l9.6-27.4H117.4z M113.9,41.8l-2.7,7.9h5.4L113.9,41.8z
			"/>
		<path class="st0" d="M141.4,39.5h-6v21.2h-6.6V39.5h-6v-6.2h18.5V39.5z"/>
		<path class="st0" d="M149.6,33.3v27.4H143V33.3H149.6z"/>
		<path class="st0" d="M174.4,60.7h-7.3l-8.4-15.6v15.6h-6.2V33.3h7.3l8.4,15.6V33.3h6.2V60.7z"/>
		<path class="st0" d="M192.2,33.3l9.6,27.4H195l-1.6-4.8h-9.6l-1.6,4.8h-6.5l9.6-27.4H192.2z M188.6,41.8l-2.7,7.9h5.4L188.6,41.8z
			"/>
		<path class="st0" d="M220.5,60.7h-17.2V33.3h6.6v21.2h10.6V60.7z"/>
		<path class="st0" d="M240,60.7h-17.2V33.3H240v6.2h-10.6v4.2h8.8v6.2h-8.8v4.6H240V60.7z"/>
		<path class="st0" d="M251.4,61.1c-2,0-3.8-0.2-5.5-0.7s-3.1-1-4.2-1.8l1.4-6.1c1.2,0.7,2.5,1.3,3.9,1.7c1.4,0.4,2.8,0.6,4.2,0.6
			c1.5,0,2.6-0.2,3.3-0.5s1-0.9,1-1.7c0-0.6-0.2-1.1-0.7-1.5c-0.5-0.4-1.3-0.7-2.5-1.1l-3.1-0.8c-2.5-0.7-4.3-1.6-5.4-2.9
			c-1.1-1.2-1.6-3-1.6-5.2c0-1.3,0.2-2.4,0.7-3.4c0.5-1,1.2-1.9,2-2.6c0.9-0.7,1.9-1.3,3.2-1.7c1.3-0.4,2.7-0.6,4.2-0.6
			c3.8,0,6.8,0.7,9,2.2l-1.4,6.1c-0.9-0.7-2-1.2-3.1-1.5c-1.1-0.4-2.5-0.5-4-0.5c-1.4,0-2.4,0.2-3.1,0.5c-0.7,0.3-1.1,0.8-1.1,1.5
			c0,0.3,0,0.5,0.1,0.7c0.1,0.2,0.2,0.4,0.5,0.5c0.2,0.2,0.5,0.3,0.9,0.4c0.4,0.1,0.9,0.3,1.5,0.5l3,0.8c2.5,0.6,4.4,1.6,5.5,2.9
			c1.2,1.3,1.8,3.1,1.8,5.2c0,3-0.9,5.2-2.7,6.7C257.6,60.4,254.9,61.1,251.4,61.1z"/>
		<path class="st0" d="M23.6,76.2c0,4.1-0.8,7.2-2.3,9.3c-1.6,2.2-3.8,3.3-6.7,3.3H4V63.6h10.6c2.9,0,5.1,1.1,6.7,3.3
			S23.6,72.1,23.6,76.2z M10,69.3v13.8h3.5c1.3,0,2.3-0.6,3-1.8c0.7-1.2,1.1-2.9,1.1-5.1c0-2.2-0.4-3.9-1.1-5.1
			c-0.7-1.2-1.7-1.8-3-1.8H10z"/>
		<path class="st0" d="M41.7,88.8H25.9V63.6h15.8v5.7h-9.7v3.9H40v5.7h-8.1v4.2h9.7V88.8z"/>
		<path class="st0" d="M66.4,88.8H50.6V63.6h6v19.5h9.7V88.8z"/>
		<path class="st0" d="M68.3,63.6h5.5v2.7c0,0.5-0.1,1.2-0.2,1.9c-0.1,0.7-0.3,1.6-0.5,2.5L72,75.3L67,74l1-3.8
			c0.2-0.9,0.4-1.9,0.4-3V63.6z"/>
		<path class="st0" d="M88.2,63.6L97,88.8h-6.2l-1.5-4.4h-8.8L79,88.8H73l8.8-25.2H88.2z M84.9,71.4l-2.5,7.3h4.9L84.9,71.4z"/>
		<path class="st0" d="M97.1,76.2c0-2.1,0.2-3.9,0.7-5.5c0.5-1.6,1.2-3,2.2-4.1c1-1.1,2.1-2,3.5-2.5c1.4-0.6,3-0.9,4.7-0.9
			c2.6,0,4.7,0.7,6.3,2l-1.3,5.4c-0.9-0.6-1.6-1.1-2.2-1.3c-0.6-0.2-1.4-0.4-2.2-0.4c-2,0-3.4,0.6-4.3,1.7c-0.9,1.2-1.3,3-1.3,5.5
			c0,2.5,0.4,4.4,1.3,5.5c0.9,1.1,2.3,1.7,4.3,1.7c0.9,0,1.6-0.1,2.2-0.4c0.6-0.2,1.4-0.7,2.2-1.3l1.3,5.3c-1.6,1.4-3.7,2-6.3,2
			c-1.8,0-3.3-0.3-4.7-0.9c-1.4-0.6-2.6-1.4-3.5-2.5c-1-1.1-1.7-2.5-2.2-4.1C97.4,80.1,97.1,78.3,97.1,76.2z"/>
		<path class="st0" d="M133.1,69.3h-5.5v19.5h-6V69.3h-5.5v-5.7h17V69.3z"/>
		<path class="st0" d="M144.2,89.2c-2.9,0-5.1-0.7-6.7-2.2c-1.6-1.4-2.4-3.5-2.4-6V63.6h5.8v16.8c0,0.9,0.3,1.7,0.8,2.2
			c0.6,0.5,1.3,0.8,2.3,0.8c0.9,0,1.7-0.3,2.2-0.8c0.6-0.5,0.8-1.3,0.8-2.2V63.6h6V81c0,2.6-0.8,4.6-2.4,6
			C149.2,88.4,147,89.2,144.2,89.2z"/>
		<path class="st0" d="M4.5,93.3h1.7v8.4H4.5V93.3z M5.6,102.4l13.2,3.5l-0.4,1.6L5.2,104L5.6,102.4z M17.1,117.7H5.4V116h11.8
			V117.7z M18.8,94.2H7v-1.7h11.8V94.2z M17.9,108.5h1.7v8.4h-1.7V108.5z"/>
		<path class="st0" d="M26.3,115.2h-1.7V93.3h1.7V115.2z M37.3,117.7H25.5V116h11.8V117.7z M38.9,94.2H27.2v-1.7h11.8V94.2z
			 M39.8,116.8h-1.7V95h1.7V116.8z"/>
		<path class="st0" d="M46.5,115.2h-1.7V93.3h1.7V115.2z M59.1,117.7H45.6V116h13.4V117.7z M59.1,94.2H47.3v-1.7h11.8V94.2z"/>
		<path class="st0" d="M65,116.8h-1.7V93.3H65V116.8z"/>
		<path class="st0" d="M75.6,95.2l-6.1,22.6l-1.6-0.4L74,94.7L75.6,95.2z M74.2,107.6h6.7v1.7h-6.7V107.6z M78.4,92.5v1.7H75v-1.7
			H78.4z M80.6,93.1l6.5,24.2l-1.6,0.4L79,93.5L80.6,93.1z"/>
		<path class="st0" d="M91.8,115.2h-1.7V93.3h1.7V115.2z M91,116h11.8v1.7H91V116z"/>
		<path class="st0" d="M108.6,115.2h-1.7V93.3h1.7V115.2z M107.8,116h11.8v1.7h-11.8V116z M109.4,92.5h10.1v1.7h-10.1V92.5z
			 M109.4,104.3h8.4v1.7h-8.4V104.3z"/>
	</g>
	<g>
		<rect x="104" y="6.1" class="st1" width="3.6" height="3.6"/>
		<rect x="127.6" y="6.1" class="st1" width="3.6" height="3.6"/>
		<rect x="79.9" y="6.1" class="st1" width="3.6" height="3.6"/>
		<rect x="54" y="4.3" class="st1" width="7.2" height="7.2"/>
		<rect x="4.1" y="2.5" class="st1" width="10.8" height="10.8"/>
		<rect x="28.1" y="2.5" class="st1" width="10.8" height="10.8"/>
		<polygon class="st1" points="151.7,15.9 148.7,14.5 156.2,0 159.2,1.3 		"/>
	</g>
</g>
</svg>
