<?xml version="1.0" encoding="utf-8"?>
<!-- Generator: Adobe Illustrator 24.3.0, SVG Export Plug-In . SVG Version: 6.00 Build 0)  -->
<svg version="1.1" id="Layer_1" xmlns="http://www.w3.org/2000/svg" xmlns:xlink="http://www.w3.org/1999/xlink" x="0px" y="0px"
	 viewBox="0 0 485.3 81.7" style="enable-background:new 0 0 485.3 81.7;" xml:space="preserve">
<style type="text/css">
	.st0{fill:#F1645D;}
	.st1{fill:#121C4E;}
</style>
<g>
	<rect x="168.2" y="39" class="st0" width="6.6" height="6.6"/>
	<rect x="212.1" y="39" class="st0" width="6.6" height="6.6"/>
	<rect x="255.9" y="39" class="st0" width="6.6" height="6.6"/>
	<rect x="296.5" y="35.7" class="st0" width="13.2" height="13.2"/>
	<rect x="475.2" y="39" class="st0" width="6.6" height="6.6"/>
	<rect x="431.3" y="39" class="st0" width="6.6" height="6.6"/>
	<rect x="387.5" y="39" class="st0" width="6.6" height="6.6"/>
	<rect x="340.3" y="35.7" class="st0" width="13.2" height="13.2"/>
</g>
<g>
	<polygon class="st1" points="54.3,7.9 57.7,7 74.4,67.6 71,68.5 	"/>
	<polygon class="st0" points="104.2,8.5 87.6,69.1 84.2,68.2 100.8,7.6 	"/>
	<polygon class="st0" points="51.9,29.2 40.1,71.5 36.7,70.6 48.4,28.3 	"/>
	<polygon class="st0" points="5.6,8.5 9,7.6 27.5,76.1 24.2,77 	"/>
	<polygon class="st0" points="114,9.1 117.4,8.2 135.9,76.7 132.5,77.6 	"/>
	<polygon class="st1" points="159.6,26.8 147.9,69.1 144.4,68.2 156.2,25.9 	"/>
</g>
</svg>
