<?xml version="1.0" encoding="utf-8"?>
<!-- Generator: Adobe Illustrator 24.3.0, SVG Export Plug-In . SVG Version: 6.00 Build 0)  -->
<svg version="1.1" id="Layer_1" xmlns="http://www.w3.org/2000/svg" xmlns:xlink="http://www.w3.org/1999/xlink" x="0px" y="0px"
	 viewBox="0 0 219.2 222.9" style="enable-background:new 0 0 219.2 222.9;" xml:space="preserve">
<style type="text/css">
	.st0{fill:#F1645D;}
	.st1{fill:#121C4E;}
	.st2{fill:#FFFFFF;}
</style>
<g>
	<rect x="140" y="210.2" class="st0" width="4.7" height="4.7"/>
	<rect x="170.8" y="210.2" class="st0" width="4.7" height="4.7"/>
	<rect x="108.7" y="210.2" class="st0" width="4.7" height="4.7"/>
	<rect x="75" y="207.9" class="st0" width="9.4" height="9.4"/>
	<rect x="10" y="205.5" class="st0" width="14.1" height="14.1"/>
	<rect x="41.3" y="205.5" class="st0" width="14.1" height="14.1"/>
	<polygon class="st0" points="202.2,222.9 198.2,221.2 208,202.2 212,204 	"/>
</g>
<rect class="st1" width="219.2" height="177"/>
<g>
	<path class="st2" d="M29.7,57.7H11.9V29.2h6.8v22h11V57.7z"/>
	<path class="st2" d="M49.9,57.7H32.1V29.2h17.9v6.5h-11V40H48v6.5h-9.1v4.8h11V57.7z"/>
	<path class="st2" d="M61.9,58.1c-2.1,0-4-0.2-5.7-0.7c-1.8-0.5-3.2-1.1-4.4-1.9l1.4-6.4c1.2,0.8,2.6,1.4,4,1.8
		c1.5,0.4,2.9,0.7,4.3,0.7c1.5,0,2.7-0.2,3.4-0.6c0.7-0.4,1.1-1,1.1-1.8c0-0.6-0.2-1.1-0.7-1.5c-0.5-0.4-1.3-0.8-2.6-1.1l-3.2-0.9
		c-2.6-0.7-4.5-1.7-5.6-3c-1.1-1.3-1.7-3.1-1.7-5.4c0-1.3,0.2-2.5,0.7-3.6s1.2-2,2.1-2.7c0.9-0.8,2-1.3,3.3-1.7
		c1.3-0.4,2.8-0.6,4.4-0.6c4,0,7.1,0.7,9.4,2.2l-1.4,6.4c-1-0.7-2-1.2-3.2-1.6c-1.2-0.4-2.6-0.6-4.1-0.6c-1.4,0-2.5,0.2-3.2,0.5
		c-0.7,0.4-1.1,0.9-1.1,1.5c0,0.3,0,0.6,0.1,0.8c0.1,0.2,0.2,0.4,0.5,0.6c0.2,0.2,0.6,0.3,1,0.5c0.4,0.1,0.9,0.3,1.6,0.5l3.2,0.8
		c2.6,0.7,4.5,1.7,5.7,3.1c1.2,1.4,1.8,3.2,1.8,5.4c0,3.1-0.9,5.4-2.8,7C68.2,57.3,65.5,58.1,61.9,58.1z"/>
	<path class="st2" d="M33.8,92V74.3L29.9,92h-7.8l-3.9-17.9V92h-6.4V63.5h11l3.4,17l3.4-17h10.9V92H33.8z"/>
	<path class="st2" d="M59.1,63.5l10,28.5H62l-1.7-4.9h-10L48.7,92H42l10-28.5H59.1z M55.3,72.4l-2.8,8.2h5.6L55.3,72.4z"/>
	<path class="st2" d="M83.9,70h-6.2v22h-6.8V70h-6.2v-6.5h19.2V70z"/>
	<path class="st2" d="M92.5,63.5V92h-6.8V63.5H92.5z"/>
	<path class="st2" d="M118.3,92h-7.6L102,75.8V92h-6.4V63.5h7.6l8.7,16.2V63.5h6.4V92z"/>
	<path class="st2" d="M136.8,63.5l10,28.5h-7.1l-1.7-4.9h-10l-1.7,4.9h-6.7l10-28.5H136.8z M133,72.4l-2.8,8.2h5.6L133,72.4z"/>
	<path class="st2" d="M166.2,92h-17.9V63.5h6.8v22h11V92z"/>
	<path class="st2" d="M186.4,92h-17.9V63.5h17.9V70h-11v4.4h9.1v6.5h-9.1v4.8h11V92z"/>
	<path class="st2" d="M198.3,92.5c-2.1,0-4-0.2-5.7-0.7c-1.8-0.5-3.2-1.1-4.4-1.9l1.4-6.4c1.2,0.8,2.6,1.4,4,1.8
		c1.5,0.4,2.9,0.7,4.3,0.7c1.5,0,2.7-0.2,3.4-0.6c0.7-0.4,1.1-1,1.1-1.8c0-0.6-0.2-1.1-0.7-1.5c-0.5-0.4-1.3-0.8-2.6-1.1l-3.2-0.9
		c-2.6-0.7-4.5-1.7-5.6-3c-1.1-1.3-1.7-3.1-1.7-5.4c0-1.3,0.2-2.5,0.7-3.6s1.2-2,2.1-2.7c0.9-0.8,2-1.3,3.3-1.7
		c1.3-0.4,2.8-0.6,4.4-0.6c4,0,7.1,0.7,9.4,2.2l-1.4,6.4c-1-0.7-2-1.2-3.2-1.6c-1.2-0.4-2.6-0.6-4.1-0.6c-1.4,0-2.5,0.2-3.2,0.5
		c-0.7,0.4-1.1,0.9-1.1,1.5c0,0.3,0,0.6,0.1,0.8c0.1,0.2,0.2,0.4,0.5,0.6c0.2,0.2,0.6,0.3,1,0.5c0.4,0.1,0.9,0.3,1.6,0.5l3.2,0.8
		c2.6,0.7,4.5,1.7,5.7,3.1c1.2,1.4,1.8,3.2,1.8,5.4c0,3.1-0.9,5.4-2.8,7C204.7,91.7,201.9,92.5,198.3,92.5z"/>
	<path class="st2" d="M32,113.3c0,4.2-0.8,7.4-2.4,9.7c-1.6,2.3-3.9,3.4-6.9,3.4h-11v-26.2h11c3,0,5.3,1.1,6.9,3.4
		C31.2,105.9,32,109.1,32,113.3z M18,106.2v14.3h3.6c1.3,0,2.4-0.6,3.1-1.9c0.7-1.3,1.1-3,1.1-5.3c0-2.3-0.4-4-1.1-5.3
		c-0.7-1.3-1.8-1.9-3.1-1.9H18z"/>
	<path class="st2" d="M50.8,126.4H34.4v-26.2h16.4v5.9H40.7v4h8.4v5.9h-8.4v4.4h10.1V126.4z"/>
	<path class="st2" d="M76.5,126.4H60.1v-26.2h6.3v20.2h10.1V126.4z"/>
	<path class="st2" d="M78.6,100.2h5.8v2.8c0,0.6-0.1,1.2-0.2,2c-0.2,0.8-0.3,1.6-0.5,2.6l-1.2,4.9l-5.2-1.4l1-3.9
		c0.3-1,0.4-2,0.4-3.1V100.2z"/>
	<path class="st2" d="M99.1,100.2l9.2,26.2h-6.5l-1.5-4.5h-9.1l-1.5,4.5h-6.2l9.2-26.2H99.1z M95.7,108.4l-2.6,7.6h5.1L95.7,108.4z"
		/>
	<path class="st2" d="M108.5,113.3c0-2.1,0.3-4,0.8-5.7c0.5-1.7,1.3-3.1,2.3-4.2c1-1.2,2.2-2,3.7-2.6c1.4-0.6,3.1-0.9,4.9-0.9
		c2.7,0,4.9,0.7,6.6,2.1l-1.3,5.6c-0.9-0.7-1.7-1.1-2.3-1.4c-0.7-0.3-1.5-0.4-2.3-0.4c-2.1,0-3.6,0.6-4.5,1.8
		c-0.9,1.2-1.4,3.1-1.4,5.7c0,2.6,0.5,4.5,1.4,5.7c0.9,1.2,2.4,1.8,4.5,1.8c0.9,0,1.7-0.1,2.3-0.4c0.7-0.2,1.5-0.7,2.3-1.3l1.3,5.5
		c-1.7,1.4-3.9,2.1-6.6,2.1c-1.8,0-3.5-0.3-4.9-0.9c-1.4-0.6-2.7-1.5-3.7-2.6c-1-1.2-1.8-2.6-2.3-4.2
		C108.7,117.4,108.5,115.5,108.5,113.3z"/>
	<path class="st2" d="M145.9,106.2h-5.7v20.2h-6.3v-20.2h-5.7v-5.9h17.7V106.2z"/>
	<path class="st2" d="M157.4,126.8c-3,0-5.3-0.8-6.9-2.2c-1.7-1.5-2.5-3.6-2.5-6.3v-18h6.1v17.4c0,1,0.3,1.8,0.9,2.3
		c0.6,0.6,1.4,0.9,2.4,0.9c1,0,1.8-0.3,2.3-0.9c0.6-0.6,0.9-1.3,0.9-2.3v-17.4h6.3v18c0,2.7-0.8,4.8-2.5,6.3
		C162.6,126,160.3,126.8,157.4,126.8z"/>
	<path class="st0" d="M12.2,136.4H14v8.7h-1.7V136.4z M13.3,145.7l13.7,3.6l-0.5,1.7l-13.7-3.6L13.3,145.7z M25.3,161.7H13.1v-1.7
		h12.2V161.7z M27.1,137.2H14.8v-1.7h12.2V137.2z M26.2,152.1h1.7v8.7h-1.7V152.1z"/>
	<path class="st0" d="M34.9,159h-1.7v-22.7h1.7V159z M46.2,161.7H34v-1.7h12.2V161.7z M48,137.2H35.8v-1.7H48V137.2z M48.9,160.8
		h-1.7v-22.7h1.7V160.8z"/>
	<path class="st0" d="M55.8,159h-1.7v-22.7h1.7V159z M68.9,161.7H55v-1.7h14V161.7z M68.9,137.2H56.7v-1.7h12.2V137.2z"/>
	<path class="st0" d="M75,160.8h-1.7v-24.4H75V160.8z"/>
	<path class="st0" d="M86.1,138.2l-6.4,23.4l-1.7-0.5l6.4-23.4L86.1,138.2z M84.6,151.1h7v1.7h-7V151.1z M89,135.4v1.7h-3.5v-1.7H89
		z M91.3,136.1l6.8,25.1l-1.7,0.5l-6.8-25.1L91.3,136.1z"/>
	<path class="st0" d="M102.9,159h-1.7v-22.7h1.7V159z M102.1,159.9h12.2v1.7h-12.2V159.9z"/>
	<path class="st0" d="M120.4,159h-1.7v-22.7h1.7V159z M119.5,159.9h12.2v1.7h-12.2V159.9z M121.3,135.5h10.5v1.7h-10.5V135.5z
		 M121.3,147.7h8.7v1.7h-8.7V147.7z"/>
</g>
</svg>
